<svg xmlns="http://www.w3.org/2000/svg" xmlns:xlink="http://www.w3.org/1999/xlink" version="1.1" baseProfile="full" style="user-select: none; position: absolute; left: 0px; top: 0px;" width="500" height="500"><g><rect width="500" height="500" x="0" y="0" id="0" style="fill: transparent;"></rect></g><g><defs><clipPath id="zr2323-clip-0"><path d="M 49 59 L 451 59 L 451 431 L 49 431 L 49 59" fill="#000" fill-opacity="1" stroke="none"></path></clipPath></defs><path d="M 50 430.5 L 450 430.5" fill="none" stroke="#E0E6F1" stroke-width="1" paint-order="fill" stroke-opacity="1" stroke-dasharray="" stroke-linecap="butt" stroke-miterlimit="10"></path><path d="M 50 377.5 L 450 377.5" fill="none" stroke="#E0E6F1" stroke-width="1" paint-order="fill" stroke-opacity="1" stroke-dasharray="" stroke-linecap="butt" stroke-miterlimit="10"></path><path d="M 50 324.5 L 450 324.5" fill="none" stroke="#E0E6F1" stroke-width="1" paint-order="fill" stroke-opacity="1" stroke-dasharray="" stroke-linecap="butt" stroke-miterlimit="10"></path><path d="M 50 271.5 L 450 271.5" fill="none" stroke="#E0E6F1" stroke-width="1" paint-order="fill" stroke-opacity="1" stroke-dasharray="" stroke-linecap="butt" stroke-miterlimit="10"></path><path d="M 50 218.5 L 450 218.5" fill="none" stroke="#E0E6F1" stroke-width="1" paint-order="fill" stroke-opacity="1" stroke-dasharray="" stroke-linecap="butt" stroke-miterlimit="10"></path><path d="M 50 165.5 L 450 165.5" fill="none" stroke="#E0E6F1" stroke-width="1" paint-order="fill" stroke-opacity="1" stroke-dasharray="" stroke-linecap="butt" stroke-miterlimit="10"></path><path d="M 50 113.5 L 450 113.5" fill="none" stroke="#E0E6F1" stroke-width="1" paint-order="fill" stroke-opacity="1" stroke-dasharray="" stroke-linecap="butt" stroke-miterlimit="10"></path><path d="M 50 60.5 L 450 60.5" fill="none" stroke="#E0E6F1" stroke-width="1" paint-order="fill" stroke-opacity="1" stroke-dasharray="" stroke-linecap="butt" stroke-miterlimit="10"></path><path d="M 50 218.5 L 450 218.5" fill="none" stroke="#6E7079" stroke-width="1" paint-order="fill" stroke-opacity="1" stroke-dasharray="" stroke-linecap="round" stroke-miterlimit="10"></path><path d="M 50.5 218.5714 L 50.5 223.5714" fill="none" stroke="#6E7079" stroke-width="1" paint-order="fill" stroke-opacity="1" stroke-dasharray="" stroke-linecap="butt" stroke-miterlimit="10"></path><path d="M 116.5 218.5714 L 116.5 223.5714" fill="none" stroke="#6E7079" stroke-width="1" paint-order="fill" stroke-opacity="1" stroke-dasharray="" stroke-linecap="butt" stroke-miterlimit="10"></path><path d="M 183.5 218.5714 L 183.5 223.5714" fill="none" stroke="#6E7079" stroke-width="1" paint-order="fill" stroke-opacity="1" stroke-dasharray="" stroke-linecap="butt" stroke-miterlimit="10"></path><path d="M 250.5 218.5714 L 250.5 223.5714" fill="none" stroke="#6E7079" stroke-width="1" paint-order="fill" stroke-opacity="1" stroke-dasharray="" stroke-linecap="butt" stroke-miterlimit="10"></path><path d="M 316.5 218.5714 L 316.5 223.5714" fill="none" stroke="#6E7079" stroke-width="1" paint-order="fill" stroke-opacity="1" stroke-dasharray="" stroke-linecap="butt" stroke-miterlimit="10"></path><path d="M 383.5 218.5714 L 383.5 223.5714" fill="none" stroke="#6E7079" stroke-width="1" paint-order="fill" stroke-opacity="1" stroke-dasharray="" stroke-linecap="butt" stroke-miterlimit="10"></path><path d="M 450.5 218.5714 L 450.5 223.5714" fill="none" stroke="#6E7079" stroke-width="1" paint-order="fill" stroke-opacity="1" stroke-dasharray="" stroke-linecap="butt" stroke-miterlimit="10"></path><text xml:space="preserve" style="font: sans-serif 12px normal normal normal 12px;" fill="#6E7079" fill-opacity="1" stroke="none" transform="matrix(1,0,0,1,42,430)" dominant-baseline="central" text-anchor="end" x="0" y="0">-0.2</text><text xml:space="preserve" style="font: sans-serif 12px normal normal normal 12px;" fill="#6E7079" fill-opacity="1" stroke="none" transform="matrix(1,0,0,1,42,377.1429)" dominant-baseline="central" text-anchor="end" x="0" y="0">-0.15</text><text xml:space="preserve" style="font: sans-serif 12px normal normal normal 12px;" fill="#6E7079" fill-opacity="1" stroke="none" transform="matrix(1,0,0,1,42,324.2857)" dominant-baseline="central" text-anchor="end" x="0" y="0">-0.1</text><text xml:space="preserve" style="font: sans-serif 12px normal normal normal 12px;" fill="#6E7079" fill-opacity="1" stroke="none" transform="matrix(1,0,0,1,42,271.4286)" dominant-baseline="central" text-anchor="end" x="0" y="0">-0.05</text><text xml:space="preserve" style="font: sans-serif 12px normal normal normal 12px;" fill="#6E7079" fill-opacity="1" stroke="none" transform="matrix(1,0,0,1,42,218.5714)" dominant-baseline="central" text-anchor="end" x="0" y="0">0</text><text xml:space="preserve" style="font: sans-serif 12px normal normal normal 12px;" fill="#6E7079" fill-opacity="1" stroke="none" transform="matrix(1,0,0,1,42,165.7143)" dominant-baseline="central" text-anchor="end" x="0" y="0">0.05</text><text xml:space="preserve" style="font: sans-serif 12px normal normal normal 12px;" fill="#6E7079" fill-opacity="1" stroke="none" transform="matrix(1,0,0,1,42,112.8571)" dominant-baseline="central" text-anchor="end" x="0" y="0">0.1</text><text xml:space="preserve" style="font: sans-serif 12px normal normal normal 12px;" fill="#6E7079" fill-opacity="1" stroke="none" transform="matrix(1,0,0,1,42,60)" dominant-baseline="central" text-anchor="end" x="0" y="0">0.15</text><text xml:space="preserve" style="font: sans-serif 12px normal normal normal 12px;" fill="#6E7079" fill-opacity="1" stroke="none" transform="matrix(1,0,0,1,83.3333,438)" dominant-baseline="central" text-anchor="middle" x="0" y="6">Jan</text><text xml:space="preserve" style="font: sans-serif 12px normal normal normal 12px;" fill="#6E7079" fill-opacity="1" stroke="none" transform="matrix(1,0,0,1,150,438)" dominant-baseline="central" text-anchor="middle" x="0" y="6">Feb</text><text xml:space="preserve" style="font: sans-serif 12px normal normal normal 12px;" fill="#6E7079" fill-opacity="1" stroke="none" transform="matrix(1,0,0,1,216.6667,438)" dominant-baseline="central" text-anchor="middle" x="0" y="6">Mar</text><text xml:space="preserve" style="font: sans-serif 12px normal normal normal 12px;" fill="#6E7079" fill-opacity="1" stroke="none" transform="matrix(1,0,0,1,283.3333,438)" dominant-baseline="central" text-anchor="middle" x="0" y="6">Apr</text><text xml:space="preserve" style="font: sans-serif 12px normal normal normal 12px;" fill="#6E7079" fill-opacity="1" stroke="none" transform="matrix(1,0,0,1,350,438)" dominant-baseline="central" text-anchor="middle" x="0" y="6">May</text><text xml:space="preserve" style="font: sans-serif 12px normal normal normal 12px;" fill="#6E7079" fill-opacity="1" stroke="none" transform="matrix(1,0,0,1,416.6667,438)" dominant-baseline="central" text-anchor="middle" x="0" y="6">Jun</text><g clip-path="url(#zr2323-clip-0)"><path d="M 83.3333 218.5714 L 150 218.5714 L 216.6667 218.5714 L 283.3333 207.26 L 350 207.26 L 416.6667 218.5714 L 483.3333 218.5714 L 550 207.26 L 616.6667 207.26 L 683.3333 207.26 L 750 207.26 L 816.6667 218.5714 L 883.3333 207.26 L 950 207.26 L 1016.6667 195.9486 L 1083.3334 207.26 L 1150 207.26 L 1216.6666 195.9486 L 1283.3334 207.26 L 1350 207.26 L 1416.6666 218.5714 L 1483.3334 218.5714 L 1550 207.26 L 1616.6666 207.26 L 1683.3334 207.26 L 1750 218.5714 L 1816.6666 218.5714 L 1883.3334 229.8829 L 1950 229.8829 L 2016.6666 218.5714 L 2083.3333 218.5714 L 2150 218.5714 L 2216.6667 218.5714 L 2283.3333 207.26 L 2350 207.26 L 2416.6667 218.5714 L 2483.3333 207.26 L 2550 218.5714 L 2616.6667 218.5714 L 2683.3333 218.5714 L 2750 218.5714 L 2816.6667 207.26 L 2883.3333 207.26 L 2950 218.5714 L 3016.6667 218.5714 L 3083.3333 218.5714 L 3150 218.5714 L 3216.6667 218.5714 L 3283.3333 218.5714 L 3350 229.8829 L 3416.6667 218.5714 L 3483.3333 218.5714 L 3550 218.5714 L 3616.6667 218.5714 L 3683.3333 218.5714 L 3750 218.5714 L 3816.6667 229.8829 L 3883.3333 229.8829 L 3950 218.5714 L 4016.6667 218.5714 L 4083.3333 229.8829 L 4150 229.8829 L 4216.6665 218.5714 L 4283.3335 218.5714 L 4350 229.8829 L 4416.6665 229.8829 L 4483.3335 218.5714 L 4550 218.5714 L 4616.6665 218.5714 L 4683.3335 207.26 L 4750 218.5714 L 4816.6665 218.5714 L 4883.3335 229.8829 L 4950 229.8829 L 5016.6665 218.5714 L 5083.3335 218.5714 L 5150 229.8829 L 5216.6665 229.8829 L 5283.3335 229.8829 L 5350 229.8829 L 5416.6665 241.1943 L 5483.3335 241.1943 L 5550 229.8829 L 5616.6665 241.1943 L 5683.3335 241.1943 L 5750 241.1943 L 5816.6665 241.1943 L 5883.3335 229.8829 L 5950 229.8829 L 6016.6665 241.1943 L 6083.3335 241.1943 L 6150 229.8829 L 6216.6665 229.8829 L 6283.3335 229.8829 L 6350 229.8829 L 6416.6665 241.1943 L 6483.3335 229.8829 L 6550 229.8829 L 6616.6665 241.1943 L 6683.3335 241.1943 L 6750 241.1943 L 6816.6665 229.8829 L 6883.3335 229.8829 L 6950 241.1943 L 7016.6665 241.1943 L 7083.3335 229.8829 L 7150 229.8829 L 7216.6665 229.8829 L 7283.3335 229.8829 L 7350 241.1943 L 7416.6665 241.1943 L 7483.3335 252.5057 L 7550 252.5057 L 7616.6665 241.1943 L 7683.3335 241.1943 L 7750 252.5057 L 7816.6665 252.5057 L 7883.3335 241.1943 L 7950 241.1943 L 8016.6665 241.1943 L 8083.3335 241.1943 L 8150 252.5057 L 8216.667 252.5057 L 8283.333 263.8171 L 8350 263.8171 L 8416.667 252.5057 L 8483.333 252.5057 L 8550 241.1943 L 8616.667 252.5057 L 8683.333 252.5057 L 8750 252.5057 L 8816.667 241.1943 L 8883.333 252.5057 L 8950 252.5057 L 9016.667 241.1943 L 9083.333 241.1943 L 9150 252.5057 L 9216.667 252.5057 L 9283.333 263.8171 L 9350 263.8171 L 9416.667 263.8171 L 9483.333 263.8171 L 9550 252.5057 L 9616.667 252.5057 L 9683.333 241.1943 L 9750 241.1943 L 9816.667 252.5057 L 9883.333 252.5057 L 9950 252.5057 L 10016.667 252.5057 L 10083.333 263.8171 L 10150 263.8171 L 10216.667 252.5057 L 10283.333 263.8171 L 10350 252.5057 L 10416.667 252.5057 L 10483.333 263.8171 L 10550 263.8171 L 10616.667 252.5057 L 10683.333 252.5057 L 10750 241.1943 L 10816.667 241.1943 L 10883.333 252.5057 L 10950 241.1943 L 11016.667 252.5057 L 11083.333 252.5057 L 11150 263.8171 L 11216.667 263.8171 L 11283.333 252.5057 L 11350 252.5057 L 11416.667 252.5057 L 11483.333 252.5057 L 11550 263.8171 L 11616.667 263.8171 L 11683.333 252.5057 L 11750 252.5057 L 11816.667 252.5057 L 11883.333 252.5057 L 11950 241.1943 L 12016.667 241.1943 L 12083.333 252.5057 L 12150 252.5057 L 12216.667 252.5057 L 12283.333 252.5057 L 12350 263.8171 L 12416.667 263.8171 L 12483.333 252.5057 L 12550 252.5057 L 12616.667 263.8171 L 12683.333 252.5057 L 12750 263.8171 L 12816.667 263.8171 L 12883.333 252.5057 L 12950 252.5057 L 13016.667 252.5057 L 13083.333 252.5057 L 13150 241.1943 L 13216.667 241.1943 L 13283.333 252.5057 L 13350 252.5057 L 13416.667 241.1943 L 13483.333 252.5057 L 13550 241.1943 L 13616.667 241.1943 L 13683.333 241.1943 L 13750 241.1943 L 13816.667 252.5057 L 13883.333 252.5057 L 13950 241.1943 L 14016.667 241.1943 L 14083.333 241.1943 L 14150 241.1943 L 14216.667 229.8829 L 14283.333 229.8829 L 14350 229.8829 L 14416.667 241.1943 L 14483.333 241.1943 L 14550 252.5057 L 14616.667 252.5057 L 14683.333 252.5057 L 14750 252.5057 L 14816.667 241.1943 L 14883.333 241.1943 L 14950 229.8829 L 15016.667 241.1943 L 15083.333 241.1943 L 15150 241.1943 L 15216.667 241.1943 L 15283.333 252.5057 L 15350 252.5057 L 15416.667 241.1943 L 15483.333 241.1943 L 15550 252.5057 L 15616.667 252.5057 L 15683.333 263.8171 L 15750 263.8171 L 15816.667 263.8171 L 15883.333 263.8171 L 15950 275.1286 L 16016.667 263.8171 L 16083.333 263.8171 L 16150 263.8171 L 16216.667 275.1286 L 16283.333 275.1286 L 16350 286.44 L 16416.666 286.44 L 16483.334 275.1286 L 16550 275.1286 L 16616.666 275.1286 L 16683.334 275.1286 L 16750 286.44 L 16816.666 275.1286 L 16883.334 286.44 L 16950 286.44 L 17016.666 275.1286 L 17083.334 275.1286 L 17150 275.1286 L 17216.666 275.1286 L 17283.334 263.8171 L 17350 263.8171 L 17416.666 252.5057 L 17483.334 252.5057 L 17550 263.8171 L 17616.666 263.8171 L 17683.334 263.8171 L 17750 252.5057 L 17816.666 252.5057 L 17883.334 263.8171 L 17950 263.8171 L 18016.666 263.8171 L 18083.334 263.8171 L 18150 275.1286 L 18216.666 275.1286 L 18283.334 263.8171 L 18350 263.8171 L 18416.666 275.1286 L 18483.334 275.1286 L 18550 263.8171 L 18616.666 263.8171 L 18683.334 263.8171 L 18750 263.8171 L 18816.666 252.5057 L 18883.334 263.8171 L 18950 263.8171 L 19016.666 252.5057 L 19083.334 263.8171 L 19150 263.8171 L 19216.666 252.5057 L 19283.334 252.5057 L 19350 252.5057 L 19416.666 263.8171 L 19483.334 263.8171 L 19550 263.8171 L 19616.666 252.5057 L 19683.334 252.5057 L 19750 263.8171 L 19816.666 263.8171 L 19883.334 252.5057 L 19950 263.8171 L 20016.666 263.8171 L 20083.334 252.5057 L 20150 263.8171 L 20216.666 263.8171 L 20283.334 263.8171 L 20350 263.8171 L 20416.666 275.1286 L 20483.334 275.1286 L 20550 275.1286 L 20616.666 275.1286 L 20683.334 275.1286 L 20750 275.1286 L 20816.666 286.44 L 20883.334 286.44 L 20950 297.7514 L 21016.666 297.7514 L 21083.334 297.7514 L 21150 297.7514 L 21216.666 286.44 L 21283.334 297.7514 L 21350 297.7514 L 21416.666 286.44 L 21483.334 286.44 L 21550 297.7514 L 21616.666 297.7514 L 21683.334 286.44 L 21750 297.7514 L 21816.666 297.7514 L 21883.334 297.7514 L 21950 297.7514 L 22016.666 309.0629 L 22083.334 309.0629 L 22150 297.7514 L 22216.666 297.7514 L 22283.334 309.0629 L 22350 309.0629 L 22416.666 297.7514 L 22483.334 297.7514 L 22550 297.7514 L 22616.666 309.0629 L 22683.334 320.3743 L 22750 320.3743 L 22816.666 309.0629 L 22883.334 309.0629 L 22950 309.0629 L 23016.666 309.0629 L 23083.334 320.3743 L 23150 320.3743 L 23216.666 320.3743 L 23283.334 320.3743 L 23350 320.3743 L 23416.666 320.3743 L 23483.334 320.3743 L 23550 320.3743 L 23616.666 331.6857 L 23683.334 331.6857 L 23750 331.6857 L 23816.666 331.6857 L 23883.334 342.9971 L 23950 342.9971 L 24016.666 331.6857 L 24083.334 331.6857 L 24150 320.3743 L 24216.666 320.3743 L 24283.334 320.3743 L 24350 320.3743 L 24416.666 331.6857 L 24483.334 342.9971 L 24550 342.9971 L 24616.666 331.6857 L 24683.334 331.6857 L 24750 320.3743 L 24816.666 331.6857 L 24883.334 331.6857 L 24950 320.3743 L 25016.666 320.3743 L 25083.334 331.6857 L 25150 320.3743 L 25216.666 320.3743 L 25283.334 331.6857 L 25350 331.6857 L 25416.666 331.6857 L 25483.334 331.6857 L 25550 320.3743 L 25616.666 320.3743 L 25683.334 331.6857 L 25750 331.6857 L 25816.666 331.6857 L 25883.334 320.3743 L 25950 320.3743 L 26016.666 331.6857 L 26083.334 331.6857 L 26150 331.6857 L 26216.666 331.6857 L 26283.334 342.9971 L 26350 342.9971 L 26416.666 342.9971 L 26483.334 331.6857 L 26550 331.6857 L 26616.666 331.6857 L 26683.334 331.6857 L 26750 320.3743 L 26816.666 320.3743 L 26883.334 331.6857 L 26950 331.6857 L 27016.666 320.3743 L 27083.334 320.3743 L 27150 331.6857 L 27216.666 331.6857 L 27283.334 320.3743 L 27350 320.3743 L 27416.666 331.6857 L 27483.334 331.6857 L 27550 342.9971 L 27616.666 342.9971 L 27683.334 331.6857 L 27750 331.6857 L 27816.666 342.9971 L 27883.334 342.9971 L 27950 331.6857 L 28016.666 331.6857 L 28083.334 342.9971 L 28150 342.9971 L 28216.666 354.3086 L 28283.334 354.3086 L 28350 365.62 L 28416.666 365.62 L 28483.334 354.3086 L 28550 354.3086 L 28616.666 342.9971 L 28683.334 342.9971 L 28750 331.6857 L 28816.666 331.6857 L 28883.334 342.9971 L 28950 342.9971 L 29016.666 331.6857 L 29083.334 331.6857 L 29150 342.9971 L 29216.666 342.9971 L 29283.334 354.3086 L 29350 342.9971 L 29416.666 342.9971 L 29483.334 331.6857 L 29550 331.6857 L 29616.666 342.9971 L 29683.334 342.9971 L 29750 331.6857 L 29816.666 342.9971 L 29883.334 331.6857 L 29950 331.6857 L 30016.666 342.9971 L 30083.334 342.9971 L 30150 331.6857 L 30216.666 331.6857 L 30283.334 342.9971 L 30350 342.9971 L 30416.666 354.3086 L 30483.334 354.3086 L 30550 342.9971 L 30616.666 342.9971 L 30683.334 331.6857 L 30750 331.6857 L 30816.666 320.3743 L 30883.334 320.3743 L 30950 331.6857 L 31016.666 331.6857 L 31083.334 342.9971 L 31150 342.9971 L 31216.666 331.6857 L 31283.334 331.6857 L 31350 342.9971 L 31416.666 342.9971 L 31483.334 331.6857 L 31550 331.6857 L 31616.666 342.9971 L 31683.334 342.9971 L 31750 331.6857 L 31816.666 331.6857 L 31883.334 320.3743 L 31950 320.3743 L 32016.666 331.6857 L 32083.334 331.6857 L 32150 320.3743 L 32216.666 320.3743 L 32283.334 331.6857 L 32350 331.6857 L 32416.666 320.3743 L 32483.334 331.6857 L 32550 331.6857 L 32616.666 342.9971 L 32683.334 342.9971 L 32750 331.6857 L 32816.668 331.6857 L 32883.332 342.9971 L 32950 342.9971 L 33016.668 331.6857 L 33083.332 331.6857 L 33150 342.9971 L 33216.668 331.6857 L 33283.332 342.9971 L 33350 331.6857 L 33416.668 331.6857 L 33483.332 354.3086 L 33550 354.3086 L 33616.668 342.9971 L 33683.332 342.9971 L 33750 354.3086 L 33816.668 365.62 L 33883.332 365.62 L 33950 354.3086 L 34016.668 354.3086 L 34083.332 342.9971 L 34150 342.9971 L 34216.668 354.3086 L 34283.332 354.3086 L 34350 342.9971 L 34416.668 342.9971 L 34483.332 331.6857 L 34550 331.6857 L 34616.668 342.9971 L 34683.332 342.9971 L 34750 354.3086 L 34816.668 354.3086 L 34883.332 342.9971 L 34950 342.9971 L 35016.668 354.3086 L 35083.332 354.3086 L 35150 342.9971 L 35216.668 342.9971 L 35283.332 354.3086 L 35350 342.9971 L 35416.668 342.9971 L 35483.332 354.3086 L 35550 354.3086 L 35616.668 365.62 L 35683.332 365.62 L 35750 354.3086 L 35816.668 354.3086 L 35883.332 342.9971 L 35950 342.9971 L 36016.668 354.3086 L 36083.332 365.62 L 36150 354.3086 L 36216.668 354.3086 L 36283.332 342.9971 L 36350 342.9971 L 36416.668 331.6857 L 36483.332 342.9971 L 36550 342.9971 L 36616.668 354.3086 L 36683.332 365.62 L 36750 376.9314 L 36816.668 365.62 L 36883.332 365.62 L 36950 354.3086 L 37016.668 354.3086 L 37083.332 342.9971 L 37150 342.9971 L 37216.668 354.3086 L 37283.332 354.3086 L 37350 342.9971 L 37416.668 342.9971 L 37483.332 354.3086 L 37550 342.9971 L 37616.668 342.9971 L 37683.332 354.3086 L 37750 354.3086 L 37816.668 365.62 L 37883.332 365.62 L 37950 376.9314 L 38016.668 376.9314 L 38083.332 365.62 L 38150 365.62 L 38216.668 354.3086 L 38283.332 354.3086 L 38350 365.62 L 38416.668 365.62 L 38483.332 354.3086 L 38550 354.3086 L 38616.668 342.9971 L 38683.332 342.9971 L 38750 354.3086 L 38816.668 365.62 L 38883.332 354.3086 L 38950 354.3086 L 39016.668 365.62 L 39083.332 365.62 L 39150 354.3086 L 39216.668 354.3086 L 39283.332 342.9971 L 39350 342.9971 L 39416.668 354.3086 L 39483.332 365.62 L 39550 376.9314 L 39616.668 365.62 L 39683.332 342.9971 L 39750 331.6857 L 39816.668 331.6857 L 39883.332 342.9971 L 39950 354.3086 L 40016.668 365.62 L 40083.332 376.9314 L 40150 365.62 L 40216.668 365.62 L 40283.332 354.3086 L 40350 354.3086 L 40416.668 365.62 L 40483.332 365.62 L 40550 376.9314 L 40616.668 376.9314 L 40683.332 365.62 L 40750 354.3086 L 40816.668 354.3086 L 40883.332 365.62 L 40950 376.9314 L 41016.668 388.2429 L 41083.332 388.2429 L 41150 376.9314 L 41216.668 365.62 L 41283.332 365.62 L 41350 376.9314 L 41416.668 376.9314 L 41483.332 365.62 L 41550 354.3086 L 41616.668 354.3086 L 41683.332 365.62 L 41750 388.2429 L 41816.668 365.62 L 41883.332 365.62 L 41950 354.3086 L 42016.668 354.3086 L 42083.332 342.9971 L 42150 342.9971 L 42216.668 354.3086 L 42283.332 354.3086 L 42350 365.62 L 42416.668 365.62 L 42483.332 376.9314 L 42550 376.9314 L 42616.668 365.62 L 42683.332 365.62 L 42750 354.3086 L 42816.668 354.3086 L 42883.332 365.62 L 42950 365.62 L 43016.668 354.3086 L 43083.332 354.3086 L 43150 354.3086 L 43216.668 354.3086 L 43283.332 342.9971 L 43350 354.3086 L 43416.668 354.3086 L 43483.332 365.62 L 43550 365.62 L 43616.668 354.3086 L 43683.332 354.3086 L 43750 342.9971 L 43816.668 342.9971 L 43883.332 354.3086 L 43950 354.3086 L 44016.668 342.9971 L 44083.332 342.9971 L 44150 354.3086 L 44216.668 354.3086 L 44283.332 342.9971 L 44350 342.9971 L 44416.668 354.3086 L 44483.332 354.3086 L 44550 342.9971 L 44616.668 342.9971 L 44683.332 354.3086 L 44750 354.3086 L 44816.668 342.9971 L 44883.332 342.9971 L 44950 354.3086 L 45016.668 354.3086 L 45083.332 342.9971 L 45150 342.9971 L 45216.668 331.6857 L 45283.332 342.9971 L 45350 342.9971 L 45416.668 354.3086 L 45483.332 354.3086 L 45550 365.62 L 45616.668 365.62 L 45683.332 354.3086 L 45750 354.3086 L 45816.668 342.9971 L 45883.332 342.9971 L 45950 331.6857 L 46016.668 342.9971 L 46083.332 342.9971 L 46150 354.3086 L 46216.668 376.9314 L 46283.332 376.9314 L 46350 354.3086 L 46416.668 342.9971 L 46483.332 331.6857 L 46550 331.6857 L 46616.668 320.3743 L 46683.332 320.3743 L 46750 331.6857 L 46816.668 331.6857 L 46883.332 342.9971 L 46950 354.3086 L 47016.668 354.3086 L 47083.332 342.9971 L 47150 342.9971 L 47216.668 331.6857 L 47283.332 342.9971 L 47350 331.6857 L 47416.668 331.6857 L 47483.332 342.9971 L 47550 365.62 L 47616.668 376.9314 L 47683.332 388.2429 L 47750 376.9314 L 47816.668 365.62 L 47883.332 354.3086 L 47950 342.9971 L 48016.668 342.9971 L 48083.332 331.6857 L 48150 331.6857 L 48216.668 342.9971 L 48283.332 342.9971 L 48350 354.3086 L 48416.668 354.3086 L 48483.332 365.62 L 48550 376.9314 L 48616.668 388.2429 L 48683.332 376.9314 L 48750 365.62 L 48816.668 354.3086 L 48883.332 342.9971 L 48950 342.9971 L 49016.668 354.3086 L 49083.332 365.62 L 49150 376.9314 L 49216.668 376.9314 L 49283.332 365.62 L 49350 342.9971 L 49416.668 342.9971 L 49483.332 331.6857 L 49550 331.6857 L 49616.668 342.9971 L 49683.332 342.9971 L 49750 354.3086 L 49816.668 354.3086 L 49883.332 342.9971 L 49950 342.9971 L 50016.668 331.6857 L 50083.332 331.6857 L 50150 342.9971 L 50216.668 342.9971 L 50283.332 354.3086 L 50350 365.62 L 50416.668 354.3086 L 50483.332 354.3086 L 50550 342.9971 L 50616.668 342.9971 L 50683.332 342.9971 L 50750 342.9971 L 50816.668 354.3086 L 50883.332 365.62 L 50950 376.9314 L 51016.668 388.2429 L 51083.332 376.9314 L 51150 365.62 L 51216.668 354.3086 L 51283.332 342.9971 L 51350 342.9971 L 51416.668 342.9971 L 51483.332 342.9971 L 51550 354.3086 L 51616.668 354.3086 L 51683.332 365.62 L 51750 365.62 L 51816.668 376.9314 L 51883.332 388.2429 L 51950 376.9314 L 52016.668 354.3086 L 52083.332 354.3086 L 52150 354.3086 L 52216.668 354.3086 L 52283.332 365.62 L 52350 376.9314 L 52416.668 388.2429 L 52483.332 388.2429 L 52550 376.9314 L 52616.668 365.62 L 52683.332 342.9971 L 52750 342.9971 L 52816.668 342.9971 L 52883.332 342.9971 L 52950 331.6857 L 53016.668 331.6857 L 53083.332 342.9971 L 53150 342.9971 L 53216.668 354.3086 L 53283.332 365.62 L 53350 376.9314 L 53416.668 376.9314 L 53483.332 365.62 L 53550 354.3086 L 53616.668 331.6857 L 53683.332 331.6857 L 53750 331.6857 L 53816.668 331.6857 L 53883.332 342.9971 L 53950 342.9971 L 54016.668 354.3086 L 54083.332 354.3086 L 54150 342.9971 L 54216.668 342.9971 L 54283.332 331.6857 L 54350 331.6857 L 54416.668 331.6857 L 54483.332 331.6857 L 54550 342.9971 L 54616.668 342.9971 L 54683.332 354.3086 L 54750 376.9314 L 54816.668 376.9314 L 54883.332 354.3086 L 54950 342.9971 L 55016.668 320.3743 L 55083.332 320.3743 L 55150 320.3743 L 55216.668 320.3743 L 55283.332 331.6857 L 55350 331.6857 L 55416.668 342.9971 L 55483.332 342.9971 L 55550 331.6857 L 55616.668 331.6857 L 55683.332 342.9971 L 55750 342.9971 L 55816.668 342.9971 L 55883.332 342.9971 L 55950 354.3086 L 56016.668 354.3086 L 56083.332 365.62 L 56150 376.9314 L 56216.668 376.9314 L 56283.332 365.62 L 56350 365.62 L 56416.668 354.3086 L 56483.332 331.6857 L 56550 331.6857 L 56616.668 320.3743 L 56683.332 320.3743 L 56750 320.3743 L 56816.668 331.6857 L 56883.332 331.6857 L 56950 342.9971 L 57016.668 365.62 L 57083.332 376.9314 L 57150 388.2429 L 57216.668 388.2429 L 57283.332 365.62 L 57350 342.9971 L 57416.668 331.6857 L 57483.332 331.6857 L 57550 331.6857 L 57616.668 331.6857 L 57683.332 342.9971 L 57750 342.9971 L 57816.668 354.3086 L 57883.332 354.3086 L 57950 365.62 L 58016.668 365.62 L 58083.332 388.2429 L 58150 365.62 L 58216.668 365.62 L 58283.332 342.9971 L 58350 342.9971 L 58416.668 342.9971 L 58483.332 342.9971 L 58550 354.3086 L 58616.668 354.3086 L 58683.332 342.9971 L 58750 342.9971 L 58816.668 331.6857 L 58883.332 331.6857 L 58950 331.6857 L 59016.668 320.3743 L 59083.332 320.3743 L 59150 331.6857 L 59216.668 342.9971 L 59283.332 342.9971 L 59350 354.3086 L 59416.668 354.3086 L 59483.332 331.6857 L 59550 320.3743 L 59616.668 309.0629 L 59683.332 309.0629 L 59750 297.7514 L 59816.668 297.7514 L 59883.332 297.7514 L 59950 309.0629 L 60016.668 309.0629 L 60083.332 320.3743 L 60150 320.3743 L 60216.668 331.6857 L 60283.332 331.6857 L 60350 342.9971 L 60416.668 342.9971 L 60483.332 354.3086 L 60550 331.6857 L 60616.668 331.6857 L 60683.332 331.6857 L 60750 331.6857 L 60816.668 320.3743 L 60883.332 320.3743 L 60950 331.6857 L 61016.668 331.6857 L 61083.332 342.9971 L 61150 342.9971 L 61216.668 365.62 L 61283.332 376.9314 L 61350 365.62 L 61416.668 354.3086 L 61483.332 342.9971 L 61550 320.3743 L 61616.668 309.0629 L 61683.332 309.0629 L 61750 297.7514 L 61816.668 297.7514 L 61883.332 297.7514 L 61950 309.0629 L 62016.668 297.7514 L 62083.332 309.0629 L 62150 309.0629 L 62216.668 320.3743 L 62283.332 320.3743 L 62350 320.3743 L 62416.668 320.3743 L 62483.332 331.6857 L 62550 331.6857 L 62616.668 320.3743 L 62683.332 320.3743 L 62750 320.3743 L 62816.668 320.3743 L 62883.332 309.0629 L 62950 309.0629 L 63016.668 309.0629 L 63083.332 320.3743 L 63150 320.3743 L 63216.668 309.0629 L 63283.332 309.0629 L 63350 320.3743 L 63416.668 320.3743 L 63483.332 331.6857 L 63550 320.3743 L 63616.668 320.3743 L 63683.332 331.6857 L 63750 309.0629 L 63816.668 297.7514 L 63883.332 297.7514 L 63950 297.7514 L 64016.668 297.7514 L 64083.332 309.0629 L 64150 309.0629 L 64216.668 297.7514 L 64283.332 297.7514 L 64350 286.44 L 64416.668 286.44 L 64483.332 297.7514 L 64550 297.7514 L 64616.668 309.0629 L 64683.332 309.0629 L 64750 286.44 L 64816.668 275.1286 L 64883.332 275.1286 L 64950 275.1286 L 65016.668 275.1286 L 65083.332 286.44 L 65150 286.44 L 65216.668 297.7514 L 65283.332 297.7514 L 65350 309.0629 L 65416.668 320.3743 L 65483.332 309.0629 L 65550 309.0629 L 65616.6641 297.7514 L 65683.3359 297.7514 L 65750 297.7514 L 65816.6641 297.7514 L 65883.3359 309.0629 L 65950 309.0629 L 66016.6641 320.3743 L 66083.3359 320.3743 L 66150 309.0629 L 66216.6641 309.0629 L 66283.3359 297.7514 L 66350 297.7514 L 66416.6641 297.7514 L 66483.3359 297.7514 L 66550 309.0629 L 66616.6641 297.7514 L 66683.3359 297.7514 L 66750 309.0629 L 66816.6641 309.0629 L 66883.3359 297.7514 L 66950 297.7514 L 67016.6641 286.44 L 67083.3359 286.44 L 67150 286.44 L 67216.6641 297.7514 L 67283.3359 297.7514 L 67350 309.0629 L 67416.6641 309.0629 L 67483.3359 297.7514 L 67550 297.7514 L 67616.6641 286.44 L 67683.3359 286.44 L 67750 286.44 L 67816.6641 297.7514 L 67883.3359 297.7514 L 67950 309.0629 L 68016.6641 309.0629 L 68083.3359 320.3743 L 68150 331.6857 L 68216.6641 342.9971 L 68283.3359 342.9971 L 68350 331.6857 L 68416.6641 331.6857 L 68483.3359 309.0629 L 68550 286.44 L 68616.6641 286.44 L 68683.3359 275.1286 L 68750 286.44 L 68816.6641 286.44 L 68883.3359 275.1286 L 68950 275.1286 L 69016.6641 286.44 L 69083.3359 286.44 L 69150 297.7514 L 69216.6641 297.7514 L 69283.3359 309.0629 L 69350 309.0629 L 69416.6641 297.7514 L 69483.3359 297.7514 L 69550 297.7514 L 69616.6641 286.44 L 69683.3359 286.44 L 69750 297.7514 L 69816.6641 297.7514 L 69883.3359 309.0629 L 69950 320.3743 L 70016.6641 342.9971 L 70083.3359 342.9971 L 70150 354.3086 L 70216.6641 365.62 L 70283.3359 354.3086 L 70350 331.6857 L 70416.6641 309.0629 L 70483.3359 297.7514 L 70550 275.1286 L 70616.6641 275.1286 L 70683.3359 275.1286 L 70750 286.44 L 70816.6641 286.44 L 70883.3359 297.7514 L 70950 297.7514 L 71016.6641 309.0629 L 71083.3359 320.3743 L 71150 320.3743 L 71216.6641 309.0629 L 71283.3359 309.0629 L 71350 297.7514 L 71416.6641 275.1286 L 71483.3359 275.1286 L 71550 275.1286 L 71616.6641 286.44 L 71683.3359 275.1286 L 71750 275.1286 L 71816.6641 286.44 L 71883.3359 286.44 L 71950 297.7514 L 72016.6641 297.7514 L 72083.3359 309.0629 L 72150 320.3743 L 72216.6641 320.3743 L 72283.3359 309.0629 L 72350 297.7514 L 72416.6641 286.44 L 72483.3359 275.1286 L 72550 275.1286 L 72616.6641 275.1286 L 72683.3359 263.8171 L 72750 263.8171 L 72816.6641 275.1286 L 72883.3359 275.1286 L 72950 286.44 L 73016.6641 286.44 L 73083.3359 309.0629 L 73150 309.0629 L 73216.6641 320.3743 L 73283.3359 320.3743 L 73350 309.0629 L 73416.6641 286.44 L 73483.3359 275.1286 L 73550 263.8171 L 73616.6641 263.8171 L 73683.3359 263.8171 L 73750 275.1286 L 73816.6641 275.1286 L 73883.3359 286.44 L 73950 286.44 L 74016.6641 297.7514 L 74083.3359 286.44 L 74150 286.44 L 74216.6641 275.1286 L 74283.3359 263.8171 L 74350 263.8171 L 74416.6641 263.8171 L 74483.3359 263.8171 L 74550 275.1286 L 74616.6641 275.1286 L 74683.3359 286.44 L 74750 297.7514 L 74816.6641 297.7514 L 74883.3359 309.0629 L 74950 309.0629 L 75016.6641 297.7514 L 75083.3359 286.44 L 75150 263.8171 L 75216.6641 252.5057 L 75283.3359 252.5057 L 75350 252.5057 L 75416.6641 263.8171 L 75483.3359 263.8171 L 75550 275.1286 L 75616.6641 275.1286 L 75683.3359 286.44 L 75750 297.7514 L 75816.6641 297.7514 L 75883.3359 309.0629 L 75950 297.7514 L 76016.6641 297.7514 L 76083.3359 275.1286 L 76150 263.8171 L 76216.6641 263.8171 L 76283.3359 252.5057 L 76350 252.5057 L 76416.6641 263.8171 L 76483.3359 263.8171 L 76550 275.1286 L 76616.6641 275.1286 L 76683.3359 286.44 L 76750 286.44 L 76816.6641 275.1286 L 76883.3359 286.44 L 76950 297.7514 L 77016.6641 275.1286 L 77083.3359 263.8171 L 77150 263.8171 L 77216.6641 263.8171 L 77283.3359 263.8171 L 77350 252.5057 L 77416.6641 252.5057 L 77483.3359 263.8171 L 77550 263.8171 L 77616.6641 275.1286 L 77683.3359 275.1286 L 77750 263.8171 L 77816.6641 252.5057 L 77883.3359 252.5057 L 77950 252.5057 L 78016.6641 241.1943 L 78083.3359 241.1943 L 78150 252.5057 L 78216.6641 252.5057 L 78283.3359 263.8171 L 78350 252.5057 L 78416.6641 252.5057 L 78483.3359 263.8171 L 78550 263.8171 L 78616.6641 275.1286 L 78683.3359 275.1286 L 78750 286.44 L 78816.6641 286.44 L 78883.3359 275.1286 L 78950 263.8171 L 79016.6641 263.8171 L 79083.3359 252.5057 L 79150 241.1943 L 79216.6641 241.1943 L 79283.3359 241.1943 L 79350 252.5057 L 79416.6641 252.5057 L 79483.3359 263.8171 L 79550 263.8171 L 79616.6641 275.1286 L 79683.3359 286.44 L 79750 286.44 L 79816.6641 297.7514 L 79883.3359 297.7514 L 79950 286.44 L 80016.6641 275.1286 L 80083.3359 263.8171 L 80150 252.5057 L 80216.6641 241.1943 L 80283.3359 229.8829 L 80350 229.8829 L 80416.6641 241.1943 L 80483.3359 241.1943 L 80550 252.5057 L 80616.6641 252.5057 L 80683.3359 263.8171 L 80750 263.8171 L 80816.6641 275.1286 L 80883.3359 286.44 L 80950 286.44 L 81016.6641 263.8171 L 81083.3359 263.8171 L 81150 252.5057 L 81216.6641 252.5057 L 81283.3359 241.1943 L 81350 241.1943 L 81416.6641 252.5057 L 81483.3359 252.5057 L 81550 263.8171 L 81616.6641 263.8171 L 81683.3359 275.1286 L 81750 275.1286 L 81816.6641 286.44 L 81883.3359 286.44 L 81950 275.1286 L 82016.6641 263.8171 L 82083.3359 263.8171 L 82150 252.5057 L 82216.6641 252.5057 L 82283.3359 241.1943 L 82350 241.1943 L 82416.6641 252.5057 L 82483.3359 252.5057 L 82550 263.8171 L 82616.6641 263.8171 L 82683.3359 275.1286 L 82750 275.1286 L 82816.6641 297.7514 L 82883.3359 297.7514 L 82950 286.44 L 83016.6641 286.44 L 83083.3359 275.1286 L 83150 252.5057 L 83216.6641 241.1943 L 83283.3359 241.1943 L 83350 241.1943 L 83416.6641 252.5057 L 83483.3359 252.5057 L 83550 263.8171 L 83616.6641 263.8171 L 83683.3359 275.1286 L 83750 275.1286 L 83816.6641 286.44 L 83883.3359 263.8171 L 83950 263.8171 L 84016.6641 252.5057 L 84083.3359 252.5057 L 84150 241.1943 L 84216.6641 229.8829 L 84283.3359 229.8829 L 84350 229.8829 L 84416.6641 241.1943 L 84483.3359 241.1943 L 84550 252.5057 L 84616.6641 252.5057 L 84683.3359 263.8171 L 84750 263.8171 L 84816.6641 252.5057 L 84883.3359 252.5057 L 84950 241.1943 L 85016.6641 241.1943 L 85083.3359 241.1943 L 85150 252.5057 L 85216.6641 252.5057 L 85283.3359 263.8171 L 85350 263.8171 L 85416.6641 275.1286 L 85483.3359 263.8171 L 85550 263.8171 L 85616.6641 252.5057 L 85683.3359 241.1943 L 85750 241.1943 L 85816.6641 241.1943 L 85883.3359 229.8829 L 85950 241.1943 L 86016.6641 241.1943 L 86083.3359 252.5057 L 86150 252.5057 L 86216.6641 263.8171 L 86283.3359 275.1286 L 86350 275.1286 L 86416.6641 263.8171 L 86483.3359 229.8829 L 86550 229.8829 L 86616.6641 218.5714 L 86683.3359 218.5714 L 86750 218.5714 L 86816.6641 218.5714 L 86883.3359 229.8829 L 86950 229.8829 L 87016.6641 218.5714 L 87083.3359 218.5714 L 87150 229.8829 L 87216.6641 229.8829 L 87283.3359 241.1943 L 87350 241.1943 L 87416.6641 252.5057 L 87483.3359 241.1943 L 87550 229.8829 L 87616.6641 229.8829 L 87683.3359 229.8829 L 87750 229.8829 L 87816.6641 241.1943 L 87883.3359 241.1943 L 87950 229.8829 L 88016.6641 218.5714 L 88083.3359 218.5714 L 88150 218.5714 L 88216.6641 218.5714 L 88283.3359 229.8829 L 88350 229.8829 L 88416.6641 241.1943 L 88483.3359 241.1943 L 88550 252.5057 L 88616.6641 263.8171 L 88683.3359 263.8171 L 88750 252.5057 L 88816.6641 252.5057 L 88883.3359 241.1943 L 88950 229.8829 L 89016.6641 218.5714 L 89083.3359 218.5714 L 89150 207.26 L 89216.6641 207.26 L 89283.3359 207.26 L 89350 218.5714 L 89416.6641 218.5714 L 89483.3359 229.8829 L 89550 229.8829 L 89616.6641 241.1943 L 89683.3359 241.1943 L 89750 252.5057 L 89816.6641 252.5057 L 89883.3359 241.1943 L 89950 241.1943 L 90016.6641 229.8829 L 90083.3359 229.8829 L 90150 218.5714 L 90216.6641 229.8829 L 90283.3359 229.8829 L 90350 241.1943 L 90416.6641 241.1943 L 90483.3359 252.5057 L 90550 252.5057 L 90616.6641 263.8171 L 90683.3359 252.5057 L 90750 252.5057 L 90816.6641 241.1943 L 90883.3359 241.1943 L 90950 241.1943 L 91016.6641 241.1943 L 91083.3359 252.5057 L 91150 252.5057 L 91216.6641 263.8171 L 91283.3359 263.8171 L 91350 275.1286 L 91416.6641 263.8171 L 91483.3359 263.8171 L 91550 252.5057 L 91616.6641 252.5057 L 91683.3359 252.5057 L 91750 252.5057 L 91816.6641 241.1943 L 91883.3359 241.1943 L 91950 252.5057 L 92016.6641 252.5057 L 92083.3359 263.8171 L 92150 275.1286 L 92216.6641 286.44 L 92283.3359 275.1286 L 92350 252.5057 L 92416.6641 263.8171 L 92483.3359 263.8171 L 92550 252.5057 L 92616.6641 252.5057 L 92683.3359 229.8829 L 92750 229.8829 L 92816.6641 229.8829 L 92883.3359 241.1943 L 92950 241.1943 L 93016.6641 252.5057 L 93083.3359 252.5057 L 93150 263.8171 L 93216.6641 275.1286 L 93283.3359 286.44 L 93350 286.44 L 93416.6641 275.1286 L 93483.3359 275.1286 L 93550 252.5057 L 93616.6641 241.1943 L 93683.3359 229.8829 L 93750 218.5714 L 93816.6641 218.5714 L 93883.3359 229.8829 L 93950 229.8829 L 94016.6641 241.1943 L 94083.3359 241.1943 L 94150 252.5057 L 94216.6641 275.1286 L 94283.3359 286.44 L 94350 286.44 L 94416.6641 275.1286 L 94483.3359 263.8171 L 94550 252.5057 L 94616.6641 241.1943 L 94683.3359 229.8829 L 94750 218.5714 L 94816.6641 218.5714 L 94883.3359 207.26 L 94950 207.26 L 95016.6641 218.5714 L 95083.3359 218.5714 L 95150 229.8829 L 95216.6641 229.8829 L 95283.3359 241.1943 L 95350 241.1943 L 95416.6641 252.5057 L 95483.3359 263.8171 L 95550 252.5057 L 95616.6641 252.5057 L 95683.3359 241.1943 L 95750 229.8829 L 95816.6641 207.26 L 95883.3359 207.26 L 95950 207.26 L 96016.6641 218.5714 L 96083.3359 218.5714 L 96150 229.8829 L 96216.6641 241.1943 L 96283.3359 241.1943 L 96350 252.5057 L 96416.6641 241.1943 L 96483.3359 241.1943 L 96550 229.8829 L 96616.6641 218.5714 L 96683.3359 207.26 L 96750 195.9486 L 96816.6641 195.9486 L 96883.3359 207.26 L 96950 207.26 L 97016.6641 218.5714 L 97083.3359 218.5714 L 97150 229.8829 L 97216.6641 229.8829 L 97283.3359 218.5714 L 97350 218.5714 L 97416.6641 207.26 L 97483.3359 207.26 L 97550 207.26 L 97616.6641 207.26 L 97683.3359 195.9486 L 97750 195.9486 L 97816.6641 207.26 L 97883.3359 207.26 L 97950 218.5714 L 98016.6641 218.5714 L 98083.3359 229.8829 L 98150 229.8829 L 98216.6641 252.5057 L 98283.3359 252.5057 L 98350 241.1943 L 98416.6641 241.1943 L 98483.3359 229.8829 L 98550 218.5714 L 98616.6641 207.26 L 98683.3359 195.9486 L 98750 195.9486 L 98816.6641 207.26 L 98883.3359 207.26 L 98950 218.5714 L 99016.6641 218.5714 L 99083.3359 229.8829 L 99150 241.1943 L 99216.6641 252.5057 L 99283.3359 263.8171 L 99350 263.8171 L 99416.6641 252.5057 L 99483.3359 241.1943 L 99550 229.8829 L 99616.6641 218.5714 L 99683.3359 207.26 L 99750 207.26 L 99816.6641 195.9486 L 99883.3359 195.9486 L 99950 207.26 L 100016.6641 207.26 L 100083.3359 218.5714 L 100150 218.5714 L 100216.6641 229.8829 L 100283.3359 229.8829 L 100350 241.1943 L 100416.6641 241.1943 L 100483.3359 229.8829 L 100550 229.8829 L 100616.6641 218.5714 L 100683.3359 207.26 L 100750 195.9486 L 100816.6641 184.6371 L 100883.3359 173.3257 L 100950 173.3257 L 101016.6641 184.6371 L 101083.3359 184.6371 L 101150 195.9486 L 101216.6641 195.9486 L 101283.3359 207.26 L 101350 207.26 L 101416.6641 218.5714 L 101483.3359 218.5714 L 101550 207.26 L 101616.6641 207.26 L 101683.3359 195.9486 L 101750 195.9486 L 101816.6641 195.9486 L 101883.3359 195.9486 L 101950 207.26 L 102016.6641 207.26 L 102083.3359 218.5714 L 102150 218.5714 L 102216.6641 229.8829 L 102283.3359 229.8829 L 102350 241.1943 L 102416.6641 252.5057 L 102483.3359 241.1943 L 102550 241.1943 L 102616.6641 229.8829 L 102683.3359 218.5714 L 102750 207.26 L 102816.6641 195.9486 L 102883.3359 184.6371 L 102950 173.3257 L 103016.6641 173.3257 L 103083.3359 184.6371 L 103150 184.6371 L 103216.6641 195.9486 L 103283.3359 195.9486 L 103350 207.26 L 103416.6641 218.5714 L 103483.3359 218.5714 L 103550 229.8829 L 103616.6641 229.8829 L 103683.3359 207.26 L 103750 207.26 L 103816.6641 195.9486 L 103883.3359 184.6371 L 103950 173.3257 L 104016.6641 162.0143 L 104083.3359 162.0143 L 104150 173.3257 L 104216.6641 173.3257 L 104283.3359 184.6371 L 104350 184.6371 L 104416.6641 195.9486 L 104483.3359 184.6371 L 104550 184.6371 L 104616.6641 184.6371 L 104683.3359 184.6371 L 104750 195.9486 L 104816.6641 195.9486 L 104883.3359 207.26 L 104950 207.26 L 105016.6641 195.9486 L 105083.3359 195.9486 L 105150 207.26 L 105216.6641 195.9486 L 105283.3359 195.9486 L 105350 207.26 L 105416.6641 195.9486 L 105483.3359 184.6371 L 105550 184.6371 L 105616.6641 195.9486 L 105683.3359 195.9486 L 105750 207.26 L 105816.6641 207.26 L 105883.3359 218.5714 L 105950 229.8829 L 106016.6641 241.1943 L 106083.3359 241.1943 L 106150 229.8829 L 106216.6641 218.5714 L 106283.3359 195.9486 L 106350 195.9486 L 106416.6641 184.6371 L 106483.3359 173.3257 L 106550 173.3257 L 106616.6641 162.0143 L 106683.3359 162.0143 L 106750 173.3257 L 106816.6641 173.3257 L 106883.3359 184.6371 L 106950 184.6371 L 107016.6641 195.9486 L 107083.3359 195.9486 L 107150 207.26 L 107216.6641 218.5714 L 107283.3359 218.5714 L 107350 207.26 L 107416.6641 207.26 L 107483.3359 195.9486 L 107550 195.9486 L 107616.6641 173.3257 L 107683.3359 162.0143 L 107750 150.7029 L 107816.6641 150.7029 L 107883.3359 139.3914 L 107950 139.3914 L 108016.6641 150.7029 L 108083.3359 150.7029 L 108150 162.0143 L 108216.6641 162.0143 L 108283.3359 173.3257 L 108350 173.3257 L 108416.6641 184.6371 L 108483.3359 184.6371 L 108550 173.3257 L 108616.6641 173.3257 L 108683.3359 162.0143 L 108750 150.7029 L 108816.6641 139.3914 L 108883.3359 128.08 L 108950 128.08 L 109016.6641 139.3914 L 109083.3359 139.3914 L 109150 150.7029 L 109216.6641 150.7029 L 109283.3359 162.0143 L 109350 162.0143 L 109416.6641 173.3257 L 109483.3359 173.3257 L 109550 184.6371 L 109616.6641 184.6371 L 109683.3359 162.0143 L 109750 162.0143 L 109816.6641 150.7029 L 109883.3359 139.3914 L 109950 128.08 L 110016.6641 128.08 L 110083.3359 139.3914 L 110150 139.3914 L 110216.6641 150.7029 L 110283.3359 150.7029 L 110350 162.0143 L 110416.6641 162.0143 L 110483.3359 150.7029 L 110550 150.7029 L 110616.6641 139.3914 L 110683.3359 139.3914 L 110750 150.7029 L 110816.6641 150.7029 L 110883.3359 162.0143 L 110950 162.0143 L 111016.6641 184.6371 L 111083.3359 184.6371 L 111150 195.9486 L 111216.6641 195.9486 L 111283.3359 173.3257 L 111350 162.0143 L 111416.6641 162.0143 L 111483.3359 150.7029 L 111550 150.7029 L 111616.6641 139.3914 L 111683.3359 139.3914 L 111750 150.7029 L 111816.6641 150.7029 L 111883.3359 162.0143 L 111950 162.0143 L 112016.6641 173.3257 L 112083.3359 173.3257 L 112150 184.6371 L 112216.6641 184.6371 L 112283.3359 195.9486 L 112350 195.9486 L 112416.6641 184.6371 L 112483.3359 173.3257 L 112550 162.0143 L 112616.6641 150.7029 L 112683.3359 150.7029 L 112750 139.3914 L 112816.6641 139.3914 L 112883.3359 150.7029 L 112950 150.7029 L 113016.6641 162.0143 L 113083.3359 162.0143 L 113150 173.3257 L 113216.6641 173.3257 L 113283.3359 173.3257 L 113350 173.3257 L 113416.6641 184.6371 L 113483.3359 184.6371 L 113550 173.3257 L 113616.6641 173.3257 L 113683.3359 173.3257 L 113750 173.3257 L 113816.6641 184.6371 L 113883.3359 184.6371 L 113950 195.9486 L 114016.6641 195.9486 L 114083.3359 207.26 L 114150 207.26 L 114216.6641 218.5714 L 114283.3359 207.26 L 114350 195.9486 L 114416.6641 173.3257 L 114483.3359 173.3257 L 114550 162.0143 L 114616.6641 150.7029 L 114683.3359 139.3914 L 114750 139.3914 L 114816.6641 150.7029 L 114883.3359 150.7029 L 114950 162.0143 L 115016.6641 162.0143 L 115083.3359 173.3257 L 115150 184.6371 L 115216.6641 184.6371 L 115283.3359 195.9486 L 115350 195.9486 L 115416.6641 184.6371 L 115483.3359 173.3257 L 115550 173.3257 L 115616.6641 162.0143 L 115683.3359 150.7029 L 115750 139.3914 L 115816.6641 128.08 L 115883.3359 116.7686 L 115950 116.7686 L 116016.6641 128.08 L 116083.3359 128.08 L 116150 139.3914 L 116216.6641 139.3914 L 116283.3359 150.7029 L 116350 150.7029 L 116416.6641 162.0143 L 116483.3359 162.0143 L 116550 173.3257 L 116616.6641 173.3257 L 116683.3359 162.0143 L 116750 162.0143 L 116816.6641 150.7029 L 116883.3359 139.3914 L 116950 128.08 L 117016.6641 116.7686 L 117083.3359 105.4571 L 117150 105.4571 L 117216.6641 116.7686 L 117283.3359 116.7686 L 117350 128.08 L 117416.6641 128.08 L 117483.3359 139.3914 L 117550 139.3914 L 117616.6641 150.7029 L 117683.3359 150.7029 L 117750 162.0143 L 117816.6641 162.0143 L 117883.3359 173.3257 L 117950 162.0143 L 118016.6641 162.0143 L 118083.3359 150.7029 L 118150 139.3914 L 118216.6641 128.08 L 118283.3359 116.7686 L 118350 105.4571 L 118416.6641 105.4571 L 118483.3359 116.7686 L 118550 116.7686 L 118616.6641 128.08 L 118683.3359 128.08 L 118750 139.3914 L 118816.6641 139.3914 L 118883.3359 150.7029 L 118950 162.0143 L 119016.6641 162.0143 L 119083.3359 150.7029 L 119150 139.3914 L 119216.6641 128.08 L 119283.3359 116.7686 L 119350 116.7686 L 119416.6641 105.4571 L 119483.3359 94.1457 L 119550 94.1457 L 119616.6641 105.4571 L 119683.3359 105.4571 L 119750 116.7686 L 119816.6641 116.7686 L 119883.3359 128.08 L 119950 128.08 L 120016.6641 139.3914 L 120083.3359 139.3914 L 120150 150.7029 L 120216.6641 150.7029 L 120283.3359 139.3914 L 120350 128.08 L 120416.6641 128.08 L 120483.3359 116.7686 L 120550 105.4571 L 120616.6641 105.4571 L 120683.3359 94.1457 L 120750 94.1457 L 120816.6641 105.4571 L 120883.3359 105.4571 L 120950 116.7686 L 121016.6641 116.7686 L 121083.3359 128.08 L 121150 139.3914 L 121216.6641 139.3914 L 121283.3359 150.7029 L 121350 162.0143 L 121416.6641 162.0143 L 121483.3359 150.7029 L 121550 139.3914 L 121616.6641 128.08 L 121683.3359 116.7686 L 121750 105.4571 L 121816.6641 105.4571 L 121883.3359 94.1457 L 121950 94.1457 L 122016.6641 105.4571 L 122083.3359 105.4571 L 122150 116.7686 L 122216.6641 116.7686 L 122283.3359 128.08 L 122350 128.08 L 122416.6641 139.3914 L 122483.3359 139.3914 L 122550 128.08 L 122616.6641 116.7686 L 122683.3359 116.7686 L 122750 105.4571 L 122816.6641 94.1457 L 122883.3359 94.1457 L 122950 105.4571 L 123016.6641 105.4571 L 123083.3359 116.7686 L 123150 116.7686 L 123216.6641 128.08 L 123283.3359 139.3914 L 123350 139.3914 L 123416.6641 150.7029 L 123483.3359 162.0143 L 123550 162.0143 L 123616.6641 150.7029 L 123683.3359 139.3914 L 123750 116.7686 L 123816.6641 105.4571 L 123883.3359 105.4571 L 123950 94.1457 L 124016.6641 82.8343 L 124083.3359 82.8343 L 124150 94.1457 L 124216.6641 94.1457 L 124283.3359 105.4571 L 124350 105.4571 L 124416.6641 116.7686 L 124483.3359 116.7686 L 124550 128.08 L 124616.6641 128.08 L 124683.3359 116.7686 L 124750 105.4571 L 124816.6641 105.4571 L 124883.3359 94.1457 L 124950 94.1457 L 125016.6641 94.1457 L 125083.3359 82.8343 L 125150 82.8343 L 125216.6641 94.1457 L 125283.3359 94.1457 L 125350 105.4571 L 125416.6641 105.4571 L 125483.3359 116.7686 L 125550 116.7686 L 125616.6641 128.08 L 125683.3359 139.3914 L 125750 139.3914 L 125816.6641 128.08 L 125883.3359 116.7686 L 125950 105.4571 L 126016.6641 105.4571 L 126083.3359 94.1457 L 126150 94.1457 L 126216.6641 105.4571 L 126283.3359 105.4571 L 126350 116.7686 L 126416.6641 116.7686 L 126483.3359 128.08 L 126550 128.08 L 126616.6641 139.3914 L 126683.3359 139.3914 L 126750 150.7029 L 126816.6641 162.0143 L 126883.3359 173.3257 L 126950 173.3257 L 127016.6641 162.0143 L 127083.3359 150.7029 L 127150 139.3914 L 127216.6641 128.08 L 127283.3359 116.7686 L 127350 105.4571 L 127416.6641 94.1457 L 127483.3359 94.1457 L 127550 105.4571 L 127616.6641 105.4571 L 127683.3359 116.7686 L 127750 116.7686 L 127816.6641 128.08 L 127883.3359 139.3914 L 127950 139.3914 L 128016.6641 150.7029 L 128083.3359 162.0143 L 128150 173.3257 L 128216.6641 173.3257 L 128283.3359 162.0143 L 128350 150.7029 L 128416.6641 139.3914 L 128483.3359 128.08 L 128550 116.7686 L 128616.6641 105.4571 L 128683.3359 105.4571 L 128750 94.1457 L 128816.6641 94.1457 L 128883.3359 105.4571 L 128950 105.4571 L 129016.6641 116.7686 L 129083.3359 116.7686 L 129150 128.08 L 129216.6641 128.08 L 129283.3359 139.3914 L 129350 139.3914 L 129416.6641 150.7029 L 129483.3359 162.0143 L 129550 162.0143 L 129616.6641 173.3257 L 129683.3359 162.0143 L 129750 150.7029 L 129816.6641 139.3914 L 129883.3359 128.08 L 129950 116.7686 L 130016.6641 116.7686 L 130083.3359 105.4571 L 130150 105.4571 L 130216.6641 94.1457 L 130283.3359 105.4571 L 130350 94.1457 L 130416.6641 105.4571 L 130483.3359 105.4571 L 130550 116.7686 L 130616.6641 116.7686 L 130683.3359 128.08 L 130750 128.08 L 130816.6641 139.3914 L 130883.3359 139.3914 L 130950 150.7029 L 131016.6641 162.0143 L 131083.3281 162.0143 L 131150 173.3257 L 131216.6719 162.0143 L 131283.3281 150.7029 L 131350 139.3914 L 131416.6719 128.08 L 131483.3281 116.7686 L 131550 105.4571 L 131616.6719 94.1457 L 131683.3281 94.1457 L 131750 82.8343 L 131816.6719 82.8343 L 131883.3281 94.1457 L 131950 94.1457 L 132016.6719 105.4571 L 132083.3281 105.4571 L 132150 116.7686 L 132216.6719 116.7686 L 132283.3281 128.08 L 132350 139.3914 L 132416.6719 150.7029 L 132483.3281 150.7029 L 132550 139.3914 L 132616.6719 128.08 L 132683.3281 116.7686 L 132750 105.4571 L 132816.6719 94.1457 L 132883.3281 94.1457 L 132950 82.8343 L 133016.6719 82.8343 L 133083.3281 94.1457 L 133150 94.1457 L 133216.6719 105.4571 L 133283.3281 105.4571 L 133350 116.7686 L 133416.6719 116.7686 L 133483.3281 128.08 L 133550 150.7029 L 133616.6719 150.7029 L 133683.3281 139.3914 L 133750 128.08 L 133816.6719 116.7686 L 133883.3281 116.7686 L 133950 105.4571 L 134016.6719 94.1457 L 134083.3281 94.1457 L 134150 105.4571 L 134216.6719 105.4571 L 134283.3281 116.7686 L 134350 116.7686 L 134416.6719 128.08 L 134483.3281 128.08 L 134550 139.3914 L 134616.6719 139.3914 L 134683.3281 162.0143 L 134750 162.0143 L 134816.6719 150.7029 L 134883.3281 139.3914 L 134950 116.7686 L 135016.6719 105.4571 L 135083.3281 94.1457 L 135150 94.1457 L 135216.6719 82.8343 L 135283.3281 82.8343 L 135350 94.1457 L 135416.6719 94.1457 L 135483.3281 105.4571 L 135550 105.4571 L 135616.6719 116.7686 L 135683.3281 116.7686 L 135750 128.08 L 135816.6719 128.08 L 135883.3281 116.7686 L 135950 116.7686 L 136016.6719 128.08 L 136083.3281 116.7686 L 136150 116.7686 L 136216.6719 105.4571 L 136283.3281 105.4571 L 136350 94.1457 L 136416.6719 82.8343 L 136483.3281 82.8343 L 136550 94.1457 L 136616.6719 94.1457 L 136683.3281 105.4571 L 136750 105.4571 L 136816.6719 116.7686 L 136883.3281 116.7686 L 136950 128.08 L 137016.6719 139.3914 L 137083.3281 150.7029 L 137150 150.7029 L 137216.6719 162.0143 L 137283.3281 150.7029 L 137350 139.3914 L 137416.6719 128.08 L 137483.3281 116.7686 L 137550 105.4571 L 137616.6719 94.1457 L 137683.3281 94.1457 L 137750 82.8343 L 137816.6719 82.8343 L 137883.3281 94.1457 L 137950 94.1457 L 138016.6719 105.4571 L 138083.3281 105.4571 L 138150 116.7686 L 138216.6719 116.7686 L 138283.3281 105.4571 L 138350 105.4571 L 138416.6719 94.1457 L 138483.3281 94.1457 L 138550 94.1457 L 138616.6719 105.4571 L 138683.3281 105.4571 L 138750 116.7686 L 138816.6719 116.7686 L 138883.3281 105.4571 L 138950 105.4571 L 139016.6719 116.7686 L 139083.3281 116.7686 L 139150 105.4571 L 139216.6719 105.4571 L 139283.3281 105.4571 L 139350 116.7686 L 139416.6719 116.7686 L 139483.3281 128.08 L 139550 128.08 L 139616.6719 139.3914 L 139683.3281 139.3914 L 139750 128.08 L 139816.6719 139.3914 L 139883.3281 162.0143 L 139950 173.3257 L 140016.6719 173.3257 L 140083.3281 150.7029 L 140150 139.3914 L 140216.6719 128.08 L 140283.3281 116.7686 L 140350 105.4571 L 140416.6719 105.4571 L 140483.3281 94.1457 L 140550 94.1457 L 140616.6719 82.8343 L 140683.3281 82.8343 L 140750 94.1457 L 140816.6719 94.1457 L 140883.3281 105.4571 L 140950 105.4571 L 141016.6719 116.7686 L 141083.3281 116.7686 L 141150 128.08 L 141216.6719 128.08 L 141283.3281 116.7686 L 141350 116.7686 L 141416.6719 105.4571 L 141483.3281 94.1457 L 141550 94.1457 L 141616.6719 82.8343 L 141683.3281 71.5229 L 141750 71.5229 L 141816.6719 82.8343 L 141883.3281 82.8343 L 141950 94.1457 L 142016.6719 94.1457 L 142083.3281 105.4571 L 142150 105.4571 L 142216.6719 116.7686 L 142283.3281 128.08 L 142350 128.08 L 142416.6719 139.3914 L 142483.3281 139.3914 L 142550 128.08 L 142616.6719 128.08 L 142683.3281 116.7686 L 142750 105.4571 L 142816.6719 94.1457 L 142883.3281 94.1457 L 142950 82.8343 L 143016.6719 71.5229 L 143083.3281 71.5229 L 143150 82.8343 L 143216.6719 82.8343 L 143283.3281 94.1457 L 143350 94.1457 L 143416.6719 105.4571 L 143483.3281 105.4571 L 143550 116.7686 L 143616.6719 128.08 L 143683.3281 128.08 L 143750 116.7686 L 143816.6719 139.3914 L 143883.3281 116.7686 L 143950 105.4571 L 144016.6719 105.4571 L 144083.3281 94.1457 L 144150 82.8343 L 144216.6719 71.5229 L 144283.3281 71.5229 L 144350 82.8343 L 144416.6719 82.8343 L 144483.3281 94.1457 L 144550 105.4571 L 144616.6719 105.4571 L 144683.3281 116.7686 L 144750 116.7686 L 144816.6719 128.08 L 144883.3281 128.08 L 144950 139.3914 L 145016.6719 128.08 L 145083.3281 128.08 L 145150 105.4571 L 145216.6719 94.1457 L 145283.3281 82.8343 L 145350 71.5229 L 145416.6719 71.5229 L 145483.3281 60.2114 L 145550 60.2114 L 145616.6719 71.5229 L 145683.3281 71.5229 L 145750 82.8343 L 145816.6719 82.8343 L 145883.3281 94.1457 L 145950 105.4571 L 146016.6719 105.4571 L 146083.3281 116.7686 L 146150 116.7686 L 146216.6719 128.08 L 146283.3281 116.7686 L 146350 105.4571 L 146416.6719 94.1457 L 146483.3281 94.1457 L 146550 82.8343 L 146616.6719 82.8343 L 146683.3281 82.8343 L 146750 71.5229 L 146816.6719 71.5229 L 146883.3281 82.8343 L 146950 82.8343 L 147016.6719 94.1457 L 147083.3281 94.1457 L 147150 105.4571 L 147216.6719 116.7686 L 147283.3281 105.4571 L 147350 105.4571 L 147416.6719 116.7686 L 147483.3281 116.7686 L 147550 105.4571 L 147616.6719 105.4571 L 147683.3281 94.1457 L 147750 94.1457 L 147816.6719 105.4571 L 147883.3281 105.4571 L 147950 116.7686 L 148016.6719 116.7686 L 148083.3281 105.4571 L 148150 116.7686 L 148216.6719 116.7686 L 148283.3281 105.4571 L 148350 94.1457 L 148416.6719 94.1457 L 148483.3281 94.1457 L 148550 82.8343 L 148616.6719 82.8343 L 148683.3281 94.1457 L 148750 94.1457 L 148816.6719 105.4571 L 148883.3281 105.4571 L 148950 116.7686 L 149016.6719 128.08 L 149083.3281 128.08 L 149150 116.7686 L 149216.6719 105.4571 L 149283.3281 94.1457 L 149350 82.8343 L 149416.6719 71.5229 L 149483.3281 71.5229 L 149550 60.2114 L 149616.6719 60.2114 L 149683.3281 71.5229 L 149750 71.5229 L 149816.6719 82.8343 L 149883.3281 82.8343 L 149950 94.1457 L 150016.6719 94.1457 L 150083.3281 105.4571 L 150150 105.4571 L 150216.6719 94.1457 L 150283.3281 94.1457 L 150350 94.1457 L 150416.6719 94.1457 L 150483.3281 105.4571 L 150550 105.4571 L 150616.6719 116.7686 L 150683.3281 116.7686 L 150750 128.08 L 150816.6719 116.7686 L 150883.3281 116.7686 L 150950 105.4571 L 151016.6719 105.4571 L 151083.3281 105.4571 L 151150 116.7686 L 151216.6719 116.7686 L 151283.3281 128.08 L 151350 128.08 L 151416.6719 139.3914 L 151483.3281 139.3914 L 151550 128.08 L 151616.6719 128.08 L 151683.3281 116.7686 L 151750 128.08 L 151816.6719 128.08 L 151883.3281 116.7686 L 151950 116.7686 L 152016.6719 105.4571 L 152083.3281 105.4571 L 152150 116.7686 L 152216.6719 116.7686 L 152283.3281 128.08 L 152350 128.08 L 152416.6719 139.3914 L 152483.3281 139.3914 L 152550 128.08 L 152616.6719 128.08 L 152683.3281 116.7686 L 152750 128.08 L 152816.6719 139.3914 L 152883.3281 150.7029 L 152950 116.7686 L 153016.6719 105.4571 L 153083.3281 105.4571 L 153150 94.1457 L 153216.6719 94.1457 L 153283.3281 105.4571 L 153350 105.4571 L 153416.6719 116.7686 L 153483.3281 116.7686 L 153550 128.08 L 153616.6719 128.08 L 153683.3281 116.7686 L 153750 116.7686 L 153816.6719 116.7686 L 153883.3281 116.7686 L 153950 128.08 L 154016.6719 128.08 L 154083.3281 139.3914 L 154150 150.7029 L 154216.6719 139.3914 L 154283.3281 139.3914 L 154350 128.08 L 154416.6719 128.08 L 154483.3281 116.7686 L 154550 128.08 L 154616.6719 116.7686 L 154683.3281 116.7686 L 154750 116.7686 L 154816.6719 128.08 L 154883.3281 139.3914 L 154950 139.3914 L 155016.6719 150.7029 L 155083.3281 162.0143 L 155150 162.0143 L 155216.6719 150.7029 L 155283.3281 139.3914 L 155350 139.3914 L 155416.6719 128.08 L 155483.3281 105.4571 L 155550 105.4571 L 155616.6719 94.1457 L 155683.3281 94.1457 L 155750 105.4571 L 155816.6719 105.4571 L 155883.3281 116.7686 L 155950 116.7686 L 156016.6719 128.08 L 156083.3281 128.08 L 156150 139.3914 L 156216.6719 139.3914 L 156283.3281 150.7029 L 156350 139.3914 L 156416.6719 139.3914 L 156483.3281 128.08 L 156550 128.08 L 156616.6719 116.7686 L 156683.3281 105.4571 L 156750 105.4571 L 156816.6719 105.4571 L 156883.3281 116.7686 L 156950 116.7686 L 157016.6719 128.08 L 157083.3281 128.08 L 157150 139.3914 L 157216.6719 139.3914 L 157283.3281 150.7029 L 157350 162.0143 L 157416.6719 162.0143 L 157483.3281 150.7029 L 157550 139.3914 L 157616.6719 139.3914 L 157683.3281 128.08 L 157750 116.7686 L 157816.6719 116.7686 L 157883.3281 128.08 L 157950 128.08 L 158016.6719 139.3914 L 158083.3281 139.3914 L 158150 150.7029 L 158216.6719 162.0143 L 158283.3281 162.0143 L 158350 150.7029 L 158416.6719 139.3914 L 158483.3281 139.3914 L 158550 128.08 L 158616.6719 116.7686 L 158683.3281 105.4571 L 158750 105.4571 L 158816.6719 94.1457 L 158883.3281 94.1457 L 158950 105.4571 L 159016.6719 105.4571 L 159083.3281 116.7686 L 159150 116.7686 L 159216.6719 128.08 L 159283.3281 128.08 L 159350 139.3914 L 159416.6719 139.3914 L 159483.3281 150.7029 L 159550 162.0143 L 159616.6719 162.0143 L 159683.3281 150.7029 L 159750 139.3914 L 159816.6719 116.7686 L 159883.3281 105.4571 L 159950 105.4571 L 160016.6719 94.1457 L 160083.3281 94.1457 L 160150 105.4571 L 160216.6719 105.4571 L 160283.3281 116.7686 L 160350 116.7686 L 160416.6719 105.4571 L 160483.3281 105.4571 L 160550 116.7686 L 160616.6719 105.4571 L 160683.3281 105.4571 L 160750 94.1457 L 160816.6719 94.1457 L 160883.3281 105.4571 L 160950 105.4571 L 161016.6719 116.7686 L 161083.3281 116.7686 L 161150 105.4571 L 161216.6719 105.4571 L 161283.3281 105.4571 L 161350 116.7686 L 161416.6719 116.7686 L 161483.3281 128.08 L 161550 128.08 L 161616.6719 139.3914 L 161683.3281 139.3914 L 161750 128.08 L 161816.6719 128.08 L 161883.3281 128.08 L 161950 128.08 L 162016.6719 139.3914 L 162083.3281 128.08 L 162150 139.3914 L 162216.6719 139.3914 L 162283.3281 150.7029 L 162350 150.7029 L 162416.6719 150.7029 L 162483.3281 150.7029 L 162550 139.3914 L 162616.6719 150.7029 L 162683.3281 150.7029 L 162750 139.3914 L 162816.6719 139.3914 L 162883.3281 150.7029 L 162950 139.3914 L 163016.6719 150.7029 L 163083.3281 150.7029 L 163150 139.3914 L 163216.6719 139.3914 L 163283.3281 139.3914 L 163350 139.3914 L 163416.6719 150.7029 L 163483.3281 150.7029 L 163550 162.0143 L 163616.6719 162.0143 L 163683.3281 173.3257 L 163750 162.0143 L 163816.6719 162.0143 L 163883.3281 150.7029 L 163950 150.7029 L 164016.6719 139.3914 L 164083.3281 150.7029 L 164150 150.7029 L 164216.6719 139.3914 L 164283.3281 139.3914 L 164350 150.7029 L 164416.6719 150.7029 L 164483.3281 162.0143 L 164550 162.0143 L 164616.6719 173.3257 L 164683.3281 162.0143 L 164750 150.7029 L 164816.6719 150.7029 L 164883.3281 139.3914 L 164950 139.3914 L 165016.6719 150.7029 L 165083.3281 162.0143 L 165150 162.0143 L 165216.6719 173.3257 L 165283.3281 173.3257 L 165350 184.6371 L 165416.6719 184.6371 L 165483.3281 173.3257 L 165550 173.3257 L 165616.6719 162.0143 L 165683.3281 162.0143 L 165750 150.7029 L 165816.6719 139.3914 L 165883.3281 128.08 L 165950 128.08 L 166016.6719 139.3914 L 166083.3281 139.3914 L 166150 150.7029 L 166216.6719 150.7029 L 166283.3281 162.0143 L 166350 162.0143 L 166416.6719 173.3257 L 166483.3281 173.3257 L 166550 184.6371 L 166616.6719 184.6371 L 166683.3281 173.3257 L 166750 162.0143 L 166816.6719 150.7029 L 166883.3281 139.3914 L 166950 128.08 L 167016.6719 116.7686 L 167083.3281 116.7686 L 167150 128.08 L 167216.6719 128.08 L 167283.3281 139.3914 L 167350 139.3914 L 167416.6719 150.7029 L 167483.3281 150.7029 L 167550 139.3914 L 167616.6719 150.7029 L 167683.3281 162.0143 L 167750 150.7029 L 167816.6719 150.7029 L 167883.3281 139.3914 L 167950 139.3914 L 168016.6719 128.08 L 168083.3281 128.08 L 168150 139.3914 L 168216.6719 139.3914 L 168283.3281 150.7029 L 168350 150.7029 L 168416.6719 162.0143 L 168483.3281 150.7029 L 168550 162.0143 L 168616.6719 162.0143 L 168683.3281 173.3257 L 168750 173.3257 L 168816.6719 184.6371 L 168883.3281 173.3257 L 168950 173.3257 L 169016.6719 162.0143 L 169083.3281 150.7029 L 169150 150.7029 L 169216.6719 162.0143 L 169283.3281 162.0143 L 169350 173.3257 L 169416.6719 173.3257 L 169483.3281 184.6371 L 169550 195.9486 L 169616.6719 195.9486 L 169683.3281 184.6371 L 169750 184.6371 L 169816.6719 173.3257 L 169883.3281 162.0143 L 169950 150.7029 L 170016.6719 150.7029 L 170083.3281 139.3914 L 170150 128.08 L 170216.6719 116.7686 L 170283.3281 116.7686 L 170350 128.08 L 170416.6719 128.08 L 170483.3281 139.3914 L 170550 139.3914 L 170616.6719 150.7029 L 170683.3281 150.7029 L 170750 139.3914 L 170816.6719 139.3914 L 170883.3281 150.7029 L 170950 139.3914 L 171016.6719 139.3914 L 171083.3281 139.3914 L 171150 150.7029 L 171216.6719 150.7029 L 171283.3281 162.0143 L 171350 162.0143 L 171416.6719 173.3257 L 171483.3281 173.3257 L 171550 162.0143 L 171616.6719 150.7029 L 171683.3281 139.3914 L 171750 139.3914 L 171816.6719 128.08 L 171883.3281 116.7686 L 171950 116.7686 L 172016.6719 105.4571 L 172083.3281 116.7686 L 172150 116.7686 L 172216.6719 128.08 L 172283.3281 128.08 L 172350 139.3914 L 172416.6719 139.3914 L 172483.3281 150.7029 L 172550 150.7029 L 172616.6719 162.0143 L 172683.3281 150.7029 L 172750 150.7029 L 172816.6719 139.3914 L 172883.3281 150.7029 L 172950 139.3914 L 173016.6719 128.08 L 173083.3281 128.08 L 173150 128.08 L 173216.6719 128.08 L 173283.3281 139.3914 L 173350 139.3914 L 173416.6719 150.7029 L 173483.3281 150.7029 L 173550 162.0143 L 173616.6719 162.0143 L 173683.3281 150.7029 L 173750 162.0143 L 173816.6719 150.7029 L 173883.3281 150.7029 L 173950 128.08 L 174016.6719 128.08 L 174083.3281 128.08 L 174150 139.3914 L 174216.6719 139.3914 L 174283.3281 150.7029 L 174350 150.7029 L 174416.6719 162.0143 L 174483.3281 162.0143 L 174550 150.7029 L 174616.6719 162.0143 L 174683.3281 173.3257 L 174750 173.3257 L 174816.6719 162.0143 L 174883.3281 150.7029 L 174950 139.3914 L 175016.6719 128.08 L 175083.3281 116.7686 L 175150 105.4571 L 175216.6719 105.4571 L 175283.3281 116.7686 L 175350 116.7686 L 175416.6719 128.08 L 175483.3281 128.08 L 175550 139.3914 L 175616.6719 139.3914 L 175683.3281 150.7029 L 175750 150.7029 L 175816.6719 173.3257 L 175883.3281 173.3257 L 175950 150.7029 L 176016.6719 139.3914 L 176083.3281 139.3914 L 176150 128.08 L 176216.6719 116.7686 L 176283.3281 116.7686 L 176350 116.7686 L 176416.6719 128.08 L 176483.3281 128.08 L 176550 139.3914 L 176616.6719 139.3914 L 176683.3281 150.7029 L 176750 150.7029 L 176816.6719 162.0143 L 176883.3281 162.0143 L 176950 150.7029 L 177016.6719 150.7029 L 177083.3281 150.7029 L 177150 150.7029 L 177216.6719 162.0143 L 177283.3281 162.0143 L 177350 173.3257 L 177416.6719 173.3257 L 177483.3281 184.6371 L 177550 184.6371 L 177616.6719 195.9486 L 177683.3281 173.3257 L 177750 173.3257 L 177816.6719 162.0143 L 177883.3281 162.0143 L 177950 150.7029 L 178016.6719 150.7029 L 178083.3281 150.7029 L 178150 139.3914 L 178216.6719 139.3914 L 178283.3281 150.7029 L 178350 150.7029 L 178416.6719 162.0143 L 178483.3281 162.0143 L 178550 173.3257 L 178616.6719 173.3257 L 178683.3281 162.0143 L 178750 173.3257 L 178816.6719 173.3257 L 178883.3281 162.0143 L 178950 162.0143 L 179016.6719 162.0143 L 179083.3281 173.3257 L 179150 173.3257 L 179216.6719 184.6371 L 179283.3281 184.6371 L 179350 173.3257 L 179416.6719 173.3257 L 179483.3281 162.0143 L 179550 173.3257 L 179616.6719 173.3257 L 179683.3281 162.0143 L 179750 162.0143 L 179816.6719 173.3257 L 179883.3281 162.0143 L 179950 162.0143 L 180016.6719 173.3257 L 180083.3281 173.3257 L 180150 184.6371 L 180216.6719 184.6371 L 180283.3281 195.9486 L 180350 195.9486 L 180416.6719 207.26 L 180483.3281 195.9486 L 180550 195.9486 L 180616.6719 184.6371 L 180683.3281 184.6371 L 180750 173.3257 L 180816.6719 173.3257 L 180883.3281 162.0143 L 180950 150.7029 L 181016.6719 139.3914 L 181083.3281 139.3914 L 181150 128.08 L 181216.6719 128.08 L 181283.3281 139.3914 L 181350 139.3914 L 181416.6719 150.7029 L 181483.3281 150.7029 L 181550 162.0143 L 181616.6719 162.0143 L 181683.3281 173.3257 L 181750 173.3257 L 181816.6719 184.6371 L 181883.3281 184.6371 L 181950 173.3257 L 182016.6719 162.0143 L 182083.3281 162.0143 L 182150 150.7029 L 182216.6719 139.3914 L 182283.3281 128.08 L 182350 128.08 L 182416.6719 139.3914 L 182483.3281 139.3914 L 182550 150.7029 L 182616.6719 150.7029 L 182683.3281 162.0143 L 182750 162.0143 L 182816.6719 173.3257 L 182883.3281 173.3257 L 182950 162.0143 L 183016.6719 162.0143 L 183083.3281 150.7029 L 183150 150.7029 L 183216.6719 128.08 L 183283.3281 116.7686 L 183350 116.7686 L 183416.6719 128.08 L 183483.3281 128.08 L 183550 139.3914 L 183616.6719 139.3914 L 183683.3281 150.7029 L 183750 150.7029 L 183816.6719 162.0143 L 183883.3281 162.0143 L 183950 150.7029 L 184016.6719 162.0143 L 184083.3281 150.7029 L 184150 139.3914 L 184216.6719 139.3914 L 184283.3281 139.3914 L 184350 150.7029 L 184416.6719 150.7029 L 184483.3281 162.0143 L 184550 162.0143 L 184616.6719 173.3257 L 184683.3281 173.3257 L 184750 184.6371 L 184816.6719 184.6371 L 184883.3281 173.3257 L 184950 173.3257 L 185016.6719 162.0143 L 185083.3281 150.7029 L 185150 150.7029 L 185216.6719 139.3914 L 185283.3281 128.08 L 185350 116.7686 L 185416.6719 116.7686 L 185483.3281 128.08 L 185550 128.08 L 185616.6719 139.3914 L 185683.3281 139.3914 L 185750 150.7029 L 185816.6719 150.7029 L 185883.3281 162.0143 L 185950 150.7029 L 186016.6719 150.7029 L 186083.3281 128.08 L 186150 128.08 L 186216.6719 116.7686 L 186283.3281 116.7686 L 186350 116.7686 L 186416.6719 116.7686 L 186483.3281 128.08 L 186550 128.08 L 186616.6719 139.3914 L 186683.3281 139.3914 L 186750 150.7029 L 186816.6719 150.7029 L 186883.3281 150.7029 L 186950 150.7029 L 187016.6719 162.0143 L 187083.3281 162.0143 L 187150 173.3257 L 187216.6719 173.3257 L 187283.3281 184.6371 L 187350 184.6371 L 187416.6719 195.9486 L 187483.3281 195.9486 L 187550 173.3257 L 187616.6719 173.3257 L 187683.3281 162.0143 L 187750 150.7029 L 187816.6719 139.3914 L 187883.3281 139.3914 L 187950 150.7029 L 188016.6719 150.7029 L 188083.3281 162.0143 L 188150 162.0143 L 188216.6719 173.3257 L 188283.3281 173.3257 L 188350 150.7029 L 188416.6719 150.7029 L 188483.3281 150.7029 L 188550 139.3914 L 188616.6719 139.3914 L 188683.3281 150.7029 L 188750 150.7029 L 188816.6719 162.0143 L 188883.3281 162.0143 L 188950 173.3257 L 189016.6719 173.3257 L 189083.3281 162.0143 L 189150 162.0143 L 189216.6719 150.7029 L 189283.3281 128.08 L 189350 128.08 L 189416.6719 139.3914 L 189483.3281 139.3914 L 189550 150.7029 L 189616.6719 150.7029 L 189683.3281 162.0143 L 189750 162.0143 L 189816.6719 173.3257 L 189883.3281 173.3257 L 189950 162.0143 L 190016.6719 150.7029 L 190083.3281 139.3914 L 190150 139.3914 L 190216.6719 139.3914 L 190283.3281 173.3257 L 190350 173.3257 L 190416.6719 162.0143 L 190483.3281 162.0143 L 190550 173.3257 L 190616.6719 173.3257 L 190683.3281 184.6371 L 190750 184.6371 L 190816.6719 195.9486 L 190883.3281 195.9486 L 190950 184.6371 L 191016.6719 173.3257 L 191083.3281 173.3257 L 191150 173.3257 L 191216.6719 162.0143 L 191283.3281 162.0143 L 191350 173.3257 L 191416.6719 173.3257 L 191483.3281 184.6371 L 191550 184.6371 L 191616.6719 173.3257 L 191683.3281 173.3257 L 191750 173.3257 L 191816.6719 184.6371 L 191883.3281 184.6371 L 191950 195.9486 L 192016.6719 195.9486 L 192083.3281 207.26 L 192150 207.26 L 192216.6719 195.9486 L 192283.3281 195.9486 L 192350 184.6371 L 192416.6719 173.3257 L 192483.3281 162.0143 L 192550 150.7029 L 192616.6719 150.7029 L 192683.3281 139.3914 L 192750 139.3914 L 192816.6719 150.7029 L 192883.3281 150.7029 L 192950 162.0143 L 193016.6719 162.0143 L 193083.3281 173.3257 L 193150 173.3257 L 193216.6719 184.6371 L 193283.3281 184.6371 L 193350 173.3257 L 193416.6719 162.0143 L 193483.3281 150.7029 L 193550 139.3914 L 193616.6719 139.3914 L 193683.3281 150.7029 L 193750 150.7029 L 193816.6719 162.0143 L 193883.3281 162.0143 L 193950 173.3257 L 194016.6719 173.3257 L 194083.3281 184.6371 L 194150 184.6371 L 194216.6719 173.3257 L 194283.3281 173.3257 L 194350 162.0143 L 194416.6719 150.7029 L 194483.3281 139.3914 L 194550 139.3914 L 194616.6719 150.7029 L 194683.3281 150.7029 L 194750 162.0143 L 194816.6719 162.0143 L 194883.3281 173.3257 L 194950 173.3257 L 195016.6719 184.6371 L 195083.3281 184.6371 L 195150 173.3257 L 195216.6719 173.3257 L 195283.3281 162.0143 L 195350 162.0143 L 195416.6719 150.7029 L 195483.3281 150.7029 L 195550 162.0143 L 195616.6719 162.0143 L 195683.3281 173.3257 L 195750 173.3257 L 195816.6719 184.6371 L 195883.3281 184.6371 L 195950 195.9486 L 196016.6719 195.9486 L 196083.3281 184.6371 L 196150 173.3257 L 196216.6719 173.3257 L 196283.3281 162.0143 L 196350 150.7029 L 196416.6719 139.3914 L 196483.3281 128.08 L 196550 128.08 L 196616.6719 139.3914 L 196683.3281 139.3914 L 196750 150.7029 L 196816.6719 150.7029 L 196883.3281 162.0143 L 196950 162.0143 L 197016.6719 173.3257 L 197083.3281 173.3257 L 197150 184.6371 L 197216.6719 184.6371 L 197283.3281 173.3257 L 197350 162.0143 L 197416.6719 150.7029 L 197483.3281 139.3914 L 197550 128.08 L 197616.6719 128.08 L 197683.3281 139.3914 L 197750 139.3914 L 197816.6719 150.7029 L 197883.3281 150.7029 L 197950 162.0143 L 198016.6719 162.0143 L 198083.3281 173.3257 L 198150 173.3257 L 198216.6719 184.6371 L 198283.3281 173.3257 L 198350 173.3257 L 198416.6719 162.0143 L 198483.3281 162.0143 L 198550 173.3257 L 198616.6719 173.3257 L 198683.3281 162.0143 L 198750 150.7029 L 198816.6719 139.3914 L 198883.3281 139.3914 L 198950 150.7029 L 199016.6719 150.7029 L 199083.3281 162.0143 L 199150 162.0143 L 199216.6719 173.3257 L 199283.3281 173.3257 L 199350 184.6371 L 199416.6719 184.6371 L 199483.3281 173.3257 L 199550 162.0143 L 199616.6719 150.7029 L 199683.3281 150.7029 L 199750 139.3914 L 199816.6719 128.08 L 199883.3281 116.7686 L 199950 116.7686 L 200016.6719 128.08 L 200083.3281 128.08 L 200150 139.3914 L 200216.6719 139.3914 L 200283.3281 150.7029 L 200350 150.7029 L 200416.6719 162.0143 L 200483.3281 162.0143 L 200550 173.3257 L 200616.6719 173.3257 L 200683.3281 162.0143 L 200750 150.7029 L 200816.6719 150.7029 L 200883.3281 139.3914 L 200950 139.3914 L 201016.6719 139.3914 L 201083.3281 139.3914 L 201150 150.7029 L 201216.6719 150.7029 L 201283.3281 162.0143 L 201350 162.0143 L 201416.6719 173.3257 L 201483.3281 173.3257 L 201550 184.6371 L 201616.6719 184.6371 L 201683.3281 173.3257 L 201750 162.0143 L 201816.6719 150.7029 L 201883.3281 139.3914 L 201950 128.08 L 202016.6719 116.7686 L 202083.3281 116.7686 L 202150 128.08 L 202216.6719 128.08 L 202283.3281 139.3914 L 202350 139.3914 L 202416.6719 150.7029 L 202483.3281 150.7029 L 202550 162.0143 L 202616.6719 173.3257 L 202683.3281 184.6371 L 202750 184.6371 L 202816.6719 173.3257 L 202883.3281 162.0143 L 202950 150.7029 L 203016.6719 128.08 L 203083.3281 128.08 L 203150 116.7686 L 203216.6719 116.7686 L 203283.3281 128.08 L 203350 128.08 L 203416.6719 139.3914 L 203483.3281 139.3914 L 203550 150.7029 L 203616.6719 150.7029 L 203683.3281 162.0143 L 203750 162.0143 L 203816.6719 173.3257 L 203883.3281 184.6371 L 203950 184.6371 L 204016.6719 173.3257 L 204083.3281 162.0143 L 204150 150.7029 L 204216.6719 128.08 L 204283.3281 116.7686 L 204350 116.7686 L 204416.6719 128.08 L 204483.3281 128.08 L 204550 139.3914 L 204616.6719 139.3914 L 204683.3281 150.7029 L 204750 150.7029 L 204816.6719 162.0143 L 204883.3281 173.3257 L 204950 173.3257 L 205016.6719 162.0143 L 205083.3281 162.0143 L 205150 139.3914 L 205216.6719 139.3914 L 205283.3281 116.7686 L 205350 116.7686 L 205416.6719 116.7686 L 205483.3281 128.08 L 205550 128.08 L 205616.6719 139.3914 L 205683.3281 139.3914 L 205750 150.7029 L 205816.6719 150.7029 L 205883.3281 162.0143 L 205950 162.0143 L 206016.6719 173.3257 L 206083.3281 173.3257 L 206150 173.3257 L 206216.6719 173.3257 L 206283.3281 184.6371 L 206350 184.6371 L 206416.6719 195.9486 L 206483.3281 195.9486 L 206550 184.6371 L 206616.6719 184.6371 L 206683.3281 184.6371 L 206750 184.6371 L 206816.6719 184.6371 L 206883.3281 184.6371 L 206950 195.9486 L 207016.6719 195.9486 L 207083.3281 184.6371 L 207150 184.6371 L 207216.6719 184.6371 L 207283.3281 184.6371 L 207350 195.9486 L 207416.6719 195.9486 L 207483.3281 184.6371 L 207550 184.6371 L 207616.6719 184.6371 L 207683.3281 173.3257 L 207750 173.3257 L 207816.6719 184.6371 L 207883.3281 184.6371 L 207950 195.9486 L 208016.6719 195.9486 L 208083.3281 207.26 L 208150 207.26 L 208216.6719 195.9486 L 208283.3281 195.9486 L 208350 173.3257 L 208416.6719 162.0143 L 208483.3281 150.7029 L 208550 150.7029 L 208616.6719 139.3914 L 208683.3281 139.3914 L 208750 150.7029 L 208816.6719 150.7029 L 208883.3281 162.0143 L 208950 162.0143 L 209016.6719 173.3257 L 209083.3281 173.3257 L 209150 184.6371 L 209216.6719 184.6371 L 209283.3281 173.3257 L 209350 173.3257 L 209416.6719 173.3257 L 209483.3281 173.3257 L 209550 184.6371 L 209616.6719 184.6371 L 209683.3281 195.9486 L 209750 195.9486 L 209816.6719 207.26 L 209883.3281 207.26 L 209950 195.9486 L 210016.6719 184.6371 L 210083.3281 173.3257 L 210150 162.0143 L 210216.6719 162.0143 L 210283.3281 162.0143 L 210350 173.3257 L 210416.6719 173.3257 L 210483.3281 184.6371 L 210550 184.6371 L 210616.6719 184.6371 L 210683.3281 184.6371 L 210750 195.9486 L 210816.6719 195.9486 L 210883.3281 184.6371 L 210950 184.6371 L 211016.6719 184.6371 L 211083.3281 184.6371 L 211150 195.9486 L 211216.6719 195.9486 L 211283.3281 207.26 L 211350 207.26 L 211416.6719 195.9486 L 211483.3281 195.9486 L 211550 195.9486 L 211616.6719 184.6371 L 211683.3281 184.6371 L 211750 195.9486 L 211816.6719 195.9486 L 211883.3281 207.26 L 211950 195.9486 L 212016.6719 195.9486 L 212083.3281 195.9486 L 212150 195.9486 L 212216.6719 207.26 L 212283.3281 207.26 L 212350 195.9486 L 212416.6719 195.9486 L 212483.3281 195.9486 L 212550 207.26 L 212616.6719 207.26 L 212683.3281 207.26 L 212750 207.26 L 212816.6719 218.5714 L 212883.3281 218.5714 L 212950 207.26 L 213016.6719 207.26 L 213083.3281 207.26 L 213150 218.5714 L 213216.6719 218.5714 L 213283.3281 207.26 L 213350 207.26 L 213416.6719 207.26 L 213483.3281 207.26 L 213550 218.5714 L 213616.6719 218.5714 L 213683.3281 229.8829 L 213750 229.8829 L 213816.6719 218.5714 L 213883.3281 218.5714 L 213950 207.26 L 214016.6719 207.26 L 214083.3281 218.5714 L 214150 218.5714 L 214216.6719 207.26 L 214283.3281 207.26 L 214350 195.9486 L 214416.6719 195.9486 L 214483.3281 207.26 L 214550 207.26 L 214616.6719 195.9486 L 214683.3281 195.9486 L 214750 195.9486 L 214816.6719 195.9486 L 214883.3281 207.26 L 214950 207.26 L 215016.6719 207.26 L 215083.3281 207.26 L 215150 218.5714 L 215216.6719 218.5714 L 215283.3281 229.8829 L 215350 218.5714 L 215416.6719 218.5714 L 215483.3281 207.26 L 215550 207.26 L 215616.6719 207.26 L 215683.3281 207.26 L 215750 218.5714 L 215816.6719 218.5714 L 215883.3281 229.8829 L 215950 241.1943 L 216016.6719 241.1943 L 216083.3281 229.8829 L 216150 207.26 L 216216.6719 207.26 L 216283.3281 207.26 L 216350 207.26 L 216416.6719 218.5714 L 216483.3281 218.5714 L 216550 218.5714 L 216616.6719 218.5714 L 216683.3281 218.5714 L 216750 218.5714 L 216816.6719 218.5714 L 216883.3281 218.5714 L 216950 229.8829 L 217016.6719 229.8829 L 217083.3281 218.5714 L 217150 218.5714 L 217216.6719 229.8829 L 217283.3281 229.8829 L 217350 229.8829 L 217416.6719 241.1943 L 217483.3281 229.8829 L 217550 229.8829 L 217616.6719 218.5714 L 217683.3281 218.5714 L 217750 218.5714 L 217816.6719 218.5714 L 217883.3281 229.8829 L 217950 229.8829 L 218016.6719 218.5714 L 218083.3281 218.5714 L 218150 218.5714 L 218216.6719 218.5714 L 218283.3281 229.8829 L 218350 229.8829 L 218416.6719 241.1943 L 218483.3281 229.8829 L 218550 229.8829 L 218616.6719 218.5714 L 218683.3281 218.5714 L 218750 218.5714 L 218816.6719 218.5714 L 218883.3281 229.8829 L 218950 229.8829 L 219016.6719 252.5057 L 219083.3281 252.5057 L 219150 229.8829 L 219216.6719 218.5714 L 219283.3281 207.26 L 219350 207.26 L 219416.6719 207.26 L 219483.3281 207.26 L 219550 218.5714 L 219616.6719 218.5714 L 219683.3281 229.8829 L 219750 229.8829 L 219816.6719 218.5714 L 219883.3281 218.5714 L 219950 218.5714 L 220016.6719 218.5714 L 220083.3281 229.8829 L 220150 229.8829 L 220216.6719 218.5714 L 220283.3281 229.8829 L 220350 229.8829 L 220416.6719 218.5714 L 220483.3281 218.5714 L 220550 229.8829 L 220616.6719 241.1943 L 220683.3281 252.5057 L 220750 252.5057 L 220816.6719 241.1943 L 220883.3281 218.5714 L 220950 218.5714 L 221016.6719 207.26 L 221083.3281 207.26 L 221150 207.26 L 221216.6719 207.26 L 221283.3281 218.5714 L 221350 218.5714 L 221416.6719 229.8829 L 221483.3281 218.5714 L 221550 218.5714 L 221616.6719 207.26 L 221683.3281 207.26 L 221750 207.26 L 221816.6719 207.26 L 221883.3281 218.5714 L 221950 218.5714 L 222016.6719 207.26 L 222083.3281 218.5714 L 222150 218.5714 L 222216.6719 207.26 L 222283.3281 218.5714 L 222350 218.5714 L 222416.6719 218.5714 L 222483.3281 218.5714 L 222550 218.5714 L 222616.6719 229.8829 L 222683.3281 229.8829 L 222750 218.5714 L 222816.6719 218.5714 L 222883.3281 218.5714 L 222950 218.5714 L 223016.6719 229.8829 L 223083.3281 229.8829 L 223150 218.5714 L 223216.6719 218.5714 L 223283.3281 218.5714 L 223350 218.5714 L 223416.6719 229.8829 L 223483.3281 241.1943 L 223550 252.5057 L 223616.6719 252.5057 L 223683.3281 241.1943 L 223750 218.5714 L 223816.6719 218.5714 L 223883.3281 207.26 L 223950 218.5714 L 224016.6719 218.5714 L 224083.3281 218.5714 L 224150 218.5714 L 224216.6719 218.5714 L 224283.3281 229.8829 L 224350 229.8829 L 224416.6719 218.5714 L 224483.3281 218.5714 L 224550 229.8829 L 224616.6719 229.8829 L 224683.3281 218.5714 L 224750 218.5714 L 224816.6719 229.8829 L 224883.3281 229.8829 L 224950 218.5714 L 225016.6719 218.5714 L 225083.3281 229.8829 L 225150 229.8829 L 225216.6719 218.5714 L 225283.3281 218.5714 L 225350 229.8829 L 225416.6719 229.8829 L 225483.3281 229.8829 L 225550 229.8829 L 225616.6719 241.1943 L 225683.3281 241.1943 L 225750 252.5057 L 225816.6719 252.5057 L 225883.3281 241.1943 L 225950 229.8829 L 226016.6719 218.5714 L 226083.3281 218.5714 L 226150 229.8829 L 226216.6719 229.8829 L 226283.3281 229.8829 L 226350 241.1943 L 226416.6719 241.1943 L 226483.3281 229.8829 L 226550 229.8829 L 226616.6719 229.8829 L 226683.3281 241.1943 L 226750 241.1943 L 226816.6719 252.5057 L 226883.3281 241.1943 L 226950 241.1943 L 227016.6719 252.5057 L 227083.3281 252.5057 L 227150 241.1943 L 227216.6719 229.8829 L 227283.3281 229.8829 L 227350 229.8829 L 227416.6719 229.8829 L 227483.3281 241.1943 L 227550 229.8829 L 227616.6719 229.8829 L 227683.3281 241.1943 L 227750 241.1943 L 227816.6719 252.5057 L 227883.3281 263.8171 L 227950 263.8171 L 228016.6719 252.5057 L 228083.3281 241.1943 L 228150 229.8829 L 228216.6719 229.8829 L 228283.3281 229.8829 L 228350 229.8829 L 228416.6719 241.1943 L 228483.3281 241.1943 L 228550 252.5057 L 228616.6719 263.8171 L 228683.3281 263.8171 L 228750 252.5057 L 228816.6719 241.1943 L 228883.3281 229.8829 L 228950 229.8829 L 229016.6719 229.8829 L 229083.3281 229.8829 L 229150 241.1943 L 229216.6719 241.1943 L 229283.3281 252.5057 L 229350 252.5057 L 229416.6719 263.8171 L 229483.3281 263.8171 L 229550 263.8171 L 229616.6719 252.5057 L 229683.3281 252.5057 L 229750 263.8171 L 229816.6719 263.8171 L 229883.3281 252.5057 L 229950 263.8171 L 230016.6719 263.8171 L 230083.3281 263.8171 L 230150 263.8171 L 230216.6719 252.5057 L 230283.3281 252.5057 L 230350 263.8171 L 230416.6719 275.1286 L 230483.3281 263.8171 L 230550 275.1286 L 230616.6719 263.8171 L 230683.3281 252.5057 L 230750 241.1943 L 230816.6719 241.1943 L 230883.3281 241.1943 L 230950 241.1943 L 231016.6719 252.5057 L 231083.3281 252.5057 L 231150 263.8171 L 231216.6719 263.8171 L 231283.3281 252.5057 L 231350 252.5057 L 231416.6719 263.8171 L 231483.3281 263.8171 L 231550 263.8171 L 231616.6719 275.1286 L 231683.3281 263.8171 L 231750 275.1286 L 231816.6719 275.1286 L 231883.3281 263.8171 L 231950 263.8171 L 232016.6719 275.1286 L 232083.3281 275.1286 L 232150 263.8171 L 232216.6719 252.5057 L 232283.3281 252.5057 L 232350 252.5057 L 232416.6719 252.5057 L 232483.3281 263.8171 L 232550 252.5057 L 232616.6719 263.8171 L 232683.3281 263.8171 L 232750 252.5057 L 232816.6719 252.5057 L 232883.3281 252.5057 L 232950 252.5057 L 233016.6719 263.8171 L 233083.3281 263.8171 L 233150 252.5057 L 233216.6719 252.5057 L 233283.3281 252.5057 L 233350 252.5057 L 233416.6719 241.1943 L 233483.3281 241.1943 L 233550 252.5057 L 233616.6719 252.5057 L 233683.3281 241.1943 L 233750 241.1943 L 233816.6719 252.5057 L 233883.3281 252.5057 L 233950 252.5057 L 234016.6719 263.8171 L 234083.3281 263.8171 L 234150 252.5057 L 234216.6719 252.5057 L 234283.3281 263.8171 L 234350 263.8171 L 234416.6719 252.5057 L 234483.3281 263.8171 L 234550 263.8171 L 234616.6719 263.8171 L 234683.3281 252.5057 L 234750 252.5057 L 234816.6719 263.8171 L 234883.3281 263.8171 L 234950 252.5057 L 235016.6719 263.8171 L 235083.3281 263.8171 L 235150 275.1286 L 235216.6719 263.8171 L 235283.3281 263.8171 L 235350 275.1286 L 235416.6719 263.8171 L 235483.3281 263.8171 L 235550 275.1286 L 235616.6719 275.1286 L 235683.3281 263.8171 L 235750 252.5057 L 235816.6719 252.5057 L 235883.3281 263.8171 L 235950 252.5057 L 236016.6719 252.5057 L 236083.3281 263.8171 L 236150 263.8171 L 236216.6719 252.5057 L 236283.3281 263.8171 L 236350 263.8171 L 236416.6719 252.5057 L 236483.3281 252.5057 L 236550 263.8171 L 236616.6719 263.8171 L 236683.3281 275.1286 L 236750 275.1286 L 236816.6719 263.8171 L 236883.3281 263.8171 L 236950 252.5057 L 237016.6719 252.5057 L 237083.3281 252.5057 L 237150 263.8171 L 237216.6719 252.5057 L 237283.3281 252.5057 L 237350 263.8171 L 237416.6719 263.8171 L 237483.3281 275.1286 L 237550 275.1286 L 237616.6719 286.44 L 237683.3281 286.44 L 237750 275.1286 L 237816.6719 263.8171 L 237883.3281 263.8171 L 237950 275.1286 L 238016.6719 275.1286 L 238083.3281 286.44 L 238150 286.44 L 238216.6719 275.1286 L 238283.3281 286.44 L 238350 286.44 L 238416.6719 275.1286 L 238483.3281 275.1286 L 238550 275.1286 L 238616.6719 286.44 L 238683.3281 286.44 L 238750 275.1286 L 238816.6719 275.1286 L 238883.3281 286.44 L 238950 286.44 L 239016.6719 286.44 L 239083.3281 286.44 L 239150 297.7514 L 239216.6719 297.7514 L 239283.3281 286.44 L 239350 286.44 L 239416.6719 286.44 L 239483.3281 297.7514 L 239550 297.7514 L 239616.6719 286.44 L 239683.3281 286.44 L 239750 297.7514 L 239816.6719 297.7514 L 239883.3281 286.44 L 239950 297.7514 L 240016.6719 297.7514 L 240083.3281 297.7514 L 240150 286.44 L 240216.6719 286.44 L 240283.3281 297.7514 L 240350 297.7514 L 240416.6719 309.0629 L 240483.3281 297.7514 L 240550 286.44 L 240616.6719 286.44 L 240683.3281 286.44 L 240750 286.44 L 240816.6719 297.7514 L 240883.3281 297.7514 L 240950 286.44 L 241016.6719 297.7514 L 241083.3281 297.7514 L 241150 297.7514 L 241216.6719 297.7514 L 241283.3281 309.0629 L 241350 309.0629 L 241416.6719 297.7514 L 241483.3281 286.44 L 241550 286.44 L 241616.6719 286.44 L 241683.3281 297.7514 L 241750 297.7514 L 241816.6719 286.44 L 241883.3281 286.44 L 241950 297.7514 L 242016.6719 286.44 L 242083.3281 286.44 L 242150 275.1286 L 242216.6719 286.44 L 242283.3281 286.44 L 242350 275.1286 L 242416.6719 275.1286 L 242483.3281 286.44 L 242550 286.44 L 242616.6719 275.1286 L 242683.3281 275.1286 L 242750 263.8171 L 242816.6719 263.8171 L 242883.3281 275.1286 L 242950 275.1286 L 243016.6719 286.44 L 243083.3281 286.44 L 243150 297.7514 L 243216.6719 297.7514 L 243283.3281 286.44 L 243350 286.44 L 243416.6719 286.44 L 243483.3281 297.7514 L 243550 297.7514 L 243616.6719 286.44 L 243683.3281 286.44 L 243750 297.7514 L 243816.6719 297.7514 L 243883.3281 309.0629 L 243950 297.7514 L 244016.6719 297.7514 L 244083.3281 286.44 L 244150 286.44 L 244216.6719 297.7514 L 244283.3281 297.7514 L 244350 286.44 L 244416.6719 286.44 L 244483.3281 286.44 L 244550 286.44 L 244616.6719 297.7514 L 244683.3281 297.7514 L 244750 309.0629 L 244816.6719 309.0629 L 244883.3281 297.7514 L 244950 297.7514 L 245016.6719 309.0629 L 245083.3281 309.0629 L 245150 297.7514 L 245216.6719 297.7514 L 245283.3281 297.7514 L 245350 297.7514 L 245416.6719 309.0629 L 245483.3281 309.0629 L 245550 297.7514 L 245616.6719 297.7514 L 245683.3281 309.0629 L 245750 309.0629 L 245816.6719 309.0629 L 245883.3281 320.3743 L 245950 320.3743 L 246016.6719 309.0629 L 246083.3281 309.0629 L 246150 309.0629 L 246216.6719 320.3743 L 246283.3281 320.3743 L 246350 309.0629 L 246416.6719 309.0629 L 246483.3281 320.3743 L 246550 309.0629 L 246616.6719 309.0629 L 246683.3281 309.0629 L 246750 309.0629 L 246816.6719 297.7514 L 246883.3281 297.7514 L 246950 309.0629 L 247016.6719 309.0629 L 247083.3281 320.3743 L 247150 320.3743 L 247216.6719 309.0629 L 247283.3281 309.0629 L 247350 297.7514 L 247416.6719 297.7514 L 247483.3281 309.0629 L 247550 309.0629 L 247616.6719 309.0629 L 247683.3281 297.7514 L 247750 309.0629 L 247816.6719 309.0629 L 247883.3281 297.7514 L 247950 297.7514 L 248016.6719 297.7514 L 248083.3281 297.7514 L 248150 309.0629 L 248216.6719 297.7514 L 248283.3281 297.7514 L 248350 297.7514 L 248416.6719 297.7514 L 248483.3281 309.0629 L 248550 309.0629 L 248616.6719 320.3743 L 248683.3281 320.3743 L 248750 320.3743 L 248816.6719 320.3743 L 248883.3281 309.0629 L 248950 309.0629 L 249016.6719 320.3743 L 249083.3281 309.0629 L 249150 309.0629 L 249216.6719 309.0629 L 249283.3281 309.0629 L 249350 297.7514 L 249416.6719 297.7514 L 249483.3281 309.0629 L 249550 309.0629 L 249616.6719 297.7514 L 249683.3281 309.0629 L 249750 309.0629 L 249816.6719 309.0629 L 249883.3281 309.0629 L 249950 320.3743 L 250016.6719 320.3743 L 250083.3281 309.0629 L 250150 309.0629 L 250216.6719 320.3743 L 250283.3281 320.3743 L 250350 309.0629 L 250416.6719 309.0629 L 250483.3281 320.3743 L 250550 320.3743 L 250616.6719 309.0629 L 250683.3281 309.0629 L 250750 297.7514 L 250816.6719 309.0629 L 250883.3281 309.0629 L 250950 320.3743 L 251016.6719 309.0629 L 251083.3281 309.0629 L 251150 320.3743 L 251216.6719 320.3743 L 251283.3281 309.0629 L 251350 309.0629 L 251416.6719 297.7514 L 251483.3281 309.0629 L 251550 309.0629 L 251616.6719 309.0629 L 251683.3281 309.0629 L 251750 297.7514 L 251816.6719 297.7514 L 251883.3281 309.0629 L 251950 309.0629 L 252016.6719 320.3743 L 252083.3281 320.3743 L 252150 331.6857 L 252216.6719 331.6857 L 252283.3281 342.9971 L 252350 331.6857 L 252416.6719 331.6857 L 252483.3281 342.9971 L 252550 342.9971 L 252616.6719 331.6857 L 252683.3281 331.6857 L 252750 331.6857 L 252816.6719 331.6857 L 252883.3281 320.3743 L 252950 320.3743 L 253016.6719 320.3743 L 253083.3281 320.3743 L 253150 309.0629 L 253216.6719 309.0629 L 253283.3281 320.3743 L 253350 320.3743 L 253416.6719 331.6857 L 253483.3281 331.6857 L 253550 320.3743 L 253616.6719 331.6857 L 253683.3281 331.6857 L 253750 320.3743 L 253816.6719 320.3743 L 253883.3281 309.0629 L 253950 320.3743 L 254016.6719 320.3743 L 254083.3281 320.3743 L 254150 320.3743 L 254216.6719 331.6857 L 254283.3281 331.6857 L 254350 320.3743 L 254416.6719 320.3743 L 254483.3281 331.6857 L 254550 331.6857 L 254616.6719 320.3743 L 254683.3281 320.3743 L 254750 331.6857 L 254816.6719 331.6857 L 254883.3281 342.9971 L 254950 331.6857 L 255016.6719 331.6857 L 255083.3281 342.9971 L 255150 342.9971 L 255216.6719 331.6857 L 255283.3281 342.9971 L 255350 342.9971 L 255416.6719 354.3086 L 255483.3281 342.9971 L 255550 342.9971 L 255616.6719 342.9971 L 255683.3281 342.9971 L 255750 331.6857 L 255816.6719 331.6857 L 255883.3281 320.3743 L 255950 320.3743 L 256016.6719 309.0629 L 256083.3281 309.0629 L 256150 309.0629 L 256216.6719 309.0629 L 256283.3281 309.0629 L 256350 309.0629 L 256416.6719 320.3743 L 256483.3281 320.3743 L 256550 309.0629 L 256616.6719 309.0629 L 256683.3281 297.7514 L 256750 309.0629 L 256816.6719 309.0629 L 256883.3281 320.3743 L 256950 320.3743 L 257016.6719 331.6857 L 257083.3281 331.6857 L 257150 320.3743 L 257216.6719 320.3743 L 257283.3281 331.6857 L 257350 331.6857 L 257416.6719 342.9971 L 257483.3281 331.6857 L 257550 331.6857 L 257616.6719 342.9971 L 257683.3281 342.9971 L 257750 354.3086 L 257816.6719 354.3086 L 257883.3281 342.9971 L 257950 354.3086 L 258016.6719 342.9971 L 258083.3281 342.9971 L 258150 354.3086 L 258216.6719 354.3086 L 258283.3281 342.9971 L 258350 354.3086 L 258416.6719 342.9971 L 258483.3281 342.9971 L 258550 342.9971 L 258616.6719 342.9971 L 258683.3281 342.9971 L 258750 342.9971 L 258816.6719 331.6857 L 258883.3281 331.6857 L 258950 342.9971 L 259016.6719 342.9971 L 259083.3281 331.6857 L 259150 331.6857 L 259216.6719 342.9971 L 259283.3281 342.9971 L 259350 342.9971 L 259416.6719 354.3086 L 259483.3281 354.3086 L 259550 342.9971 L 259616.6719 354.3086 L 259683.3281 354.3086 L 259750 354.3086 L 259816.6719 354.3086 L 259883.3281 365.62 L 259950 365.62 L 260016.6719 376.9314 L 260083.3281 376.9314 L 260150 388.2429 L 260216.6719 388.2429 L 260283.3281 388.2429 L 260350 388.2429" fill="none" stroke="#5470c6" stroke-width="2" paint-order="fill" stroke-opacity="1" stroke-dasharray="" stroke-linecap="butt" stroke-linejoin="bevel" stroke-miterlimit="10"></path></g><path d="M 1 0 A 1 1 0 1 1 1 -0.0001" fill="#fff" fill-opacity="1" stroke="#5470c6" stroke-width="1" paint-order="fill" stroke-opacity="1" stroke-dasharray="" stroke-linecap="butt" stroke-miterlimit="10" transform="matrix(2,0,0,2,83.3333,218.5714)"></path><path d="M 1 0 A 1 1 0 1 1 1 -0.0001" fill="#fff" fill-opacity="1" stroke="#5470c6" stroke-width="1" paint-order="fill" stroke-opacity="1" stroke-dasharray="" stroke-linecap="butt" stroke-miterlimit="10" transform="matrix(2,0,0,2,150,218.5714)"></path><path d="M 1 0 A 1 1 0 1 1 1 -0.0001" fill="#fff" fill-opacity="1" stroke="#5470c6" stroke-width="1" paint-order="fill" stroke-opacity="1" stroke-dasharray="" stroke-linecap="butt" stroke-miterlimit="10" transform="matrix(2,0,0,2,216.6667,218.5714)"></path><path d="M 1 0 A 1 1 0 1 1 1 -0.0001" fill="#fff" fill-opacity="1" stroke="#5470c6" stroke-width="1" paint-order="fill" stroke-opacity="1" stroke-dasharray="" stroke-linecap="butt" stroke-miterlimit="10" transform="matrix(2,0,0,2,283.3333,207.26)"></path><path d="M 1 0 A 1 1 0 1 1 1 -0.0001" fill="#fff" fill-opacity="1" stroke="#5470c6" stroke-width="1" paint-order="fill" stroke-opacity="1" stroke-dasharray="" stroke-linecap="butt" stroke-miterlimit="10" transform="matrix(2,0,0,2,350,207.26)"></path><path d="M 1 0 A 1 1 0 1 1 1 -0.0001" fill="#fff" fill-opacity="1" stroke="#5470c6" stroke-width="1" paint-order="fill" stroke-opacity="1" stroke-dasharray="" stroke-linecap="butt" stroke-miterlimit="10" transform="matrix(2,0,0,2,416.6667,218.5714)"></path><path d="M -5 -5 L 106.7051 -5 L 106.7051 18.2 L -5 18.2 L -5 -5" fill="rgba(0,0,0,0)" fill-opacity="1" stroke="#ccc" stroke-width="0" paint-order="fill" stroke-opacity="1" stroke-dasharray="" stroke-linecap="butt" stroke-miterlimit="10" transform="matrix(1,0,0,1,199.1475,5)"></path><path d="M 0 7 L 25 7" fill="#000" fill-opacity="1" stroke="#5470c6" stroke-width="2" paint-order="fill" stroke-opacity="1" stroke-dasharray="" transform="matrix(1,0,0,1,200.1475,4.6)"></path><path d="M 18.1 7 A 5.6 5.6 0 1 1 18.1 6.9994" fill="#fff" fill-opacity="1" stroke="#5470c6" stroke-width="2" paint-order="fill" stroke-opacity="1" stroke-dasharray="" transform="matrix(1,0,0,1,200.1475,4.6)"></path><text xml:space="preserve" style="font: sans-serif 12px normal normal normal 12px;" fill="#333" fill-opacity="1" stroke="none" transform="matrix(1,0,0,1,200.1475,4.6)" dominant-baseline="central" text-anchor="start" x="30" y="7">displacement</text><path d="M -5 -5 L 114.7051 -5 L 114.7051 23 L -5 23 L -5 -5" fill="rgba(0,0,0,0)" fill-opacity="1" stroke="#ccc" stroke-width="0" paint-order="fill" stroke-opacity="1" stroke-dasharray="" stroke-linecap="butt" stroke-miterlimit="10" transform="matrix(1,0,0,1,5,5)"></path><text xml:space="preserve" style="font: sans-serif 18px normal normal bold 18px;" fill="#464646" fill-opacity="1" stroke="none" transform="matrix(1,0,0,1,5,5)" dominant-baseline="central" text-anchor="start" x="0" y="9">ECharts Test</text></g></svg>