<svg xmlns="http://www.w3.org/2000/svg" xmlns:xlink="http://www.w3.org/1999/xlink" version="1.1" baseProfile="full" style="user-select: none; position: absolute; left: 0px; top: 0px;" width="500" height="500"><g><rect width="500" height="500" x="0" y="0" id="0" style="fill: transparent;"></rect></g><g><defs><clipPath id="zr2323-clip-0"><path d="M 149 59 L 451 59 L 451 431 L 149 431 L 149 59" fill="#000" fill-opacity="1" stroke="none"></path></clipPath><clipPath id="zr2323-clip-1"><path d="M 149 59 L 451 59 L 451 431 L 149 431 L 149 59" fill="#000" fill-opacity="1" stroke="none"></path></clipPath></defs><path d="M 150 430.5 L 450 430.5" fill="none" stroke="#E0E6F1" stroke-width="1" paint-order="fill" stroke-opacity="1" stroke-dasharray="" stroke-linecap="butt" stroke-miterlimit="10"></path><path d="M 150 368.5 L 450 368.5" fill="none" stroke="#E0E6F1" stroke-width="1" paint-order="fill" stroke-opacity="1" stroke-dasharray="" stroke-linecap="butt" stroke-miterlimit="10"></path><path d="M 150 306.5 L 450 306.5" fill="none" stroke="#E0E6F1" stroke-width="1" paint-order="fill" stroke-opacity="1" stroke-dasharray="" stroke-linecap="butt" stroke-miterlimit="10"></path><path d="M 150 245.5 L 450 245.5" fill="none" stroke="#E0E6F1" stroke-width="1" paint-order="fill" stroke-opacity="1" stroke-dasharray="" stroke-linecap="butt" stroke-miterlimit="10"></path><path d="M 150 183.5 L 450 183.5" fill="none" stroke="#E0E6F1" stroke-width="1" paint-order="fill" stroke-opacity="1" stroke-dasharray="" stroke-linecap="butt" stroke-miterlimit="10"></path><path d="M 150 121.5 L 450 121.5" fill="none" stroke="#E0E6F1" stroke-width="1" paint-order="fill" stroke-opacity="1" stroke-dasharray="" stroke-linecap="butt" stroke-miterlimit="10"></path><path d="M 150 60.5 L 450 60.5" fill="none" stroke="#E0E6F1" stroke-width="1" paint-order="fill" stroke-opacity="1" stroke-dasharray="" stroke-linecap="butt" stroke-miterlimit="10"></path><path d="M 150 430.5 L 450 430.5" fill="none" stroke="#6E7079" stroke-width="1" paint-order="fill" stroke-opacity="1" stroke-dasharray="" stroke-linecap="round" stroke-miterlimit="10"></path><path d="M 150.5 430 L 150.5 435" fill="none" stroke="#6E7079" stroke-width="1" paint-order="fill" stroke-opacity="1" stroke-dasharray="" stroke-linecap="butt" stroke-miterlimit="10"></path><path d="M 300.5 430 L 300.5 435" fill="none" stroke="#6E7079" stroke-width="1" paint-order="fill" stroke-opacity="1" stroke-dasharray="" stroke-linecap="butt" stroke-miterlimit="10"></path><path d="M 450.5 430 L 450.5 435" fill="none" stroke="#6E7079" stroke-width="1" paint-order="fill" stroke-opacity="1" stroke-dasharray="" stroke-linecap="butt" stroke-miterlimit="10"></path><text xml:space="preserve" style="font: sans-serif 12px normal normal normal 12px;" fill="#6E7079" fill-opacity="1" stroke="none" transform="matrix(1,0,0,1,142,430)" dominant-baseline="central" text-anchor="end" x="0" y="0">0</text><text xml:space="preserve" style="font: sans-serif 12px normal normal normal 12px;" fill="#6E7079" fill-opacity="1" stroke="none" transform="matrix(1,0,0,1,142,368.3333)" dominant-baseline="central" text-anchor="end" x="0" y="0">0.05</text><text xml:space="preserve" style="font: sans-serif 12px normal normal normal 12px;" fill="#6E7079" fill-opacity="1" stroke="none" transform="matrix(1,0,0,1,142,306.6667)" dominant-baseline="central" text-anchor="end" x="0" y="0">0.1</text><text xml:space="preserve" style="font: sans-serif 12px normal normal normal 12px;" fill="#6E7079" fill-opacity="1" stroke="none" transform="matrix(1,0,0,1,142,245)" dominant-baseline="central" text-anchor="end" x="0" y="0">0.15</text><text xml:space="preserve" style="font: sans-serif 12px normal normal normal 12px;" fill="#6E7079" fill-opacity="1" stroke="none" transform="matrix(1,0,0,1,142,183.3333)" dominant-baseline="central" text-anchor="end" x="0" y="0">0.2</text><text xml:space="preserve" style="font: sans-serif 12px normal normal normal 12px;" fill="#6E7079" fill-opacity="1" stroke="none" transform="matrix(1,0,0,1,142,121.6667)" dominant-baseline="central" text-anchor="end" x="0" y="0">0.25</text><text xml:space="preserve" style="font: sans-serif 12px normal normal normal 12px;" fill="#6E7079" fill-opacity="1" stroke="none" transform="matrix(1,0,0,1,142,60)" dominant-baseline="central" text-anchor="end" x="0" y="0">0.3</text><text xml:space="preserve" style="font: sans-serif 12px normal normal normal 12px;" fill="#6E7079" fill-opacity="1" stroke="none" transform="matrix(1,0,0,1,187.5,438)" dominant-baseline="central" text-anchor="middle" x="0" y="6">2019-10-29</text><text xml:space="preserve" style="font: sans-serif 12px normal normal normal 12px;" fill="#6E7079" fill-opacity="1" stroke="none" transform="matrix(1,0,0,1,337.5,438)" dominant-baseline="central" text-anchor="middle" x="0" y="6">2019-10-31</text><g clip-path="url(#zr2323-clip-0)"><path d="M 187.5 430 L 262.5 306.6667 L 337.5 183.3333" fill="none" stroke="#5470c6" stroke-width="2" paint-order="fill" stroke-opacity="1" stroke-dasharray="" stroke-linecap="butt" stroke-linejoin="bevel" stroke-miterlimit="10"></path></g><g clip-path="url(#zr2323-clip-1)"><path d="M 187.5 306.6667 L 262.5 60 L 412.5 60" fill="none" stroke="#91cc75" stroke-width="2" paint-order="fill" stroke-opacity="1" stroke-dasharray="" stroke-linecap="butt" stroke-linejoin="bevel" stroke-miterlimit="10"></path></g><path d="M 1 0 A 1 1 0 1 1 1 -0.0001" fill="#fff" fill-opacity="1" stroke="#5470c6" stroke-width="1" paint-order="fill" stroke-opacity="1" stroke-dasharray="" stroke-linecap="butt" stroke-miterlimit="10" transform="matrix(2,0,0,2,187.5,430)"></path><path d="M 1 0 A 1 1 0 1 1 1 -0.0001" fill="#fff" fill-opacity="1" stroke="#5470c6" stroke-width="1" paint-order="fill" stroke-opacity="1" stroke-dasharray="" stroke-linecap="butt" stroke-miterlimit="10" transform="matrix(2,0,0,2,262.5,306.6667)"></path><path d="M 1 0 A 1 1 0 1 1 1 -0.0001" fill="#fff" fill-opacity="1" stroke="#5470c6" stroke-width="1" paint-order="fill" stroke-opacity="1" stroke-dasharray="" stroke-linecap="butt" stroke-miterlimit="10" transform="matrix(2,0,0,2,337.5,183.3333)"></path><path d="M 1 0 A 1 1 0 1 1 1 -0.0001" fill="#fff" fill-opacity="1" stroke="#91cc75" stroke-width="1" paint-order="fill" stroke-opacity="1" stroke-dasharray="" stroke-linecap="butt" stroke-miterlimit="10" transform="matrix(2,0,0,2,187.5,306.6667)"></path><path d="M 1 0 A 1 1 0 1 1 1 -0.0001" fill="#fff" fill-opacity="1" stroke="#91cc75" stroke-width="1" paint-order="fill" stroke-opacity="1" stroke-dasharray="" stroke-linecap="butt" stroke-miterlimit="10" transform="matrix(2,0,0,2,262.5,60)"></path><path d="M 1 0 A 1 1 0 1 1 1 -0.0001" fill="#fff" fill-opacity="1" stroke="#91cc75" stroke-width="1" paint-order="fill" stroke-opacity="1" stroke-dasharray="" stroke-linecap="butt" stroke-miterlimit="10" transform="matrix(2,0,0,2,412.5,60)"></path><path d="M -5 -5 L 195.7168 -5 L 195.7168 18.2 L -5 18.2 L -5 -5" fill="rgba(0,0,0,0)" fill-opacity="1" stroke="#ccc" stroke-width="0" paint-order="fill" stroke-opacity="1" stroke-dasharray="" stroke-linecap="butt" stroke-miterlimit="10" transform="matrix(1,0,0,1,154.6416,5)"></path><path d="M 0 7 L 25 7" fill="#000" fill-opacity="1" stroke="#5470c6" stroke-width="2" paint-order="fill" stroke-opacity="1" stroke-dasharray="" transform="matrix(1,0,0,1,155.6416,4.6)"></path><path d="M 18.1 7 A 5.6 5.6 0 1 1 18.1 6.9994" fill="#fff" fill-opacity="1" stroke="#5470c6" stroke-width="2" paint-order="fill" stroke-opacity="1" stroke-dasharray="" transform="matrix(1,0,0,1,155.6416,4.6)"></path><text xml:space="preserve" style="font: sans-serif 12px normal normal normal 12px;" fill="#333" fill-opacity="1" stroke="none" transform="matrix(1,0,0,1,155.6416,4.6)" dominant-baseline="central" text-anchor="start" x="30" y="7">movement</text><path d="M 0 7 L 25 7" fill="#000" fill-opacity="1" stroke="#91cc75" stroke-width="2" paint-order="fill" stroke-opacity="1" stroke-dasharray="" transform="matrix(1,0,0,1,252.6631,4.6)"></path><path d="M 18.1 7 A 5.6 5.6 0 1 1 18.1 6.9994" fill="#fff" fill-opacity="1" stroke="#91cc75" stroke-width="2" paint-order="fill" stroke-opacity="1" stroke-dasharray="" transform="matrix(1,0,0,1,252.6631,4.6)"></path><text xml:space="preserve" style="font: sans-serif 12px normal normal normal 12px;" fill="#333" fill-opacity="1" stroke="none" transform="matrix(1,0,0,1,252.6631,4.6)" dominant-baseline="central" text-anchor="start" x="30" y="7">movement1</text><path d="M -5 -5 L 114.7051 -5 L 114.7051 23 L -5 23 L -5 -5" fill="rgba(0,0,0,0)" fill-opacity="1" stroke="#ccc" stroke-width="0" paint-order="fill" stroke-opacity="1" stroke-dasharray="" stroke-linecap="butt" stroke-miterlimit="10" transform="matrix(1,0,0,1,5,5)"></path><text xml:space="preserve" style="font: sans-serif 18px normal normal bold 18px;" fill="#464646" fill-opacity="1" stroke="none" transform="matrix(1,0,0,1,5,5)" dominant-baseline="central" text-anchor="start" x="0" y="9">ECharts Test</text></g></svg>