<svg xmlns="http://www.w3.org/2000/svg" xmlns:xlink="http://www.w3.org/1999/xlink" version="1.1" baseProfile="full" style="user-select: none; position: absolute; left: 0px; top: 0px;" width="500" height="500"><g><rect width="500" height="500" x="0" y="0" id="0" style="fill: transparent;"></rect></g><g><defs><clipPath id="zr2323-clip-0"><path d="M 49 59 L 451 59 L 451 431 L 49 431 L 49 59" fill="#000" fill-opacity="1" stroke="none"></path></clipPath></defs><path d="M 50 430.5 L 450 430.5" fill="none" stroke="#E0E6F1" stroke-width="1" paint-order="fill" stroke-opacity="1" stroke-dasharray="" stroke-linecap="butt" stroke-miterlimit="10"></path><path d="M 50 377.5 L 450 377.5" fill="none" stroke="#E0E6F1" stroke-width="1" paint-order="fill" stroke-opacity="1" stroke-dasharray="" stroke-linecap="butt" stroke-miterlimit="10"></path><path d="M 50 324.5 L 450 324.5" fill="none" stroke="#E0E6F1" stroke-width="1" paint-order="fill" stroke-opacity="1" stroke-dasharray="" stroke-linecap="butt" stroke-miterlimit="10"></path><path d="M 50 271.5 L 450 271.5" fill="none" stroke="#E0E6F1" stroke-width="1" paint-order="fill" stroke-opacity="1" stroke-dasharray="" stroke-linecap="butt" stroke-miterlimit="10"></path><path d="M 50 218.5 L 450 218.5" fill="none" stroke="#E0E6F1" stroke-width="1" paint-order="fill" stroke-opacity="1" stroke-dasharray="" stroke-linecap="butt" stroke-miterlimit="10"></path><path d="M 50 165.5 L 450 165.5" fill="none" stroke="#E0E6F1" stroke-width="1" paint-order="fill" stroke-opacity="1" stroke-dasharray="" stroke-linecap="butt" stroke-miterlimit="10"></path><path d="M 50 113.5 L 450 113.5" fill="none" stroke="#E0E6F1" stroke-width="1" paint-order="fill" stroke-opacity="1" stroke-dasharray="" stroke-linecap="butt" stroke-miterlimit="10"></path><path d="M 50 60.5 L 450 60.5" fill="none" stroke="#E0E6F1" stroke-width="1" paint-order="fill" stroke-opacity="1" stroke-dasharray="" stroke-linecap="butt" stroke-miterlimit="10"></path><path d="M 50 218.5 L 450 218.5" fill="none" stroke="#6E7079" stroke-width="1" paint-order="fill" stroke-opacity="1" stroke-dasharray="" stroke-linecap="round" stroke-miterlimit="10"></path><path d="M 50.5 218.5714 L 50.5 223.5714" fill="none" stroke="#6E7079" stroke-width="1" paint-order="fill" stroke-opacity="1" stroke-dasharray="" stroke-linecap="butt" stroke-miterlimit="10"></path><path d="M 130.5 218.5714 L 130.5 223.5714" fill="none" stroke="#6E7079" stroke-width="1" paint-order="fill" stroke-opacity="1" stroke-dasharray="" stroke-linecap="butt" stroke-miterlimit="10"></path><path d="M 211.5 218.5714 L 211.5 223.5714" fill="none" stroke="#6E7079" stroke-width="1" paint-order="fill" stroke-opacity="1" stroke-dasharray="" stroke-linecap="butt" stroke-miterlimit="10"></path><path d="M 291.5 218.5714 L 291.5 223.5714" fill="none" stroke="#6E7079" stroke-width="1" paint-order="fill" stroke-opacity="1" stroke-dasharray="" stroke-linecap="butt" stroke-miterlimit="10"></path><path d="M 371.5 218.5714 L 371.5 223.5714" fill="none" stroke="#6E7079" stroke-width="1" paint-order="fill" stroke-opacity="1" stroke-dasharray="" stroke-linecap="butt" stroke-miterlimit="10"></path><path d="M 450.5 218.5714 L 450.5 223.5714" fill="none" stroke="#6E7079" stroke-width="1" paint-order="fill" stroke-opacity="1" stroke-dasharray="" stroke-linecap="butt" stroke-miterlimit="10"></path><text xml:space="preserve" style="font: sans-serif 12px normal normal normal 12px;" fill="#6E7079" fill-opacity="1" stroke="none" transform="matrix(1,0,0,1,42,430)" dominant-baseline="central" text-anchor="end" x="0" y="0">-0.2</text><text xml:space="preserve" style="font: sans-serif 12px normal normal normal 12px;" fill="#6E7079" fill-opacity="1" stroke="none" transform="matrix(1,0,0,1,42,377.1429)" dominant-baseline="central" text-anchor="end" x="0" y="0">-0.15</text><text xml:space="preserve" style="font: sans-serif 12px normal normal normal 12px;" fill="#6E7079" fill-opacity="1" stroke="none" transform="matrix(1,0,0,1,42,324.2857)" dominant-baseline="central" text-anchor="end" x="0" y="0">-0.1</text><text xml:space="preserve" style="font: sans-serif 12px normal normal normal 12px;" fill="#6E7079" fill-opacity="1" stroke="none" transform="matrix(1,0,0,1,42,271.4286)" dominant-baseline="central" text-anchor="end" x="0" y="0">-0.05</text><text xml:space="preserve" style="font: sans-serif 12px normal normal normal 12px;" fill="#6E7079" fill-opacity="1" stroke="none" transform="matrix(1,0,0,1,42,218.5714)" dominant-baseline="central" text-anchor="end" x="0" y="0">0</text><text xml:space="preserve" style="font: sans-serif 12px normal normal normal 12px;" fill="#6E7079" fill-opacity="1" stroke="none" transform="matrix(1,0,0,1,42,165.7143)" dominant-baseline="central" text-anchor="end" x="0" y="0">0.05</text><text xml:space="preserve" style="font: sans-serif 12px normal normal normal 12px;" fill="#6E7079" fill-opacity="1" stroke="none" transform="matrix(1,0,0,1,42,112.8571)" dominant-baseline="central" text-anchor="end" x="0" y="0">0.1</text><text xml:space="preserve" style="font: sans-serif 12px normal normal normal 12px;" fill="#6E7079" fill-opacity="1" stroke="none" transform="matrix(1,0,0,1,42,60)" dominant-baseline="central" text-anchor="end" x="0" y="0">0.15</text><text xml:space="preserve" style="font: sans-serif 12px normal normal normal 12px;" fill="#6E7079" fill-opacity="1" stroke="none" transform="matrix(1,0,0,1,50.4843,438)" dominant-baseline="central" text-anchor="middle" x="0" y="6">2019-10-29</text><text xml:space="preserve" style="font: sans-serif 12px normal normal normal 12px;" fill="#6E7079" fill-opacity="1" stroke="none" transform="matrix(1,0,0,1,130.8717,438)" dominant-baseline="central" text-anchor="middle" x="0" y="6">2020-01-20</text><text xml:space="preserve" style="font: sans-serif 12px normal normal normal 12px;" fill="#6E7079" fill-opacity="1" stroke="none" transform="matrix(1,0,0,1,211.2591,438)" dominant-baseline="central" text-anchor="middle" x="0" y="6">2020-04-12</text><text xml:space="preserve" style="font: sans-serif 12px normal normal normal 12px;" fill="#6E7079" fill-opacity="1" stroke="none" transform="matrix(1,0,0,1,291.6465,438)" dominant-baseline="central" text-anchor="middle" x="0" y="6">2020-07-04</text><text xml:space="preserve" style="font: sans-serif 12px normal normal normal 12px;" fill="#6E7079" fill-opacity="1" stroke="none" transform="matrix(1,0,0,1,372.0339,438)" dominant-baseline="central" text-anchor="middle" x="0" y="6">2020-09-25</text><g clip-path="url(#zr2323-clip-0)"><path d="M 50.4843 218.5714 L 51.4528 218.5714 L 51.4528 207.26 L 51.4528 218.5714 L 51.4528 207.26 L 52.4213 207.26 L 52.4213 218.5714 L 52.4213 207.26 L 52.4213 195.9486 L 53.3898 207.26 L 53.3898 195.9486 L 53.3898 207.26 L 53.3898 218.5714 L 53.3898 207.26 L 54.3584 207.26 L 54.3584 218.5714 L 54.3584 229.8829 L 54.3584 218.5714 L 55.3269 218.5714 L 55.3269 207.26 L 55.3269 218.5714 L 55.3269 207.26 L 56.2954 218.5714 L 57.2639 218.5714 L 57.2639 207.26 L 57.2639 218.5714 L 58.2324 218.5714 L 59.201 218.5714 L 59.201 229.8829 L 59.201 218.5714 L 60.1695 218.5714 L 61.138 218.5714 L 61.138 229.8829 L 61.138 218.5714 L 62.1065 229.8829 L 62.1065 218.5714 L 62.1065 229.8829 L 62.1065 218.5714 L 63.0751 218.5714 L 63.0751 207.26 L 63.0751 218.5714 L 63.0751 229.8829 L 64.0436 218.5714 L 64.0436 229.8829 L 65.0121 229.8829 L 65.0121 241.1943 L 65.0121 229.8829 L 65.0121 241.1943 L 65.9806 241.1943 L 65.9806 229.8829 L 65.9806 241.1943 L 65.9806 229.8829 L 66.9492 229.8829 L 66.9492 241.1943 L 66.9492 229.8829 L 66.9492 241.1943 L 67.9177 241.1943 L 67.9177 229.8829 L 67.9177 241.1943 L 67.9177 229.8829 L 68.8862 229.8829 L 68.8862 241.1943 L 68.8862 252.5057 L 68.8862 241.1943 L 69.8547 252.5057 L 69.8547 241.1943 L 70.8232 241.1943 L 70.8232 252.5057 L 70.8232 263.8171 L 70.8232 252.5057 L 70.8232 241.1943 L 70.8232 252.5057 L 71.7918 252.5057 L 71.7918 241.1943 L 71.7918 252.5057 L 72.7603 241.1943 L 72.7603 252.5057 L 72.7603 263.8171 L 73.7288 263.8171 L 73.7288 252.5057 L 73.7288 241.1943 L 73.7288 252.5057 L 74.6973 252.5057 L 74.6973 263.8171 L 74.6973 252.5057 L 74.6973 263.8171 L 74.6973 252.5057 L 74.6973 263.8171 L 74.6973 252.5057 L 74.6973 241.1943 L 75.6659 252.5057 L 75.6659 241.1943 L 75.6659 252.5057 L 75.6659 263.8171 L 75.6659 252.5057 L 76.6344 252.5057 L 76.6344 263.8171 L 76.6344 252.5057 L 77.6029 252.5057 L 77.6029 241.1943 L 77.6029 252.5057 L 78.5714 252.5057 L 78.5714 263.8171 L 78.5714 252.5057 L 78.5714 263.8171 L 78.5714 252.5057 L 78.5714 263.8171 L 78.5714 252.5057 L 79.54 252.5057 L 79.54 241.1943 L 79.54 252.5057 L 79.54 241.1943 L 79.54 252.5057 L 79.54 241.1943 L 80.5085 241.1943 L 80.5085 252.5057 L 80.5085 241.1943 L 81.477 241.1943 L 81.477 229.8829 L 82.4455 229.8829 L 82.4455 241.1943 L 82.4455 252.5057 L 83.414 252.5057 L 83.414 241.1943 L 83.414 229.8829 L 83.414 241.1943 L 84.3826 241.1943 L 84.3826 252.5057 L 84.3826 241.1943 L 84.3826 252.5057 L 84.3826 263.8171 L 85.3511 263.8171 L 85.3511 275.1286 L 85.3511 263.8171 L 86.3196 263.8171 L 86.3196 275.1286 L 86.3196 286.44 L 86.3196 275.1286 L 87.2881 275.1286 L 87.2881 286.44 L 87.2881 275.1286 L 87.2881 286.44 L 87.2881 275.1286 L 88.2567 275.1286 L 88.2567 263.8171 L 88.2567 252.5057 L 88.2567 263.8171 L 89.2252 263.8171 L 89.2252 252.5057 L 89.2252 263.8171 L 90.1937 263.8171 L 90.1937 275.1286 L 90.1937 263.8171 L 90.1937 275.1286 L 90.1937 263.8171 L 91.1622 263.8171 L 91.1622 252.5057 L 91.1622 263.8171 L 91.1622 252.5057 L 91.1622 263.8171 L 91.1622 252.5057 L 92.1308 252.5057 L 92.1308 263.8171 L 93.0993 263.8171 L 93.0993 252.5057 L 93.0993 263.8171 L 93.0993 252.5057 L 93.0993 263.8171 L 93.0993 252.5057 L 93.0993 263.8171 L 94.0678 263.8171 L 94.0678 275.1286 L 95.0363 275.1286 L 96.0048 275.1286 L 96.0048 286.44 L 96.0048 297.7514 L 96.9734 297.7514 L 96.9734 286.44 L 96.9734 297.7514 L 96.9734 286.44 L 96.9734 297.7514 L 96.9734 286.44 L 96.9734 297.7514 L 97.9419 297.7514 L 97.9419 309.0629 L 97.9419 297.7514 L 97.9419 309.0629 L 97.9419 297.7514 L 98.9104 297.7514 L 98.9104 309.0629 L 98.9104 320.3743 L 98.9104 309.0629 L 99.8789 309.0629 L 100.8475 320.3743 L 101.816 320.3743 L 102.7845 320.3743 L 103.753 320.3743 L 103.753 331.6857 L 104.7215 331.6857 L 104.7215 342.9971 L 104.7215 331.6857 L 104.7215 320.3743 L 105.6901 320.3743 L 105.6901 331.6857 L 105.6901 342.9971 L 105.6901 331.6857 L 106.6586 320.3743 L 106.6586 331.6857 L 106.6586 320.3743 L 106.6586 331.6857 L 106.6586 320.3743 L 106.6586 331.6857 L 107.6271 331.6857 L 107.6271 320.3743 L 107.6271 331.6857 L 108.5956 331.6857 L 108.5956 320.3743 L 108.5956 331.6857 L 109.5642 331.6857 L 109.5642 342.9971 L 110.5327 342.9971 L 110.5327 331.6857 L 111.5012 331.6857 L 111.5012 320.3743 L 112.4697 331.6857 L 113.4383 331.6857 L 113.4383 320.3743 L 114.4068 320.3743 L 115.3753 320.3743 L 115.3753 331.6857 L 115.3753 320.3743 L 115.3753 331.6857 L 116.3438 331.6857 L 116.3438 342.9971 L 117.3123 342.9971 L 117.3123 331.6857 L 118.2809 331.6857 L 118.2809 342.9971 L 118.2809 331.6857 L 119.2494 331.6857 L 119.2494 342.9971 L 119.2494 354.3086 L 120.2179 354.3086 L 121.1864 354.3086 L 121.1864 365.62 L 121.1864 354.3086 L 121.1864 342.9971 L 122.155 342.9971 L 122.155 331.6857 L 123.1235 331.6857 L 123.1235 342.9971 L 123.1235 331.6857 L 123.1235 342.9971 L 123.1235 354.3086 L 123.1235 342.9971 L 124.092 342.9971 L 124.092 331.6857 L 124.092 342.9971 L 124.092 331.6857 L 124.092 342.9971 L 124.092 331.6857 L 125.0605 331.6857 L 125.0605 342.9971 L 125.0605 331.6857 L 125.0605 342.9971 L 126.0291 342.9971 L 126.0291 354.3086 L 126.0291 342.9971 L 126.9976 331.6857 L 126.9976 320.3743 L 126.9976 331.6857 L 127.9661 331.6857 L 127.9661 342.9971 L 127.9661 331.6857 L 127.9661 342.9971 L 128.9346 342.9971 L 128.9346 331.6857 L 128.9346 342.9971 L 128.9346 331.6857 L 128.9346 320.3743 L 129.9032 320.3743 L 129.9032 331.6857 L 129.9032 320.3743 L 129.9032 331.6857 L 130.8717 331.6857 L 130.8717 320.3743 L 130.8717 331.6857 L 130.8717 342.9971 L 130.8717 331.6857 L 130.8717 342.9971 L 131.8402 342.9971 L 131.8402 331.6857 L 131.8402 342.9971 L 131.8402 331.6857 L 131.8402 342.9971 L 131.8402 331.6857 L 131.8402 354.3086 L 132.8087 342.9971 L 132.8087 354.3086 L 132.8087 365.62 L 132.8087 354.3086 L 133.7772 354.3086 L 133.7772 342.9971 L 133.7772 354.3086 L 134.7458 354.3086 L 134.7458 342.9971 L 135.7143 342.9971 L 135.7143 331.6857 L 136.6828 331.6857 L 136.6828 342.9971 L 137.6513 342.9971 L 138.6199 342.9971 L 138.6199 354.3086 L 139.5884 354.3086 L 139.5884 342.9971 L 139.5884 354.3086 L 140.5569 354.3086 L 140.5569 342.9971 L 141.5254 342.9971 L 141.5254 354.3086 L 141.5254 342.9971 L 141.5254 354.3086 L 142.4939 354.3086 L 142.4939 365.62 L 142.4939 354.3086 L 143.4625 354.3086 L 143.4625 342.9971 L 143.4625 354.3086 L 143.4625 365.62 L 143.4625 354.3086 L 143.4625 342.9971 L 144.431 342.9971 L 144.431 331.6857 L 144.431 342.9971 L 144.431 354.3086 L 144.431 365.62 L 144.431 376.9314 L 144.431 365.62 L 145.3995 354.3086 L 145.3995 342.9971 L 146.368 342.9971 L 146.368 354.3086 L 147.3366 354.3086 L 148.3051 354.3086 L 148.3051 342.9971 L 148.3051 354.3086 L 148.3051 342.9971 L 149.2736 342.9971 L 149.2736 354.3086 L 149.2736 365.62 L 149.2736 376.9314 L 149.2736 365.62 L 149.2736 354.3086 L 150.2421 354.3086 L 150.2421 365.62 L 150.2421 354.3086 L 151.2106 354.3086 L 151.2106 342.9971 L 151.2106 354.3086 L 151.2106 365.62 L 151.2106 354.3086 L 152.1792 354.3086 L 152.1792 365.62 L 152.1792 354.3086 L 153.1477 354.3086 L 153.1477 342.9971 L 153.1477 354.3086 L 153.1477 365.62 L 153.1477 376.9314 L 153.1477 365.62 L 153.1477 342.9971 L 153.1477 331.6857 L 154.1162 331.6857 L 154.1162 342.9971 L 154.1162 354.3086 L 154.1162 365.62 L 154.1162 376.9314 L 154.1162 365.62 L 154.1162 354.3086 L 155.0847 354.3086 L 155.0847 365.62 L 155.0847 376.9314 L 155.0847 365.62 L 155.0847 354.3086 L 156.0533 354.3086 L 156.0533 365.62 L 156.0533 376.9314 L 156.0533 388.2429 L 156.0533 376.9314 L 156.0533 365.62 L 157.0218 365.62 L 157.0218 376.9314 L 157.0218 365.62 L 157.0218 354.3086 L 157.9903 354.3086 L 157.9903 365.62 L 157.9903 388.2429 L 157.9903 365.62 L 157.9903 354.3086 L 157.9903 342.9971 L 158.9588 342.9971 L 158.9588 354.3086 L 158.9588 365.62 L 159.9274 365.62 L 159.9274 376.9314 L 159.9274 365.62 L 160.8959 354.3086 L 160.8959 365.62 L 160.8959 354.3086 L 160.8959 342.9971 L 160.8959 354.3086 L 160.8959 365.62 L 160.8959 354.3086 L 160.8959 342.9971 L 160.8959 354.3086 L 161.8644 354.3086 L 161.8644 342.9971 L 161.8644 354.3086 L 161.8644 342.9971 L 162.8329 342.9971 L 162.8329 354.3086 L 162.8329 342.9971 L 163.8015 342.9971 L 163.8015 354.3086 L 163.8015 342.9971 L 163.8015 354.3086 L 163.8015 342.9971 L 164.77 342.9971 L 164.77 331.6857 L 164.77 342.9971 L 164.77 354.3086 L 164.77 365.62 L 164.77 354.3086 L 164.77 342.9971 L 165.7385 342.9971 L 165.7385 331.6857 L 165.7385 342.9971 L 165.7385 354.3086 L 165.7385 376.9314 L 165.7385 354.3086 L 165.7385 342.9971 L 165.7385 331.6857 L 166.707 331.6857 L 166.707 320.3743 L 166.707 331.6857 L 166.707 342.9971 L 166.707 354.3086 L 166.707 342.9971 L 167.6756 342.9971 L 167.6756 331.6857 L 167.6756 342.9971 L 167.6756 331.6857 L 167.6756 342.9971 L 167.6756 365.62 L 167.6756 376.9314 L 167.6756 388.2429 L 167.6756 376.9314 L 167.6756 365.62 L 167.6756 354.3086 L 167.6756 342.9971 L 168.6441 342.9971 L 168.6441 331.6857 L 168.6441 342.9971 L 168.6441 354.3086 L 168.6441 365.62 L 168.6441 376.9314 L 168.6441 388.2429 L 168.6441 376.9314 L 168.6441 365.62 L 168.6441 354.3086 L 168.6441 342.9971 L 169.6126 342.9971 L 169.6126 354.3086 L 169.6126 365.62 L 169.6126 376.9314 L 169.6126 365.62 L 169.6126 342.9971 L 169.6126 331.6857 L 170.5811 331.6857 L 170.5811 342.9971 L 170.5811 354.3086 L 170.5811 342.9971 L 170.5811 331.6857 L 171.5496 331.6857 L 171.5496 342.9971 L 171.5496 354.3086 L 171.5496 365.62 L 171.5496 354.3086 L 171.5496 342.9971 L 172.5182 342.9971 L 172.5182 354.3086 L 172.5182 365.62 L 172.5182 376.9314 L 172.5182 388.2429 L 172.5182 376.9314 L 172.5182 365.62 L 172.5182 354.3086 L 172.5182 342.9971 L 173.4867 342.9971 L 173.4867 354.3086 L 173.4867 365.62 L 173.4867 376.9314 L 173.4867 388.2429 L 173.4867 376.9314 L 173.4867 354.3086 L 174.4552 354.3086 L 174.4552 365.62 L 174.4552 376.9314 L 174.4552 388.2429 L 174.4552 376.9314 L 174.4552 365.62 L 174.4552 342.9971 L 175.4237 342.9971 L 175.4237 331.6857 L 175.4237 342.9971 L 175.4237 354.3086 L 175.4237 365.62 L 175.4237 376.9314 L 175.4237 365.62 L 175.4237 354.3086 L 175.4237 331.6857 L 176.3923 331.6857 L 176.3923 342.9971 L 176.3923 354.3086 L 176.3923 342.9971 L 176.3923 331.6857 L 177.3608 331.6857 L 177.3608 342.9971 L 177.3608 354.3086 L 177.3608 376.9314 L 177.3608 354.3086 L 177.3608 342.9971 L 177.3608 320.3743 L 178.3293 320.3743 L 178.3293 331.6857 L 178.3293 342.9971 L 179.2978 331.6857 L 179.2978 342.9971 L 180.2663 342.9971 L 180.2663 354.3086 L 180.2663 365.62 L 180.2663 376.9314 L 180.2663 365.62 L 180.2663 354.3086 L 180.2663 331.6857 L 180.2663 320.3743 L 181.2349 320.3743 L 181.2349 331.6857 L 181.2349 342.9971 L 181.2349 365.62 L 181.2349 376.9314 L 181.2349 388.2429 L 181.2349 365.62 L 181.2349 342.9971 L 181.2349 331.6857 L 182.2034 331.6857 L 182.2034 342.9971 L 182.2034 354.3086 L 182.2034 365.62 L 182.2034 388.2429 L 182.2034 365.62 L 182.2034 342.9971 L 183.1719 342.9971 L 183.1719 354.3086 L 183.1719 342.9971 L 183.1719 331.6857 L 184.1404 331.6857 L 184.1404 320.3743 L 184.1404 331.6857 L 184.1404 342.9971 L 184.1404 354.3086 L 184.1404 331.6857 L 184.1404 320.3743 L 184.1404 309.0629 L 184.1404 297.7514 L 185.109 297.7514 L 185.109 309.0629 L 185.109 320.3743 L 185.109 331.6857 L 185.109 342.9971 L 185.109 354.3086 L 185.109 331.6857 L 186.0775 331.6857 L 186.0775 320.3743 L 186.0775 331.6857 L 186.0775 342.9971 L 186.0775 365.62 L 186.0775 376.9314 L 186.0775 365.62 L 186.0775 354.3086 L 186.0775 342.9971 L 186.0775 320.3743 L 186.0775 309.0629 L 186.0775 297.7514 L 187.046 297.7514 L 187.046 309.0629 L 187.046 297.7514 L 187.046 309.0629 L 187.046 320.3743 L 188.0145 320.3743 L 188.0145 331.6857 L 188.0145 320.3743 L 188.983 320.3743 L 188.983 309.0629 L 189.9516 309.0629 L 189.9516 320.3743 L 189.9516 309.0629 L 189.9516 320.3743 L 189.9516 331.6857 L 189.9516 320.3743 L 189.9516 331.6857 L 189.9516 309.0629 L 189.9516 297.7514 L 190.9201 297.7514 L 190.9201 309.0629 L 190.9201 297.7514 L 190.9201 286.44 L 190.9201 297.7514 L 190.9201 309.0629 L 190.9201 286.44 L 190.9201 275.1286 L 191.8886 275.1286 L 191.8886 286.44 L 191.8886 297.7514 L 191.8886 309.0629 L 191.8886 320.3743 L 191.8886 309.0629 L 191.8886 297.7514 L 192.8571 297.7514 L 192.8571 309.0629 L 192.8571 320.3743 L 192.8571 309.0629 L 192.8571 297.7514 L 193.8257 297.7514 L 193.8257 309.0629 L 193.8257 297.7514 L 193.8257 309.0629 L 193.8257 297.7514 L 193.8257 286.44 L 194.7942 286.44 L 194.7942 297.7514 L 194.7942 309.0629 L 194.7942 297.7514 L 194.7942 286.44 L 195.7627 286.44 L 195.7627 297.7514 L 195.7627 309.0629 L 195.7627 320.3743 L 195.7627 331.6857 L 195.7627 342.9971 L 195.7627 331.6857 L 195.7627 309.0629 L 195.7627 286.44 L 196.7312 275.1286 L 196.7312 286.44 L 196.7312 275.1286 L 196.7312 286.44 L 196.7312 297.7514 L 196.7312 309.0629 L 196.7312 297.7514 L 197.6998 297.7514 L 197.6998 286.44 L 197.6998 297.7514 L 197.6998 309.0629 L 197.6998 320.3743 L 197.6998 342.9971 L 197.6998 354.3086 L 197.6998 365.62 L 197.6998 354.3086 L 197.6998 331.6857 L 197.6998 309.0629 L 197.6998 297.7514 L 197.6998 275.1286 L 198.6683 275.1286 L 198.6683 286.44 L 198.6683 297.7514 L 198.6683 309.0629 L 198.6683 320.3743 L 198.6683 309.0629 L 198.6683 297.7514 L 198.6683 275.1286 L 199.6368 275.1286 L 199.6368 286.44 L 199.6368 275.1286 L 199.6368 286.44 L 199.6368 297.7514 L 199.6368 309.0629 L 199.6368 320.3743 L 199.6368 309.0629 L 199.6368 297.7514 L 199.6368 286.44 L 199.6368 275.1286 L 200.6053 275.1286 L 200.6053 263.8171 L 200.6053 275.1286 L 200.6053 286.44 L 200.6053 309.0629 L 200.6053 320.3743 L 200.6053 309.0629 L 200.6053 286.44 L 200.6053 275.1286 L 200.6053 263.8171 L 201.5739 263.8171 L 201.5739 275.1286 L 201.5739 286.44 L 201.5739 297.7514 L 201.5739 286.44 L 201.5739 275.1286 L 201.5739 263.8171 L 202.5424 263.8171 L 202.5424 275.1286 L 202.5424 286.44 L 202.5424 297.7514 L 202.5424 309.0629 L 202.5424 297.7514 L 202.5424 286.44 L 202.5424 263.8171 L 202.5424 252.5057 L 203.5109 252.5057 L 203.5109 263.8171 L 203.5109 275.1286 L 203.5109 286.44 L 203.5109 297.7514 L 203.5109 309.0629 L 203.5109 297.7514 L 203.5109 275.1286 L 203.5109 263.8171 L 204.4794 252.5057 L 204.4794 263.8171 L 204.4794 275.1286 L 204.4794 286.44 L 204.4794 275.1286 L 204.4794 286.44 L 204.4794 297.7514 L 204.4794 275.1286 L 204.4794 263.8171 L 205.4479 263.8171 L 205.4479 252.5057 L 205.4479 263.8171 L 205.4479 275.1286 L 205.4479 263.8171 L 205.4479 252.5057 L 206.4165 252.5057 L 206.4165 241.1943 L 206.4165 252.5057 L 206.4165 263.8171 L 206.4165 252.5057 L 206.4165 263.8171 L 206.4165 275.1286 L 206.4165 286.44 L 206.4165 275.1286 L 206.4165 263.8171 L 206.4165 252.5057 L 206.4165 241.1943 L 207.385 241.1943 L 207.385 252.5057 L 207.385 263.8171 L 207.385 275.1286 L 207.385 286.44 L 207.385 297.7514 L 207.385 286.44 L 207.385 275.1286 L 207.385 263.8171 L 207.385 252.5057 L 207.385 241.1943 L 208.3535 229.8829 L 208.3535 241.1943 L 208.3535 252.5057 L 208.3535 263.8171 L 208.3535 275.1286 L 208.3535 286.44 L 208.3535 263.8171 L 208.3535 252.5057 L 209.322 252.5057 L 209.322 241.1943 L 209.322 252.5057 L 209.322 263.8171 L 209.322 275.1286 L 209.322 286.44 L 209.322 275.1286 L 209.322 263.8171 L 209.322 252.5057 L 210.2906 252.5057 L 210.2906 241.1943 L 210.2906 252.5057 L 210.2906 263.8171 L 210.2906 275.1286 L 210.2906 297.7514 L 210.2906 286.44 L 210.2906 275.1286 L 210.2906 252.5057 L 210.2906 241.1943 L 211.2591 241.1943 L 211.2591 252.5057 L 211.2591 263.8171 L 211.2591 275.1286 L 211.2591 286.44 L 211.2591 263.8171 L 211.2591 252.5057 L 211.2591 241.1943 L 211.2591 229.8829 L 212.2276 229.8829 L 212.2276 241.1943 L 212.2276 252.5057 L 212.2276 263.8171 L 212.2276 252.5057 L 212.2276 241.1943 L 213.1961 241.1943 L 213.1961 252.5057 L 213.1961 263.8171 L 213.1961 275.1286 L 213.1961 263.8171 L 213.1961 252.5057 L 213.1961 241.1943 L 214.1646 241.1943 L 214.1646 229.8829 L 214.1646 241.1943 L 214.1646 252.5057 L 214.1646 263.8171 L 214.1646 275.1286 L 214.1646 263.8171 L 214.1646 229.8829 L 214.1646 218.5714 L 215.1332 218.5714 L 215.1332 229.8829 L 215.1332 218.5714 L 216.1017 218.5714 L 216.1017 229.8829 L 216.1017 241.1943 L 216.1017 252.5057 L 216.1017 241.1943 L 216.1017 229.8829 L 217.0702 229.8829 L 217.0702 241.1943 L 217.0702 229.8829 L 217.0702 218.5714 L 218.0387 218.5714 L 218.0387 229.8829 L 218.0387 241.1943 L 218.0387 252.5057 L 218.0387 263.8171 L 218.0387 252.5057 L 218.0387 241.1943 L 218.0387 229.8829 L 218.0387 218.5714 L 218.0387 207.26 L 219.0073 207.26 L 219.0073 218.5714 L 219.0073 229.8829 L 219.0073 241.1943 L 219.0073 252.5057 L 219.0073 241.1943 L 219.0073 229.8829 L 219.0073 218.5714 L 219.9758 229.8829 L 219.9758 241.1943 L 219.9758 252.5057 L 219.9758 263.8171 L 219.9758 252.5057 L 219.9758 241.1943 L 220.9443 241.1943 L 220.9443 252.5057 L 220.9443 263.8171 L 220.9443 275.1286 L 220.9443 263.8171 L 220.9443 252.5057 L 221.9128 252.5057 L 221.9128 241.1943 L 221.9128 252.5057 L 221.9128 263.8171 L 221.9128 275.1286 L 221.9128 286.44 L 221.9128 275.1286 L 221.9128 252.5057 L 221.9128 263.8171 L 221.9128 252.5057 L 221.9128 229.8829 L 222.8814 229.8829 L 222.8814 241.1943 L 222.8814 252.5057 L 222.8814 263.8171 L 222.8814 275.1286 L 222.8814 286.44 L 222.8814 275.1286 L 222.8814 252.5057 L 222.8814 241.1943 L 222.8814 229.8829 L 223.8499 218.5714 L 223.8499 229.8829 L 223.8499 241.1943 L 223.8499 252.5057 L 223.8499 275.1286 L 223.8499 286.44 L 223.8499 275.1286 L 223.8499 263.8171 L 223.8499 252.5057 L 223.8499 241.1943 L 223.8499 229.8829 L 224.8184 218.5714 L 224.8184 207.26 L 224.8184 218.5714 L 224.8184 229.8829 L 224.8184 241.1943 L 224.8184 252.5057 L 224.8184 263.8171 L 224.8184 252.5057 L 224.8184 241.1943 L 224.8184 229.8829 L 224.8184 207.26 L 225.7869 207.26 L 225.7869 218.5714 L 225.7869 229.8829 L 225.7869 241.1943 L 225.7869 252.5057 L 225.7869 241.1943 L 225.7869 229.8829 L 225.7869 218.5714 L 225.7869 207.26 L 226.7554 195.9486 L 226.7554 207.26 L 226.7554 218.5714 L 226.7554 229.8829 L 226.7554 218.5714 L 226.7554 207.26 L 227.724 207.26 L 227.724 195.9486 L 227.724 207.26 L 227.724 218.5714 L 227.724 229.8829 L 227.724 252.5057 L 227.724 241.1943 L 227.724 229.8829 L 227.724 218.5714 L 228.6925 207.26 L 228.6925 195.9486 L 228.6925 207.26 L 228.6925 218.5714 L 228.6925 229.8829 L 228.6925 241.1943 L 228.6925 252.5057 L 228.6925 263.8171 L 228.6925 252.5057 L 228.6925 241.1943 L 228.6925 229.8829 L 228.6925 218.5714 L 228.6925 207.26 L 229.661 207.26 L 229.661 195.9486 L 229.661 207.26 L 229.661 218.5714 L 229.661 229.8829 L 229.661 241.1943 L 229.661 229.8829 L 229.661 218.5714 L 229.661 207.26 L 229.661 195.9486 L 230.6295 184.6371 L 230.6295 173.3257 L 230.6295 184.6371 L 230.6295 195.9486 L 230.6295 207.26 L 230.6295 218.5714 L 230.6295 207.26 L 230.6295 195.9486 L 231.5981 195.9486 L 231.5981 207.26 L 231.5981 218.5714 L 231.5981 229.8829 L 231.5981 241.1943 L 231.5981 252.5057 L 231.5981 241.1943 L 231.5981 229.8829 L 231.5981 218.5714 L 231.5981 207.26 L 231.5981 195.9486 L 232.5666 184.6371 L 232.5666 173.3257 L 232.5666 184.6371 L 232.5666 195.9486 L 232.5666 207.26 L 232.5666 218.5714 L 232.5666 229.8829 L 232.5666 207.26 L 232.5666 195.9486 L 232.5666 184.6371 L 233.5351 173.3257 L 233.5351 162.0143 L 233.5351 173.3257 L 233.5351 184.6371 L 233.5351 195.9486 L 233.5351 184.6371 L 234.5036 184.6371 L 234.5036 195.9486 L 234.5036 207.26 L 234.5036 195.9486 L 234.5036 207.26 L 234.5036 195.9486 L 234.5036 207.26 L 235.4722 195.9486 L 235.4722 184.6371 L 235.4722 195.9486 L 235.4722 207.26 L 235.4722 218.5714 L 235.4722 229.8829 L 235.4722 241.1943 L 235.4722 229.8829 L 235.4722 218.5714 L 235.4722 195.9486 L 235.4722 184.6371 L 236.4407 173.3257 L 236.4407 162.0143 L 236.4407 173.3257 L 236.4407 184.6371 L 236.4407 195.9486 L 236.4407 207.26 L 236.4407 218.5714 L 236.4407 207.26 L 236.4407 195.9486 L 236.4407 173.3257 L 236.4407 162.0143 L 237.4092 150.7029 L 237.4092 139.3914 L 237.4092 150.7029 L 237.4092 162.0143 L 237.4092 173.3257 L 237.4092 184.6371 L 237.4092 173.3257 L 237.4092 162.0143 L 237.4092 150.7029 L 238.3777 139.3914 L 238.3777 128.08 L 238.3777 139.3914 L 238.3777 150.7029 L 238.3777 162.0143 L 238.3777 173.3257 L 238.3777 184.6371 L 238.3777 162.0143 L 238.3777 150.7029 L 238.3777 139.3914 L 239.3463 128.08 L 239.3463 139.3914 L 239.3463 150.7029 L 239.3463 162.0143 L 239.3463 150.7029 L 239.3463 139.3914 L 240.3148 139.3914 L 240.3148 150.7029 L 240.3148 162.0143 L 240.3148 184.6371 L 240.3148 195.9486 L 240.3148 173.3257 L 240.3148 162.0143 L 240.3148 150.7029 L 241.2833 150.7029 L 241.2833 139.3914 L 241.2833 150.7029 L 241.2833 162.0143 L 241.2833 173.3257 L 241.2833 184.6371 L 241.2833 195.9486 L 241.2833 184.6371 L 241.2833 173.3257 L 241.2833 162.0143 L 241.2833 150.7029 L 242.2518 150.7029 L 242.2518 139.3914 L 242.2518 150.7029 L 242.2518 162.0143 L 242.2518 173.3257 L 243.2203 173.3257 L 243.2203 184.6371 L 243.2203 173.3257 L 244.1889 173.3257 L 244.1889 184.6371 L 244.1889 195.9486 L 244.1889 184.6371 L 244.1889 173.3257 L 245.1574 173.3257 L 245.1574 184.6371 L 245.1574 195.9486 L 245.1574 184.6371 L 246.1259 173.3257 L 246.1259 184.6371 L 246.1259 195.9486 L 246.1259 207.26 L 246.1259 184.6371 L 246.1259 173.3257 L 247.0944 173.3257 L 247.0944 184.6371 L 247.0944 195.9486 L 247.0944 207.26 L 247.0944 218.5714 L 247.0944 207.26 L 247.0944 195.9486 L 247.0944 173.3257 L 247.0944 162.0143 L 248.063 150.7029 L 248.063 139.3914 L 248.063 150.7029 L 248.063 162.0143 L 248.063 173.3257 L 248.063 184.6371 L 248.063 195.9486 L 248.063 184.6371 L 248.063 173.3257 L 248.063 162.0143 L 248.063 150.7029 L 249.0315 139.3914 L 249.0315 128.08 L 249.0315 116.7686 L 249.0315 128.08 L 249.0315 139.3914 L 249.0315 150.7029 L 249.0315 162.0143 L 249.0315 173.3257 L 249.0315 162.0143 L 249.0315 150.7029 L 249.0315 139.3914 L 250 128.08 L 250 116.7686 L 250 105.4571 L 250 116.7686 L 250 128.08 L 250 139.3914 L 250 150.7029 L 250 162.0143 L 250 173.3257 L 250 162.0143 L 250 150.7029 L 250 139.3914 L 250 128.08 L 250.9685 116.7686 L 250.9685 105.4571 L 250.9685 116.7686 L 250.9685 128.08 L 250.9685 139.3914 L 250.9685 150.7029 L 250.9685 162.0143 L 250.9685 150.7029 L 250.9685 139.3914 L 250.9685 128.08 L 250.9685 116.7686 L 251.937 116.7686 L 251.937 105.4571 L 251.937 94.1457 L 251.937 105.4571 L 251.937 116.7686 L 251.937 128.08 L 251.937 139.3914 L 251.937 150.7029 L 251.937 139.3914 L 251.937 128.08 L 251.937 116.7686 L 252.9056 105.4571 L 252.9056 94.1457 L 252.9056 105.4571 L 252.9056 116.7686 L 252.9056 128.08 L 252.9056 139.3914 L 252.9056 150.7029 L 252.9056 162.0143 L 252.9056 150.7029 L 252.9056 139.3914 L 252.9056 128.08 L 252.9056 116.7686 L 253.8741 105.4571 L 253.8741 94.1457 L 253.8741 105.4571 L 253.8741 116.7686 L 253.8741 128.08 L 253.8741 139.3914 L 253.8741 128.08 L 253.8741 116.7686 L 254.8426 105.4571 L 254.8426 94.1457 L 254.8426 105.4571 L 254.8426 116.7686 L 254.8426 128.08 L 254.8426 139.3914 L 254.8426 150.7029 L 254.8426 162.0143 L 254.8426 150.7029 L 254.8426 139.3914 L 254.8426 116.7686 L 254.8426 105.4571 L 255.8111 105.4571 L 255.8111 94.1457 L 255.8111 82.8343 L 255.8111 94.1457 L 255.8111 105.4571 L 255.8111 116.7686 L 255.8111 128.08 L 255.8111 116.7686 L 255.8111 105.4571 L 255.8111 94.1457 L 256.7797 94.1457 L 256.7797 82.8343 L 256.7797 94.1457 L 256.7797 105.4571 L 256.7797 116.7686 L 256.7797 128.08 L 256.7797 139.3914 L 256.7797 128.08 L 257.7482 116.7686 L 257.7482 105.4571 L 257.7482 94.1457 L 257.7482 105.4571 L 257.7482 116.7686 L 257.7482 128.08 L 257.7482 139.3914 L 257.7482 150.7029 L 257.7482 162.0143 L 257.7482 173.3257 L 257.7482 162.0143 L 257.7482 150.7029 L 257.7482 139.3914 L 257.7482 128.08 L 257.7482 116.7686 L 258.7167 105.4571 L 258.7167 94.1457 L 258.7167 105.4571 L 258.7167 116.7686 L 258.7167 128.08 L 258.7167 139.3914 L 258.7167 150.7029 L 258.7167 162.0143 L 258.7167 173.3257 L 258.7167 162.0143 L 258.7167 150.7029 L 258.7167 139.3914 L 258.7167 128.08 L 258.7167 116.7686 L 259.6852 105.4571 L 259.6852 94.1457 L 259.6852 105.4571 L 259.6852 116.7686 L 259.6852 128.08 L 259.6852 139.3914 L 259.6852 150.7029 L 259.6852 162.0143 L 259.6852 173.3257 L 259.6852 162.0143 L 259.6852 150.7029 L 259.6852 139.3914 L 259.6852 128.08 L 259.6852 116.7686 L 260.6537 116.7686 L 260.6537 105.4571 L 260.6537 94.1457 L 260.6537 105.4571 L 260.6537 94.1457 L 260.6537 105.4571 L 260.6537 116.7686 L 260.6537 128.08 L 260.6537 139.3914 L 260.6537 150.7029 L 260.6537 162.0143 L 260.6537 173.3257 L 260.6537 162.0143 L 260.6537 150.7029 L 260.6537 139.3914 L 260.6537 128.08 L 260.6537 116.7686 L 261.6223 105.4571 L 261.6223 94.1457 L 261.6223 82.8343 L 261.6223 94.1457 L 261.6223 105.4571 L 261.6223 116.7686 L 261.6223 128.08 L 261.6223 139.3914 L 261.6223 150.7029 L 261.6223 139.3914 L 261.6223 128.08 L 261.6223 116.7686 L 261.6223 105.4571 L 262.5908 94.1457 L 262.5908 82.8343 L 262.5908 94.1457 L 262.5908 105.4571 L 262.5908 116.7686 L 262.5908 128.08 L 262.5908 150.7029 L 262.5908 139.3914 L 262.5908 128.08 L 262.5908 116.7686 L 263.5593 105.4571 L 263.5593 94.1457 L 263.5593 105.4571 L 263.5593 116.7686 L 263.5593 128.08 L 263.5593 139.3914 L 263.5593 162.0143 L 263.5593 150.7029 L 263.5593 139.3914 L 263.5593 116.7686 L 263.5593 105.4571 L 264.5278 94.1457 L 264.5278 82.8343 L 264.5278 94.1457 L 264.5278 105.4571 L 264.5278 116.7686 L 264.5278 128.08 L 264.5278 116.7686 L 264.5278 128.08 L 264.5278 116.7686 L 264.5278 105.4571 L 265.4964 105.4571 L 265.4964 94.1457 L 265.4964 82.8343 L 265.4964 94.1457 L 265.4964 105.4571 L 265.4964 116.7686 L 265.4964 128.08 L 265.4964 139.3914 L 265.4964 150.7029 L 265.4964 162.0143 L 265.4964 150.7029 L 265.4964 139.3914 L 265.4964 128.08 L 265.4964 116.7686 L 265.4964 105.4571 L 266.4649 94.1457 L 266.4649 82.8343 L 266.4649 94.1457 L 266.4649 105.4571 L 266.4649 116.7686 L 266.4649 105.4571 L 266.4649 94.1457 L 267.4334 94.1457 L 267.4334 105.4571 L 267.4334 116.7686 L 267.4334 105.4571 L 267.4334 116.7686 L 267.4334 105.4571 L 268.4019 105.4571 L 268.4019 116.7686 L 268.4019 128.08 L 268.4019 139.3914 L 268.4019 128.08 L 268.4019 139.3914 L 268.4019 162.0143 L 268.4019 173.3257 L 268.4019 150.7029 L 268.4019 139.3914 L 268.4019 128.08 L 268.4019 116.7686 L 268.4019 105.4571 L 269.3705 105.4571 L 269.3705 94.1457 L 269.3705 82.8343 L 269.3705 94.1457 L 269.3705 105.4571 L 269.3705 116.7686 L 269.3705 128.08 L 269.3705 116.7686 L 269.3705 105.4571 L 269.3705 94.1457 L 270.339 82.8343 L 270.339 71.5229 L 270.339 82.8343 L 270.339 94.1457 L 270.339 105.4571 L 270.339 116.7686 L 270.339 128.08 L 270.339 139.3914 L 270.339 128.08 L 270.339 116.7686 L 270.339 105.4571 L 270.339 94.1457 L 271.3075 94.1457 L 271.3075 82.8343 L 271.3075 71.5229 L 271.3075 82.8343 L 271.3075 94.1457 L 271.3075 105.4571 L 271.3075 116.7686 L 271.3075 128.08 L 271.3075 116.7686 L 271.3075 139.3914 L 271.3075 116.7686 L 271.3075 105.4571 L 271.3075 94.1457 L 272.276 82.8343 L 272.276 71.5229 L 272.276 82.8343 L 272.276 94.1457 L 272.276 105.4571 L 272.276 116.7686 L 272.276 128.08 L 272.276 139.3914 L 272.276 128.08 L 272.276 105.4571 L 272.276 94.1457 L 272.276 82.8343 L 273.2445 71.5229 L 273.2445 60.2114 L 273.2445 71.5229 L 273.2445 82.8343 L 273.2445 94.1457 L 273.2445 105.4571 L 273.2445 116.7686 L 273.2445 128.08 L 273.2445 116.7686 L 273.2445 105.4571 L 273.2445 94.1457 L 273.2445 82.8343 L 274.2131 82.8343 L 274.2131 71.5229 L 274.2131 82.8343 L 274.2131 94.1457 L 274.2131 105.4571 L 274.2131 116.7686 L 274.2131 105.4571 L 274.2131 116.7686 L 275.1816 105.4571 L 275.1816 94.1457 L 275.1816 105.4571 L 275.1816 116.7686 L 275.1816 105.4571 L 275.1816 116.7686 L 275.1816 105.4571 L 275.1816 94.1457 L 276.1501 94.1457 L 276.1501 82.8343 L 276.1501 94.1457 L 276.1501 105.4571 L 276.1501 116.7686 L 276.1501 128.08 L 276.1501 116.7686 L 276.1501 105.4571 L 276.1501 94.1457 L 276.1501 82.8343 L 277.1187 71.5229 L 277.1187 60.2114 L 277.1187 71.5229 L 277.1187 82.8343 L 277.1187 94.1457 L 277.1187 105.4571 L 277.1187 94.1457 L 278.0872 94.1457 L 278.0872 105.4571 L 278.0872 116.7686 L 278.0872 128.08 L 278.0872 116.7686 L 278.0872 105.4571 L 279.0557 105.4571 L 279.0557 116.7686 L 279.0557 128.08 L 279.0557 139.3914 L 279.0557 128.08 L 279.0557 116.7686 L 279.0557 128.08 L 280.0242 128.08 L 280.0242 116.7686 L 280.0242 105.4571 L 280.0242 116.7686 L 280.0242 128.08 L 280.0242 139.3914 L 280.0242 128.08 L 280.0242 116.7686 L 280.0242 128.08 L 280.0242 139.3914 L 280.0242 150.7029 L 280.0242 116.7686 L 280.0242 105.4571 L 280.9927 105.4571 L 280.9927 94.1457 L 280.9927 105.4571 L 280.9927 116.7686 L 280.9927 128.08 L 280.9927 116.7686 L 281.9613 116.7686 L 281.9613 128.08 L 281.9613 139.3914 L 281.9613 150.7029 L 281.9613 139.3914 L 281.9613 128.08 L 281.9613 116.7686 L 281.9613 128.08 L 281.9613 116.7686 L 282.9298 116.7686 L 282.9298 128.08 L 282.9298 139.3914 L 282.9298 150.7029 L 282.9298 162.0143 L 282.9298 150.7029 L 282.9298 139.3914 L 282.9298 128.08 L 282.9298 105.4571 L 283.8983 94.1457 L 283.8983 105.4571 L 283.8983 116.7686 L 283.8983 128.08 L 283.8983 139.3914 L 283.8983 150.7029 L 283.8983 139.3914 L 283.8983 128.08 L 283.8983 116.7686 L 283.8983 105.4571 L 284.8668 105.4571 L 284.8668 116.7686 L 284.8668 128.08 L 284.8668 139.3914 L 284.8668 150.7029 L 284.8668 162.0143 L 284.8668 150.7029 L 284.8668 139.3914 L 285.8354 128.08 L 285.8354 116.7686 L 285.8354 128.08 L 285.8354 139.3914 L 285.8354 150.7029 L 285.8354 162.0143 L 285.8354 150.7029 L 285.8354 139.3914 L 285.8354 128.08 L 285.8354 116.7686 L 286.8039 105.4571 L 286.8039 94.1457 L 286.8039 105.4571 L 286.8039 116.7686 L 286.8039 128.08 L 286.8039 139.3914 L 286.8039 150.7029 L 286.8039 162.0143 L 286.8039 150.7029 L 286.8039 139.3914 L 286.8039 116.7686 L 286.8039 105.4571 L 287.7724 105.4571 L 287.7724 94.1457 L 287.7724 105.4571 L 287.7724 116.7686 L 287.7724 105.4571 L 287.7724 116.7686 L 287.7724 105.4571 L 288.7409 94.1457 L 288.7409 105.4571 L 288.7409 116.7686 L 288.7409 105.4571 L 289.7094 105.4571 L 289.7094 116.7686 L 289.7094 128.08 L 289.7094 139.3914 L 289.7094 128.08 L 290.678 128.08 L 290.678 139.3914 L 290.678 128.08 L 290.678 139.3914 L 290.678 150.7029 L 291.6465 150.7029 L 291.6465 139.3914 L 291.6465 150.7029 L 291.6465 139.3914 L 291.6465 150.7029 L 291.6465 139.3914 L 291.6465 150.7029 L 291.6465 139.3914 L 292.615 139.3914 L 292.615 150.7029 L 292.615 162.0143 L 292.615 173.3257 L 292.615 162.0143 L 292.615 150.7029 L 293.5835 139.3914 L 293.5835 150.7029 L 293.5835 139.3914 L 293.5835 150.7029 L 293.5835 162.0143 L 293.5835 173.3257 L 294.5521 162.0143 L 294.5521 150.7029 L 294.5521 139.3914 L 294.5521 150.7029 L 294.5521 162.0143 L 294.5521 173.3257 L 294.5521 184.6371 L 294.5521 173.3257 L 294.5521 162.0143 L 295.5206 150.7029 L 295.5206 139.3914 L 295.5206 128.08 L 295.5206 139.3914 L 295.5206 150.7029 L 295.5206 162.0143 L 295.5206 173.3257 L 295.5206 184.6371 L 295.5206 173.3257 L 295.5206 162.0143 L 295.5206 150.7029 L 295.5206 139.3914 L 296.4891 128.08 L 296.4891 116.7686 L 296.4891 128.08 L 296.4891 139.3914 L 296.4891 150.7029 L 296.4891 139.3914 L 296.4891 150.7029 L 296.4891 162.0143 L 296.4891 150.7029 L 296.4891 139.3914 L 297.4576 128.08 L 297.4576 139.3914 L 297.4576 150.7029 L 297.4576 162.0143 L 297.4576 150.7029 L 297.4576 162.0143 L 297.4576 173.3257 L 297.4576 184.6371 L 297.4576 173.3257 L 298.4261 173.3257 L 298.4261 162.0143 L 298.4261 150.7029 L 298.4261 162.0143 L 298.4261 173.3257 L 298.4261 184.6371 L 298.4261 195.9486 L 298.4261 184.6371 L 298.4261 173.3257 L 298.4261 162.0143 L 298.4261 150.7029 L 299.3947 139.3914 L 299.3947 128.08 L 299.3947 116.7686 L 299.3947 128.08 L 299.3947 139.3914 L 299.3947 150.7029 L 299.3947 139.3914 L 299.3947 150.7029 L 299.3947 139.3914 L 300.3632 139.3914 L 300.3632 150.7029 L 300.3632 162.0143 L 300.3632 173.3257 L 300.3632 162.0143 L 300.3632 150.7029 L 300.3632 139.3914 L 300.3632 128.08 L 301.3317 116.7686 L 301.3317 105.4571 L 301.3317 116.7686 L 301.3317 128.08 L 301.3317 139.3914 L 301.3317 150.7029 L 301.3317 162.0143 L 301.3317 150.7029 L 301.3317 139.3914 L 301.3317 150.7029 L 301.3317 139.3914 L 301.3317 128.08 L 302.3002 128.08 L 302.3002 139.3914 L 302.3002 150.7029 L 302.3002 162.0143 L 302.3002 150.7029 L 302.3002 162.0143 L 302.3002 150.7029 L 302.3002 128.08 L 303.2688 128.08 L 303.2688 139.3914 L 303.2688 150.7029 L 303.2688 162.0143 L 303.2688 150.7029 L 303.2688 162.0143 L 303.2688 173.3257 L 303.2688 162.0143 L 303.2688 150.7029 L 303.2688 139.3914 L 304.2373 128.08 L 304.2373 116.7686 L 304.2373 105.4571 L 304.2373 116.7686 L 304.2373 128.08 L 304.2373 139.3914 L 304.2373 150.7029 L 304.2373 173.3257 L 304.2373 150.7029 L 304.2373 139.3914 L 304.2373 128.08 L 304.2373 116.7686 L 305.2058 116.7686 L 305.2058 128.08 L 305.2058 139.3914 L 305.2058 150.7029 L 305.2058 162.0143 L 305.2058 150.7029 L 306.1743 150.7029 L 306.1743 162.0143 L 306.1743 173.3257 L 306.1743 184.6371 L 306.1743 195.9486 L 306.1743 173.3257 L 306.1743 162.0143 L 306.1743 150.7029 L 307.1429 150.7029 L 307.1429 139.3914 L 307.1429 150.7029 L 307.1429 162.0143 L 307.1429 173.3257 L 307.1429 162.0143 L 307.1429 173.3257 L 307.1429 162.0143 L 308.1114 162.0143 L 308.1114 173.3257 L 308.1114 184.6371 L 308.1114 173.3257 L 308.1114 162.0143 L 308.1114 173.3257 L 309.0799 162.0143 L 309.0799 173.3257 L 309.0799 162.0143 L 309.0799 173.3257 L 309.0799 184.6371 L 309.0799 195.9486 L 309.0799 207.26 L 309.0799 195.9486 L 309.0799 184.6371 L 309.0799 173.3257 L 310.0484 162.0143 L 310.0484 150.7029 L 310.0484 139.3914 L 310.0484 128.08 L 310.0484 139.3914 L 310.0484 150.7029 L 310.0484 162.0143 L 310.0484 173.3257 L 310.0484 184.6371 L 310.0484 173.3257 L 310.0484 162.0143 L 310.0484 150.7029 L 311.0169 139.3914 L 311.0169 128.08 L 311.0169 139.3914 L 311.0169 150.7029 L 311.0169 162.0143 L 311.0169 173.3257 L 311.0169 162.0143 L 311.0169 150.7029 L 311.9855 128.08 L 311.9855 116.7686 L 311.9855 128.08 L 311.9855 139.3914 L 311.9855 150.7029 L 311.9855 162.0143 L 311.9855 150.7029 L 311.9855 162.0143 L 311.9855 150.7029 L 311.9855 139.3914 L 312.954 139.3914 L 312.954 150.7029 L 312.954 162.0143 L 312.954 173.3257 L 312.954 184.6371 L 312.954 173.3257 L 312.954 162.0143 L 312.954 150.7029 L 312.954 139.3914 L 313.9225 128.08 L 313.9225 116.7686 L 313.9225 128.08 L 313.9225 139.3914 L 313.9225 150.7029 L 313.9225 162.0143 L 313.9225 150.7029 L 313.9225 128.08 L 313.9225 116.7686 L 314.8911 116.7686 L 314.8911 128.08 L 314.8911 139.3914 L 314.8911 150.7029 L 315.8596 150.7029 L 315.8596 162.0143 L 315.8596 173.3257 L 315.8596 184.6371 L 315.8596 195.9486 L 315.8596 173.3257 L 315.8596 162.0143 L 315.8596 150.7029 L 316.8281 139.3914 L 316.8281 150.7029 L 316.8281 162.0143 L 316.8281 173.3257 L 316.8281 150.7029 L 317.7966 150.7029 L 317.7966 139.3914 L 317.7966 150.7029 L 317.7966 162.0143 L 317.7966 173.3257 L 317.7966 162.0143 L 317.7966 150.7029 L 317.7966 139.3914 L 318.7651 128.08 L 318.7651 139.3914 L 318.7651 150.7029 L 318.7651 162.0143 L 318.7651 173.3257 L 318.7651 162.0143 L 318.7651 150.7029 L 318.7651 139.3914 L 319.7336 139.3914 L 319.7336 150.7029 L 319.7336 162.0143 L 319.7336 173.3257 L 319.7336 184.6371 L 319.7336 173.3257 L 319.7336 162.0143 L 320.7022 162.0143 L 320.7022 173.3257 L 320.7022 184.6371 L 320.7022 195.9486 L 320.7022 184.6371 L 320.7022 173.3257 L 320.7022 162.0143 L 320.7022 150.7029 L 320.7022 139.3914 L 321.6707 128.08 L 321.6707 139.3914 L 321.6707 150.7029 L 321.6707 162.0143 L 321.6707 150.7029 L 322.6392 150.7029 L 322.6392 162.0143 L 322.6392 173.3257 L 323.6078 162.0143 L 323.6078 173.3257 L 323.6078 184.6371 L 323.6078 173.3257 L 323.6078 184.6371 L 323.6078 195.9486 L 323.6078 184.6371 L 323.6078 173.3257 L 323.6078 162.0143 L 324.5763 150.7029 L 324.5763 139.3914 L 324.5763 128.08 L 324.5763 139.3914 L 324.5763 150.7029 L 324.5763 162.0143 L 324.5763 150.7029 L 325.5448 150.7029 L 325.5448 162.0143 L 325.5448 173.3257 L 325.5448 162.0143 L 326.5133 162.0143 L 326.5133 173.3257 L 326.5133 184.6371 L 326.5133 173.3257 L 327.4818 162.0143 L 327.4818 173.3257 L 327.4818 184.6371 L 327.4818 173.3257 L 327.4818 162.0143 L 328.4504 162.0143 L 328.4504 173.3257 L 328.4504 184.6371 L 328.4504 173.3257 L 328.4504 184.6371 L 328.4504 173.3257 L 328.4504 184.6371 L 328.4504 173.3257 L 328.4504 162.0143 L 329.4189 162.0143 L 329.4189 173.3257 L 329.4189 184.6371 L 329.4189 173.3257 L 330.3874 173.3257 L 330.3874 162.0143 L 330.3874 173.3257 L 330.3874 184.6371 L 330.3874 195.9486 L 330.3874 184.6371 L 330.3874 173.3257 L 331.3559 162.0143 L 331.3559 150.7029 L 331.3559 162.0143 L 331.3559 173.3257 L 331.3559 184.6371 L 331.3559 173.3257 L 332.3245 173.3257 L 332.3245 184.6371 L 332.3245 195.9486 L 332.3245 184.6371 L 332.3245 173.3257 L 333.293 173.3257 L 333.293 162.0143 L 333.293 173.3257 L 333.293 184.6371 L 333.293 173.3257 L 334.2615 173.3257 L 334.2615 184.6371 L 334.2615 195.9486 L 334.2615 207.26 L 334.2615 195.9486 L 334.2615 184.6371 L 334.2615 173.3257 L 334.2615 162.0143 L 335.23 150.7029 L 335.23 139.3914 L 335.23 150.7029 L 335.23 162.0143 L 335.23 173.3257 L 335.23 184.6371 L 335.23 173.3257 L 335.23 162.0143 L 335.23 150.7029 L 336.1985 139.3914 L 336.1985 150.7029 L 336.1985 162.0143 L 336.1985 173.3257 L 336.1985 184.6371 L 336.1985 173.3257 L 336.1985 162.0143 L 336.1985 150.7029 L 337.1671 139.3914 L 337.1671 150.7029 L 337.1671 162.0143 L 337.1671 173.3257 L 337.1671 184.6371 L 337.1671 173.3257 L 337.1671 162.0143 L 338.1356 150.7029 L 338.1356 162.0143 L 338.1356 173.3257 L 338.1356 184.6371 L 338.1356 195.9486 L 338.1356 184.6371 L 338.1356 173.3257 L 338.1356 162.0143 L 338.1356 150.7029 L 339.1041 139.3914 L 339.1041 128.08 L 339.1041 139.3914 L 339.1041 150.7029 L 339.1041 162.0143 L 339.1041 173.3257 L 339.1041 184.6371 L 339.1041 173.3257 L 339.1041 162.0143 L 339.1041 150.7029 L 339.1041 139.3914 L 340.0726 128.08 L 340.0726 139.3914 L 340.0726 150.7029 L 340.0726 162.0143 L 340.0726 173.3257 L 340.0726 184.6371 L 340.0726 173.3257 L 340.0726 162.0143 L 340.0726 173.3257 L 340.0726 162.0143 L 340.0726 150.7029 L 341.0412 139.3914 L 341.0412 150.7029 L 341.0412 162.0143 L 341.0412 173.3257 L 341.0412 184.6371 L 341.0412 173.3257 L 341.0412 162.0143 L 341.0412 150.7029 L 341.0412 139.3914 L 342.0097 128.08 L 342.0097 116.7686 L 342.0097 128.08 L 342.0097 139.3914 L 342.0097 150.7029 L 342.0097 162.0143 L 342.0097 173.3257 L 342.0097 162.0143 L 342.0097 150.7029 L 342.0097 139.3914 L 342.9782 139.3914 L 342.9782 150.7029 L 342.9782 162.0143 L 342.9782 173.3257 L 342.9782 184.6371 L 342.9782 173.3257 L 342.9782 162.0143 L 342.9782 150.7029 L 342.9782 139.3914 L 342.9782 128.08 L 343.9467 116.7686 L 343.9467 128.08 L 343.9467 139.3914 L 343.9467 150.7029 L 343.9467 162.0143 L 343.9467 173.3257 L 343.9467 184.6371 L 343.9467 173.3257 L 343.9467 162.0143 L 343.9467 150.7029 L 343.9467 128.08 L 344.9153 128.08 L 344.9153 116.7686 L 344.9153 128.08 L 344.9153 139.3914 L 344.9153 150.7029 L 344.9153 162.0143 L 344.9153 173.3257 L 344.9153 184.6371 L 344.9153 173.3257 L 344.9153 162.0143 L 344.9153 150.7029 L 344.9153 128.08 L 345.8838 116.7686 L 345.8838 128.08 L 345.8838 139.3914 L 345.8838 150.7029 L 345.8838 162.0143 L 345.8838 173.3257 L 345.8838 162.0143 L 345.8838 139.3914 L 345.8838 116.7686 L 346.8523 116.7686 L 346.8523 128.08 L 346.8523 139.3914 L 346.8523 150.7029 L 346.8523 162.0143 L 346.8523 173.3257 L 347.8208 173.3257 L 347.8208 184.6371 L 347.8208 195.9486 L 347.8208 184.6371 L 348.7893 184.6371 L 349.7579 184.6371 L 349.7579 195.9486 L 349.7579 184.6371 L 350.7264 184.6371 L 350.7264 195.9486 L 350.7264 184.6371 L 351.6949 184.6371 L 351.6949 173.3257 L 351.6949 184.6371 L 351.6949 195.9486 L 351.6949 207.26 L 351.6949 195.9486 L 351.6949 173.3257 L 351.6949 162.0143 L 351.6949 150.7029 L 352.6635 150.7029 L 352.6635 139.3914 L 352.6635 150.7029 L 352.6635 162.0143 L 352.6635 173.3257 L 352.6635 184.6371 L 352.6635 173.3257 L 353.632 173.3257 L 353.632 184.6371 L 353.632 195.9486 L 353.632 207.26 L 353.632 195.9486 L 353.632 184.6371 L 353.632 173.3257 L 353.632 162.0143 L 354.6005 162.0143 L 354.6005 173.3257 L 354.6005 184.6371 L 355.569 184.6371 L 355.569 195.9486 L 355.569 184.6371 L 356.5375 184.6371 L 356.5375 195.9486 L 356.5375 207.26 L 356.5375 195.9486 L 357.506 195.9486 L 357.506 184.6371 L 357.506 195.9486 L 357.506 207.26 L 357.506 195.9486 L 358.4746 195.9486 L 358.4746 207.26 L 358.4746 195.9486 L 359.4431 195.9486 L 359.4431 207.26 L 360.4116 207.26 L 360.4116 218.5714 L 360.4116 207.26 L 361.3802 207.26 L 361.3802 218.5714 L 361.3802 207.26 L 362.3487 207.26 L 362.3487 218.5714 L 362.3487 229.8829 L 362.3487 218.5714 L 362.3487 207.26 L 363.3172 207.26 L 363.3172 218.5714 L 363.3172 229.8829 L 363.3172 218.5714 L 364.2857 218.5714 L 364.2857 207.26 L 364.2857 218.5714 L 364.2857 229.8829 L 364.2857 241.1943 L 364.2857 252.5057 L 364.2857 229.8829 L 364.2857 207.26 L 364.2857 195.9486 L 365.2542 195.9486 L 365.2542 207.26 L 365.2542 218.5714 L 365.2542 207.26 L 365.2542 195.9486 L 366.2227 195.9486 L 366.2227 207.26 L 366.2227 218.5714 L 366.2227 195.9486 L 367.1913 195.9486 L 367.1913 207.26 L 368.1598 207.26 L 368.1598 218.5714 L 368.1598 229.8829 L 368.1598 218.5714 L 368.1598 207.26 L 369.1283 207.26 L 369.1283 218.5714 L 369.1283 229.8829 L 369.1283 241.1943 L 369.1283 229.8829 L 369.1283 207.26 L 370.0969 207.26 L 370.0969 218.5714 L 371.0654 218.5714 L 372.0339 218.5714 L 373.0024 218.5714 L 373.0024 229.8829 L 373.0024 218.5714 L 373.0024 229.8829 L 373.9709 229.8829 L 373.9709 241.1943 L 373.9709 229.8829 L 373.9709 218.5714 L 374.9395 218.5714 L 374.9395 229.8829 L 374.9395 218.5714 L 375.908 218.5714 L 375.908 229.8829 L 375.908 241.1943 L 375.908 229.8829 L 375.908 218.5714 L 376.8765 218.5714 L 376.8765 229.8829 L 376.8765 252.5057 L 376.8765 229.8829 L 376.8765 218.5714 L 376.8765 207.26 L 377.845 207.26 L 377.845 218.5714 L 377.845 229.8829 L 377.845 218.5714 L 378.8136 218.5714 L 378.8136 229.8829 L 378.8136 218.5714 L 378.8136 229.8829 L 379.7821 229.8829 L 379.7821 218.5714 L 379.7821 229.8829 L 379.7821 241.1943 L 379.7821 252.5057 L 379.7821 241.1943 L 379.7821 218.5714 L 379.7821 207.26 L 380.7506 207.26 L 380.7506 218.5714 L 380.7506 229.8829 L 380.7506 218.5714 L 380.7506 207.26 L 381.7191 207.26 L 381.7191 218.5714 L 381.7191 207.26 L 381.7191 218.5714 L 381.7191 207.26 L 381.7191 218.5714 L 382.6877 218.5714 L 383.6562 218.5714 L 383.6562 229.8829 L 383.6562 218.5714 L 384.6247 218.5714 L 384.6247 229.8829 L 384.6247 218.5714 L 385.5932 218.5714 L 385.5932 229.8829 L 385.5932 241.1943 L 385.5932 252.5057 L 385.5932 241.1943 L 385.5932 218.5714 L 385.5932 207.26 L 385.5932 218.5714 L 386.5617 218.5714 L 387.5303 218.5714 L 387.5303 229.8829 L 387.5303 218.5714 L 388.4988 229.8829 L 388.4988 218.5714 L 389.4673 229.8829 L 389.4673 218.5714 L 389.4673 229.8829 L 389.4673 218.5714 L 389.4673 229.8829 L 390.4358 229.8829 L 390.4358 241.1943 L 390.4358 252.5057 L 390.4358 241.1943 L 390.4358 229.8829 L 390.4358 218.5714 L 390.4358 229.8829 L 391.4044 229.8829 L 391.4044 241.1943 L 391.4044 229.8829 L 392.3729 229.8829 L 392.3729 241.1943 L 392.3729 252.5057 L 392.3729 241.1943 L 392.3729 252.5057 L 392.3729 241.1943 L 392.3729 229.8829 L 393.3414 229.8829 L 393.3414 241.1943 L 393.3414 229.8829 L 393.3414 241.1943 L 393.3414 252.5057 L 393.3414 263.8171 L 393.3414 252.5057 L 393.3414 241.1943 L 393.3414 229.8829 L 394.3099 229.8829 L 394.3099 241.1943 L 394.3099 252.5057 L 394.3099 263.8171 L 394.3099 252.5057 L 394.3099 241.1943 L 394.3099 229.8829 L 395.2784 229.8829 L 395.2784 241.1943 L 395.2784 252.5057 L 395.2784 263.8171 L 396.247 263.8171 L 396.247 252.5057 L 396.247 263.8171 L 396.247 252.5057 L 396.247 263.8171 L 397.2155 263.8171 L 397.2155 252.5057 L 397.2155 263.8171 L 397.2155 275.1286 L 397.2155 263.8171 L 397.2155 275.1286 L 397.2155 263.8171 L 397.2155 252.5057 L 397.2155 241.1943 L 398.184 241.1943 L 398.184 252.5057 L 398.184 263.8171 L 398.184 252.5057 L 398.184 263.8171 L 399.1526 263.8171 L 399.1526 275.1286 L 399.1526 263.8171 L 399.1526 275.1286 L 399.1526 263.8171 L 399.1526 275.1286 L 399.1526 263.8171 L 399.1526 252.5057 L 400.1211 252.5057 L 400.1211 263.8171 L 400.1211 252.5057 L 400.1211 263.8171 L 400.1211 252.5057 L 401.0896 252.5057 L 401.0896 263.8171 L 401.0896 252.5057 L 402.0581 252.5057 L 402.0581 241.1943 L 402.0581 252.5057 L 402.0581 241.1943 L 402.0581 252.5057 L 403.0266 252.5057 L 403.0266 263.8171 L 403.0266 252.5057 L 403.0266 263.8171 L 403.0266 252.5057 L 403.0266 263.8171 L 403.9951 263.8171 L 403.9951 252.5057 L 403.9951 263.8171 L 403.9951 252.5057 L 403.9951 263.8171 L 403.9951 275.1286 L 403.9951 263.8171 L 404.9637 275.1286 L 404.9637 263.8171 L 404.9637 275.1286 L 404.9637 263.8171 L 404.9637 252.5057 L 404.9637 263.8171 L 405.9322 252.5057 L 405.9322 263.8171 L 405.9322 252.5057 L 405.9322 263.8171 L 405.9322 252.5057 L 405.9322 263.8171 L 405.9322 275.1286 L 405.9322 263.8171 L 405.9322 252.5057 L 406.9007 252.5057 L 406.9007 263.8171 L 406.9007 252.5057 L 406.9007 263.8171 L 406.9007 275.1286 L 406.9007 286.44 L 406.9007 275.1286 L 406.9007 263.8171 L 407.8693 275.1286 L 407.8693 286.44 L 407.8693 275.1286 L 407.8693 286.44 L 407.8693 275.1286 L 408.8378 275.1286 L 408.8378 286.44 L 408.8378 275.1286 L 408.8378 286.44 L 409.8063 286.44 L 409.8063 297.7514 L 409.8063 286.44 L 410.7748 286.44 L 410.7748 297.7514 L 410.7748 286.44 L 410.7748 297.7514 L 410.7748 286.44 L 410.7748 297.7514 L 411.7433 297.7514 L 411.7433 286.44 L 411.7433 297.7514 L 411.7433 309.0629 L 411.7433 297.7514 L 411.7433 286.44 L 412.7119 286.44 L 412.7119 297.7514 L 412.7119 286.44 L 412.7119 297.7514 L 413.6804 297.7514 L 413.6804 309.0629 L 413.6804 297.7514 L 413.6804 286.44 L 414.6489 286.44 L 414.6489 297.7514 L 414.6489 286.44 L 414.6489 297.7514 L 414.6489 286.44 L 414.6489 275.1286 L 414.6489 286.44 L 414.6489 275.1286 L 415.6174 286.44 L 415.6174 275.1286 L 415.6174 263.8171 L 415.6174 275.1286 L 415.6174 286.44 L 415.6174 297.7514 L 415.6174 286.44 L 416.586 286.44 L 416.586 297.7514 L 416.586 286.44 L 417.5545 297.7514 L 417.5545 309.0629 L 417.5545 297.7514 L 417.5545 286.44 L 417.5545 297.7514 L 417.5545 286.44 L 418.523 286.44 L 418.523 297.7514 L 418.523 309.0629 L 418.523 297.7514 L 418.523 309.0629 L 418.523 297.7514 L 419.4915 297.7514 L 419.4915 309.0629 L 419.4915 297.7514 L 419.4915 309.0629 L 420.4601 309.0629 L 420.4601 320.3743 L 420.4601 309.0629 L 421.4286 309.0629 L 421.4286 320.3743 L 421.4286 309.0629 L 421.4286 320.3743 L 421.4286 309.0629 L 422.3971 309.0629 L 422.3971 297.7514 L 423.3656 309.0629 L 423.3656 320.3743 L 423.3656 309.0629 L 423.3656 297.7514 L 423.3656 309.0629 L 424.3341 309.0629 L 424.3341 297.7514 L 424.3341 309.0629 L 424.3341 297.7514 L 425.3027 297.7514 L 425.3027 309.0629 L 425.3027 297.7514 L 426.2712 297.7514 L 426.2712 309.0629 L 426.2712 320.3743 L 427.2397 320.3743 L 427.2397 309.0629 L 427.2397 320.3743 L 427.2397 309.0629 L 428.2082 309.0629 L 428.2082 297.7514 L 428.2082 309.0629 L 428.2082 297.7514 L 428.2082 309.0629 L 429.1768 309.0629 L 429.1768 320.3743 L 429.1768 309.0629 L 429.1768 320.3743 L 429.1768 309.0629 L 430.1453 320.3743 L 430.1453 309.0629 L 430.1453 297.7514 L 430.1453 309.0629 L 430.1453 320.3743 L 430.1453 309.0629 L 430.1453 320.3743 L 431.1138 309.0629 L 431.1138 297.7514 L 431.1138 309.0629 L 432.0823 309.0629 L 432.0823 297.7514 L 432.0823 309.0629 L 433.0508 309.0629 L 433.0508 320.3743 L 433.0508 331.6857 L 433.0508 342.9971 L 433.0508 331.6857 L 433.0508 342.9971 L 433.0508 331.6857 L 434.0194 331.6857 L 434.0194 320.3743 L 434.9879 320.3743 L 434.9879 309.0629 L 434.9879 320.3743 L 434.9879 331.6857 L 434.9879 320.3743 L 435.9564 331.6857 L 435.9564 320.3743 L 435.9564 309.0629 L 435.9564 320.3743 L 436.9249 320.3743 L 436.9249 331.6857 L 436.9249 320.3743 L 437.8935 331.6857 L 437.8935 320.3743 L 437.8935 331.6857 L 437.8935 342.9971 L 437.8935 331.6857 L 437.8935 342.9971 L 437.8935 331.6857 L 437.8935 342.9971 L 437.8935 354.3086 L 437.8935 342.9971 L 438.862 342.9971 L 438.862 331.6857 L 438.862 320.3743 L 438.862 309.0629 L 439.8305 309.0629 L 440.799 309.0629 L 440.799 320.3743 L 440.799 309.0629 L 440.799 297.7514 L 440.799 309.0629 L 440.799 320.3743 L 441.7675 331.6857 L 441.7675 320.3743 L 441.7675 331.6857 L 441.7675 342.9971 L 441.7675 331.6857 L 441.7675 342.9971 L 442.7361 354.3086 L 442.7361 342.9971 L 442.7361 354.3086 L 442.7361 342.9971 L 443.7046 354.3086 L 443.7046 342.9971 L 443.7046 354.3086 L 443.7046 342.9971 L 444.6731 342.9971 L 445.6416 342.9971 L 445.6416 331.6857 L 446.6102 342.9971 L 446.6102 331.6857 L 446.6102 342.9971 L 447.5787 342.9971 L 447.5787 354.3086 L 447.5787 342.9971 L 447.5787 354.3086 L 448.5472 354.3086 L 448.5472 365.62 L 448.5472 376.9314 L 448.5472 388.2429 L 449.5157 388.2429" fill="none" stroke="#5470c6" stroke-width="2" paint-order="fill" stroke-opacity="1" stroke-dasharray="" stroke-linecap="butt" stroke-linejoin="bevel" stroke-miterlimit="10"></path></g><path d="M 1 0 A 1 1 0 1 1 1 -0.0001" fill="#fff" fill-opacity="1" stroke="#5470c6" stroke-width="1" paint-order="fill" stroke-opacity="1" stroke-dasharray="" stroke-linecap="butt" stroke-miterlimit="10" transform="matrix(2,0,0,2,50.4843,218.5714)"></path><path d="M 1 0 A 1 1 0 1 1 1 -0.0001" fill="#fff" fill-opacity="1" stroke="#5470c6" stroke-width="1" paint-order="fill" stroke-opacity="1" stroke-dasharray="" stroke-linecap="butt" stroke-miterlimit="10" transform="matrix(2,0,0,2,50.4843,218.5714)"></path><path d="M 1 0 A 1 1 0 1 1 1 -0.0001" fill="#fff" fill-opacity="1" stroke="#5470c6" stroke-width="1" paint-order="fill" stroke-opacity="1" stroke-dasharray="" stroke-linecap="butt" stroke-miterlimit="10" transform="matrix(2,0,0,2,130.8717,331.6857)"></path><path d="M 1 0 A 1 1 0 1 1 1 -0.0001" fill="#fff" fill-opacity="1" stroke="#5470c6" stroke-width="1" paint-order="fill" stroke-opacity="1" stroke-dasharray="" stroke-linecap="butt" stroke-miterlimit="10" transform="matrix(2,0,0,2,130.8717,320.3743)"></path><path d="M 1 0 A 1 1 0 1 1 1 -0.0001" fill="#fff" fill-opacity="1" stroke="#5470c6" stroke-width="1" paint-order="fill" stroke-opacity="1" stroke-dasharray="" stroke-linecap="butt" stroke-miterlimit="10" transform="matrix(2,0,0,2,130.8717,331.6857)"></path><path d="M 1 0 A 1 1 0 1 1 1 -0.0001" fill="#fff" fill-opacity="1" stroke="#5470c6" stroke-width="1" paint-order="fill" stroke-opacity="1" stroke-dasharray="" stroke-linecap="butt" stroke-miterlimit="10" transform="matrix(2,0,0,2,130.8717,331.6857)"></path><path d="M 1 0 A 1 1 0 1 1 1 -0.0001" fill="#fff" fill-opacity="1" stroke="#5470c6" stroke-width="1" paint-order="fill" stroke-opacity="1" stroke-dasharray="" stroke-linecap="butt" stroke-miterlimit="10" transform="matrix(2,0,0,2,130.8717,342.9971)"></path><path d="M 1 0 A 1 1 0 1 1 1 -0.0001" fill="#fff" fill-opacity="1" stroke="#5470c6" stroke-width="1" paint-order="fill" stroke-opacity="1" stroke-dasharray="" stroke-linecap="butt" stroke-miterlimit="10" transform="matrix(2,0,0,2,130.8717,342.9971)"></path><path d="M 1 0 A 1 1 0 1 1 1 -0.0001" fill="#fff" fill-opacity="1" stroke="#5470c6" stroke-width="1" paint-order="fill" stroke-opacity="1" stroke-dasharray="" stroke-linecap="butt" stroke-miterlimit="10" transform="matrix(2,0,0,2,130.8717,331.6857)"></path><path d="M 1 0 A 1 1 0 1 1 1 -0.0001" fill="#fff" fill-opacity="1" stroke="#5470c6" stroke-width="1" paint-order="fill" stroke-opacity="1" stroke-dasharray="" stroke-linecap="butt" stroke-miterlimit="10" transform="matrix(2,0,0,2,130.8717,331.6857)"></path><path d="M 1 0 A 1 1 0 1 1 1 -0.0001" fill="#fff" fill-opacity="1" stroke="#5470c6" stroke-width="1" paint-order="fill" stroke-opacity="1" stroke-dasharray="" stroke-linecap="butt" stroke-miterlimit="10" transform="matrix(2,0,0,2,130.8717,342.9971)"></path><path d="M 1 0 A 1 1 0 1 1 1 -0.0001" fill="#fff" fill-opacity="1" stroke="#5470c6" stroke-width="1" paint-order="fill" stroke-opacity="1" stroke-dasharray="" stroke-linecap="butt" stroke-miterlimit="10" transform="matrix(2,0,0,2,211.2591,241.1943)"></path><path d="M 1 0 A 1 1 0 1 1 1 -0.0001" fill="#fff" fill-opacity="1" stroke="#5470c6" stroke-width="1" paint-order="fill" stroke-opacity="1" stroke-dasharray="" stroke-linecap="butt" stroke-miterlimit="10" transform="matrix(2,0,0,2,211.2591,241.1943)"></path><path d="M 1 0 A 1 1 0 1 1 1 -0.0001" fill="#fff" fill-opacity="1" stroke="#5470c6" stroke-width="1" paint-order="fill" stroke-opacity="1" stroke-dasharray="" stroke-linecap="butt" stroke-miterlimit="10" transform="matrix(2,0,0,2,211.2591,252.5057)"></path><path d="M 1 0 A 1 1 0 1 1 1 -0.0001" fill="#fff" fill-opacity="1" stroke="#5470c6" stroke-width="1" paint-order="fill" stroke-opacity="1" stroke-dasharray="" stroke-linecap="butt" stroke-miterlimit="10" transform="matrix(2,0,0,2,211.2591,252.5057)"></path><path d="M 1 0 A 1 1 0 1 1 1 -0.0001" fill="#fff" fill-opacity="1" stroke="#5470c6" stroke-width="1" paint-order="fill" stroke-opacity="1" stroke-dasharray="" stroke-linecap="butt" stroke-miterlimit="10" transform="matrix(2,0,0,2,211.2591,263.8171)"></path><path d="M 1 0 A 1 1 0 1 1 1 -0.0001" fill="#fff" fill-opacity="1" stroke="#5470c6" stroke-width="1" paint-order="fill" stroke-opacity="1" stroke-dasharray="" stroke-linecap="butt" stroke-miterlimit="10" transform="matrix(2,0,0,2,211.2591,263.8171)"></path><path d="M 1 0 A 1 1 0 1 1 1 -0.0001" fill="#fff" fill-opacity="1" stroke="#5470c6" stroke-width="1" paint-order="fill" stroke-opacity="1" stroke-dasharray="" stroke-linecap="butt" stroke-miterlimit="10" transform="matrix(2,0,0,2,211.2591,275.1286)"></path><path d="M 1 0 A 1 1 0 1 1 1 -0.0001" fill="#fff" fill-opacity="1" stroke="#5470c6" stroke-width="1" paint-order="fill" stroke-opacity="1" stroke-dasharray="" stroke-linecap="butt" stroke-miterlimit="10" transform="matrix(2,0,0,2,211.2591,275.1286)"></path><path d="M 1 0 A 1 1 0 1 1 1 -0.0001" fill="#fff" fill-opacity="1" stroke="#5470c6" stroke-width="1" paint-order="fill" stroke-opacity="1" stroke-dasharray="" stroke-linecap="butt" stroke-miterlimit="10" transform="matrix(2,0,0,2,211.2591,286.44)"></path><path d="M 1 0 A 1 1 0 1 1 1 -0.0001" fill="#fff" fill-opacity="1" stroke="#5470c6" stroke-width="1" paint-order="fill" stroke-opacity="1" stroke-dasharray="" stroke-linecap="butt" stroke-miterlimit="10" transform="matrix(2,0,0,2,211.2591,263.8171)"></path><path d="M 1 0 A 1 1 0 1 1 1 -0.0001" fill="#fff" fill-opacity="1" stroke="#5470c6" stroke-width="1" paint-order="fill" stroke-opacity="1" stroke-dasharray="" stroke-linecap="butt" stroke-miterlimit="10" transform="matrix(2,0,0,2,211.2591,263.8171)"></path><path d="M 1 0 A 1 1 0 1 1 1 -0.0001" fill="#fff" fill-opacity="1" stroke="#5470c6" stroke-width="1" paint-order="fill" stroke-opacity="1" stroke-dasharray="" stroke-linecap="butt" stroke-miterlimit="10" transform="matrix(2,0,0,2,211.2591,252.5057)"></path><path d="M 1 0 A 1 1 0 1 1 1 -0.0001" fill="#fff" fill-opacity="1" stroke="#5470c6" stroke-width="1" paint-order="fill" stroke-opacity="1" stroke-dasharray="" stroke-linecap="butt" stroke-miterlimit="10" transform="matrix(2,0,0,2,211.2591,252.5057)"></path><path d="M 1 0 A 1 1 0 1 1 1 -0.0001" fill="#fff" fill-opacity="1" stroke="#5470c6" stroke-width="1" paint-order="fill" stroke-opacity="1" stroke-dasharray="" stroke-linecap="butt" stroke-miterlimit="10" transform="matrix(2,0,0,2,211.2591,241.1943)"></path><path d="M 1 0 A 1 1 0 1 1 1 -0.0001" fill="#fff" fill-opacity="1" stroke="#5470c6" stroke-width="1" paint-order="fill" stroke-opacity="1" stroke-dasharray="" stroke-linecap="butt" stroke-miterlimit="10" transform="matrix(2,0,0,2,211.2591,229.8829)"></path><path d="M 1 0 A 1 1 0 1 1 1 -0.0001" fill="#fff" fill-opacity="1" stroke="#5470c6" stroke-width="1" paint-order="fill" stroke-opacity="1" stroke-dasharray="" stroke-linecap="butt" stroke-miterlimit="10" transform="matrix(2,0,0,2,291.6465,150.7029)"></path><path d="M 1 0 A 1 1 0 1 1 1 -0.0001" fill="#fff" fill-opacity="1" stroke="#5470c6" stroke-width="1" paint-order="fill" stroke-opacity="1" stroke-dasharray="" stroke-linecap="butt" stroke-miterlimit="10" transform="matrix(2,0,0,2,291.6465,150.7029)"></path><path d="M 1 0 A 1 1 0 1 1 1 -0.0001" fill="#fff" fill-opacity="1" stroke="#5470c6" stroke-width="1" paint-order="fill" stroke-opacity="1" stroke-dasharray="" stroke-linecap="butt" stroke-miterlimit="10" transform="matrix(2,0,0,2,291.6465,139.3914)"></path><path d="M 1 0 A 1 1 0 1 1 1 -0.0001" fill="#fff" fill-opacity="1" stroke="#5470c6" stroke-width="1" paint-order="fill" stroke-opacity="1" stroke-dasharray="" stroke-linecap="butt" stroke-miterlimit="10" transform="matrix(2,0,0,2,291.6465,150.7029)"></path><path d="M 1 0 A 1 1 0 1 1 1 -0.0001" fill="#fff" fill-opacity="1" stroke="#5470c6" stroke-width="1" paint-order="fill" stroke-opacity="1" stroke-dasharray="" stroke-linecap="butt" stroke-miterlimit="10" transform="matrix(2,0,0,2,291.6465,150.7029)"></path><path d="M 1 0 A 1 1 0 1 1 1 -0.0001" fill="#fff" fill-opacity="1" stroke="#5470c6" stroke-width="1" paint-order="fill" stroke-opacity="1" stroke-dasharray="" stroke-linecap="butt" stroke-miterlimit="10" transform="matrix(2,0,0,2,291.6465,139.3914)"></path><path d="M 1 0 A 1 1 0 1 1 1 -0.0001" fill="#fff" fill-opacity="1" stroke="#5470c6" stroke-width="1" paint-order="fill" stroke-opacity="1" stroke-dasharray="" stroke-linecap="butt" stroke-miterlimit="10" transform="matrix(2,0,0,2,291.6465,139.3914)"></path><path d="M 1 0 A 1 1 0 1 1 1 -0.0001" fill="#fff" fill-opacity="1" stroke="#5470c6" stroke-width="1" paint-order="fill" stroke-opacity="1" stroke-dasharray="" stroke-linecap="butt" stroke-miterlimit="10" transform="matrix(2,0,0,2,291.6465,150.7029)"></path><path d="M 1 0 A 1 1 0 1 1 1 -0.0001" fill="#fff" fill-opacity="1" stroke="#5470c6" stroke-width="1" paint-order="fill" stroke-opacity="1" stroke-dasharray="" stroke-linecap="butt" stroke-miterlimit="10" transform="matrix(2,0,0,2,291.6465,139.3914)"></path><path d="M 1 0 A 1 1 0 1 1 1 -0.0001" fill="#fff" fill-opacity="1" stroke="#5470c6" stroke-width="1" paint-order="fill" stroke-opacity="1" stroke-dasharray="" stroke-linecap="butt" stroke-miterlimit="10" transform="matrix(2,0,0,2,291.6465,150.7029)"></path><path d="M 1 0 A 1 1 0 1 1 1 -0.0001" fill="#fff" fill-opacity="1" stroke="#5470c6" stroke-width="1" paint-order="fill" stroke-opacity="1" stroke-dasharray="" stroke-linecap="butt" stroke-miterlimit="10" transform="matrix(2,0,0,2,291.6465,150.7029)"></path><path d="M 1 0 A 1 1 0 1 1 1 -0.0001" fill="#fff" fill-opacity="1" stroke="#5470c6" stroke-width="1" paint-order="fill" stroke-opacity="1" stroke-dasharray="" stroke-linecap="butt" stroke-miterlimit="10" transform="matrix(2,0,0,2,291.6465,139.3914)"></path><path d="M 1 0 A 1 1 0 1 1 1 -0.0001" fill="#fff" fill-opacity="1" stroke="#5470c6" stroke-width="1" paint-order="fill" stroke-opacity="1" stroke-dasharray="" stroke-linecap="butt" stroke-miterlimit="10" transform="matrix(2,0,0,2,291.6465,139.3914)"></path><path d="M 1 0 A 1 1 0 1 1 1 -0.0001" fill="#fff" fill-opacity="1" stroke="#5470c6" stroke-width="1" paint-order="fill" stroke-opacity="1" stroke-dasharray="" stroke-linecap="butt" stroke-miterlimit="10" transform="matrix(2,0,0,2,372.0339,218.5714)"></path><path d="M 1 0 A 1 1 0 1 1 1 -0.0001" fill="#fff" fill-opacity="1" stroke="#5470c6" stroke-width="1" paint-order="fill" stroke-opacity="1" stroke-dasharray="" stroke-linecap="butt" stroke-miterlimit="10" transform="matrix(2,0,0,2,372.0339,218.5714)"></path><path d="M -5 -5 L 92.0215 -5 L 92.0215 18.2 L -5 18.2 L -5 -5" fill="rgba(0,0,0,0)" fill-opacity="1" stroke="#ccc" stroke-width="0" paint-order="fill" stroke-opacity="1" stroke-dasharray="" stroke-linecap="butt" stroke-miterlimit="10" transform="matrix(1,0,0,1,206.4893,5)"></path><path d="M 0 7 L 25 7" fill="#000" fill-opacity="1" stroke="#5470c6" stroke-width="2" paint-order="fill" stroke-opacity="1" stroke-dasharray="" transform="matrix(1,0,0,1,207.4893,4.6)"></path><path d="M 18.1 7 A 5.6 5.6 0 1 1 18.1 6.9994" fill="#fff" fill-opacity="1" stroke="#5470c6" stroke-width="2" paint-order="fill" stroke-opacity="1" stroke-dasharray="" transform="matrix(1,0,0,1,207.4893,4.6)"></path><text xml:space="preserve" style="font: sans-serif 12px normal normal normal 12px;" fill="#333" fill-opacity="1" stroke="none" transform="matrix(1,0,0,1,207.4893,4.6)" dominant-baseline="central" text-anchor="start" x="30" y="7">movement</text><path d="M -5 -5 L 114.7051 -5 L 114.7051 23 L -5 23 L -5 -5" fill="rgba(0,0,0,0)" fill-opacity="1" stroke="#ccc" stroke-width="0" paint-order="fill" stroke-opacity="1" stroke-dasharray="" stroke-linecap="butt" stroke-miterlimit="10" transform="matrix(1,0,0,1,5,5)"></path><text xml:space="preserve" style="font: sans-serif 18px normal normal bold 18px;" fill="#464646" fill-opacity="1" stroke="none" transform="matrix(1,0,0,1,5,5)" dominant-baseline="central" text-anchor="start" x="0" y="9">ECharts Test</text></g></svg>